<svg id="Layer_1" data-name="Layer 1" xmlns="http://www.w3.org/2000/svg" xmlns:xlink="http://www.w3.org/1999/xlink" viewBox="0 0 316.66 272.49">
  <defs>
    <style>
      .cls-1, .cls-7, .cls-8 {
        fill: none;
      }

      .cls-10, .cls-2 {
        stroke: #ff5559;
      }

      .cls-10, .cls-2, .cls-5, .cls-8 {
        stroke-linecap: round;
      }

      .cls-10, .cls-2, .cls-7, .cls-8 {
        stroke-miterlimit: 10;
      }

      .cls-2, .cls-7, .cls-8 {
        stroke-width: 3px;
      }

      .cls-3 {
        clip-path: url(#clip-path);
      }

      .cls-11, .cls-4 {
        fill: #ff5559;
      }

      .cls-4, .cls-5, .cls-6 {
        fill-rule: evenodd;
      }

      .cls-12, .cls-5 {
        fill: #bdbec0;
      }

      .cls-5, .cls-7, .cls-8 {
        stroke: #fff;
      }

      .cls-5 {
        stroke-linejoin: round;
        stroke-width: 4px;
      }

      .cls-9 {
        clip-path: url(#clip-path-2);
      }

      .cls-13 {
        fill: #fff;
      }
    </style>
    <clipPath id="clip-path" transform="translate(-6.57 -1.16)">
      <path class="cls-1" d="M64.88,145.52a207.86,207.86,0,0,0,22.5,43.93,212.86,212.86,0,0,0,77.51,69.26c15.66-7.34,60-30.64,89.23-83.19a195.71,195.71,0,0,0,13.5-30"/>
    </clipPath>
    <clipPath id="clip-path-2" transform="translate(-6.57 -1.16)">
      <rect class="cls-1" x="42.83" y="-14.04" width="236.65" height="167.89"/>
    </clipPath>
  </defs>
  <path class="cls-2" d="M166.67,28.37A360.58,360.58,0,0,1,292,51.58a224.13,224.13,0,0,1-27.11,127c-32.77,59-82.56,85.11-100.13,93.36a239.09,239.09,0,0,1-87-77.73c-40.27-59.84-41-120.62-40.26-142.67A360.85,360.85,0,0,1,166.67,28.37Z" transform="translate(-6.57 -1.16)"/>
  <g class="cls-3">
    <g>
      <path id="path0" class="cls-4" d="M226.92,45.6l.3-.28h0c.92,1.47,1.81,1.43,3,2.56,1.49,4,1.09,6.43.39,7.94A20.19,20.19,0,0,0,229,59.56c-.32,1-1,3.25-.46,3.61,1.47,1,8.54-7,9.63-9.45.78,2-.44,5.94-1.48,8.06-2.8,7,9-6.36,8.27-8.5,3-.9,8.64-2,8.95-4.29.25-1.85-2.75-3.57-3.92-4.31-4.39-2.77-10.1-8.64-15.37-22.46L180.81,3.16c-7.46.63-39.9,4.13-56.48,29.1-20.11,30.26-3.64,72,0,80.92a312.93,312.93,0,0,0,14.81,31.94c2.32,4.31,4.72,7.29,6.42,12,1.64,2.49,5,7,4.79,9.73,2.08,1.84,6.25,12.4,8.6,16.95,1.6,3.51,2,7.06,3.66,10.57,1.77,5.31,3.34,11.63,4.83,16.61,2.85,8.75-4.54-2.9-6.59-3.45-10.29-9.51-20.58-18.12-30.9-22.65-22.91-9-62.4-4.45-53.92,29,2.88,7.4-2,5.16-5.38,10.84-4.68,8.29,3.47,17.09,9.83,21.81,26.25,21,63.37,24.4,95.89,19.41,10.1-.34,27.86,4.61,38.57,2,40.33-5.78,34-40-.48-49.68-2.63-1-7.47-1.62-9.79-2-.07-7.1-1.75-15.07-2.87-22-2.27-11.36-7.07-22.35-9.69-33.52-2.46-21.52,3.13-51.39,7.67-73,.82-2.56,1.16-7.89,1.41-10.07.32-6.81,1.54,0,3.29,2,5.31,6.81,18.8,5.78,24.24-1-.86-1.82-5.65-1-7.3-3.36a27.53,27.53,0,0,1-2.08-8.84A28.66,28.66,0,0,1,226.92,45.6Z" transform="translate(-6.57 -1.16)"/>
      <path id="path0-2" data-name="path0" class="cls-5" d="M226.92,45.6l.3-.28h0c.92,1.47,1.81,1.43,3,2.56,1.49,4,1.09,6.43.39,7.94A20.19,20.19,0,0,0,229,59.56c-.32,1-1,3.25-.46,3.61,1.47,1,8.54-7,9.63-9.45.78,2-.44,5.94-1.48,8.06-2.8,7,9-6.36,8.27-8.5,3-.9,8.64-2,8.95-4.29.25-1.85-2.75-3.57-3.92-4.31-4.39-2.77-10.1-8.64-15.37-22.46L180.81,3.16c-7.46.63-39.9,4.13-56.48,29.1-20.11,30.26-3.64,72,0,80.92a312.93,312.93,0,0,0,14.81,31.94c2.32,4.31,4.72,7.29,6.42,12,1.64,2.49,5,7,4.79,9.73,2.08,1.84,6.25,12.4,8.6,16.95,1.6,3.51,2,7.06,3.66,10.57,1.77,5.31,3.34,11.63,4.83,16.61,2.85,8.75-4.54-2.9-6.59-3.45-10.29-9.51-20.58-18.12-30.9-22.65-22.91-9-62.4-4.45-53.92,29,2.88,7.4-2,5.16-5.38,10.84-4.68,8.29,3.47,17.09,9.83,21.81,26.25,21,63.37,24.4,95.89,19.41,10.1-.34,27.86,4.61,38.57,2,40.33-5.78,34-40-.48-49.68-2.63-1-7.47-1.62-9.79-2-.07-7.1-1.75-15.07-2.87-22-2.27-11.36-7.07-22.35-9.69-33.52-2.46-21.52,3.13-51.39,7.67-73,.82-2.56,1.16-7.89,1.41-10.07.32-6.81,1.54,0,3.29,2,5.31,6.81,18.8,5.78,24.24-1-.86-1.82-5.65-1-7.3-3.36a27.53,27.53,0,0,1-2.08-8.84A28.66,28.66,0,0,1,226.92,45.6Zm-4.33-17.38c3.59,4.66-1,1.51-3.29.57-2.9-1.22-6-7.55-1-7.18M174.12,31.68c-11.2,14.92-8.94,25.5,6.52,35.79.86.8,3.55,1.72,4.06,2.54-1.12-.53-3.42-.63-5-1.31-28.37-7.22-21.39-23.37-5.56-37M154.73,54.25c1.55,7.22,9.87,11.11,15.88,14.11a147.91,147.91,0,0,0,14.69,5.06c1.52-.5.82,2.25.72,2.88-.24,3.57-.17,6.78-4.91,5.15-11.29-3.24-40.49-12-26.38-27.2m-5,17.2c5.91,4.16,12.28,6.77,19.13,9.32C173,82,177.82,83.22,181.76,84c3.42-1.66,1.83,8.24,1.5,8.42-10.63,1.11-42-6.18-33.5-21m1.15,15.7c7.8,5.24,17.48,6.94,26.61,8.3,3.54,1,5.09-1.63,4.88,3.82,2.43,9.8-15.23,4.55-19,3.66-6.87-1.25-18.1-8.79-12.49-15.78m2.36,16.16c9.33,3.45,9.89,3.71,21.46,3.9,1.3.59,9-1.5,7.36,2.1-.16,2.57,1.37,4.56-.39,6.44C173,118.94,158.59,118,152.76,110c-.48-.1-2.67-9.12.51-6.7m2.9,14.49c7.47,2.81,11.29,2.2,23.71,1.74,1.55-.09,1.49-.24,1.64,4.19,1.33,7-14.24,5.4-18.5,4.47-3.42-.8-6.56-2.12-7.88-5.3-.26-.35-1.56-7.39,1-5.1m4.22,12.81c4.87,1.84,16.74.73,21.62.36,0,1.94.51,3.58.44,5.43-4.27,3.78-14.8,3-19,1.91-3.37.71-7.89-9.21-3-7.7m23.54,9.59c2.59,9.35-9.36,8.61-16.16,7.93-3.33.73-8-8.44-3.59-7.41,6.12,1.69,14.11.14,19.75-.52m.59,9.29c1.59,4.76-.81,5.85-5.23,6.48-4.44-.1-12.54,1.71-12.41-5-.17-3.11,8.61.61,12.85-1.08,1.93-.08,3.26-1,4.79-.41m2.27,6.64c-.1.51.53,3.78-.25,4.42-3.69,1.95-15.27,5.64-15.61-1.73-.55-2.7,7.69-.24,8.91-1.25,2.15-.22,5.21-1.69,6.95-1.44m2.15,7.47c1.7,6.65-7.59,7.34-12.2,6.38-2.1-1.29-4.1-5.76,1.63-4.8,3.89,1,10.51-4.25,10.57-1.58m2,5.94c2,6.2-6.11,7.61-10.88,6.8-2.09-.49-4.16-5.63.75-4.67,4.71.31,6.63-1.74,10.13-2.13m2.53,8.45c.06,5.48-7,5.2-10.72,5.08-4.83-5.21.37-4,3.66-4.67,2.45.16,7.74-4.3,7.06-.41m2.78,5.89c.63,4.55-8.84,6.26-12.28,4.53-1-.7-.42-2.75-.62-3.82h2c3.88,1.06,12-4.94,10.86-.71m1,6.62c-.36,5.26-7.27,4.84-11.76,4.91-3.31-4.45.42-4.58,4.26-4.47,1.67-.62,3.44-.92,5.18-1.67,1.92-.36,2.29-2.12,2.32,1.23m-37.17,3,38.81,2.95c.27,4.87-7.63,5.1-11.61,5-4.83-5.28,2.65-4.11,5.69-5,2.13,0,6.49-4.13,5.92,0m1.21,6.21c1.52,4.63-10.31,7.4-12.61,4.89-.73-1.66-1.45-3.94,1.93-3.36,3.15,1.18,11-4.67,10.68-1.53m.89,7.14c.94,4.58-8.33,5.72-11.8,5.23-1.39-1.55-2.82-5.1,1.89-4.39,3.74,1.11,10.28-5,9.91-.84m.76,4.51c1.58,5.13-5.11,7.06-9.32,7-3.23.53-3.9-1.73-3.57-4.47,5.12.43,8.87-1.28,12.89-2.5m-1.22,6.39c1.36,3.82-2.32,5.5-5.27,6.6-1.24,0-7.49,1.25-6.54-2.4-1.29-2.88,4-1.5,5.21-2.05,2.59-.52,4.48-2,6.6-2.15m-1.46,9.08c-.08,4.09-6.29,3.29-9.33,2.66-1,.37-2.35-4.49-.33-3.76,1,1.16,11-1.62,9.66,1.1m-10.29,4c.51.43,1.2.51,4.86.57,5.52-.3,3.68.79,2.55,3.33-2.54,1.26-6.5.3-8.17-.88-1-.6-.62-4.6.76-3m-2.21,5c-.25,1,9.5-.28,8.37,1.66-.24,4-6.53,2.65-8.44,1.88-1.36-.25-2.51-5.11.07-3.54m-3.37,4.87c1.06.84,6.2.84,8.69.88.56,4.46-4.7,4.16-7.85,2.91-1.87,0-3.35-4.9-.84-3.79m-4.35,4.69c.43.27.75.13,1.27.45s.73.27,4,.32c3.86,0,3.79,0,3.5.88.45,3.55-5.35,2.45-6.76,2.2-2.25.4-4.6-4.39-2-3.85M172.69,253c2.43.63,1.31.75,5.39.78,3.47-.06,4.21-.26,2.93,2.5-1.75,1.79-13-.44-8.32-3.28m-6,4.37c1.16,1.07,11.49-1,8.39,2.5-2.19,1.38-7.08.21-8.52-.08-2.23-.88-2.27-3.46.13-2.42" transform="translate(-6.57 -1.16)"/>
      <path id="path0-3" data-name="path0" class="cls-6" d="M226.92,45.6l.3-.28h0c.92,1.47,1.81,1.43,3,2.56,1.49,4,1.09,6.43.39,7.94A20.19,20.19,0,0,0,229,59.56c-.32,1-1,3.25-.46,3.61,1.47,1,8.54-7,9.63-9.45.78,2-.44,5.94-1.48,8.06-2.8,7,9-6.36,8.27-8.5,3-.9,8.64-2,8.95-4.29.25-1.85-2.75-3.57-3.92-4.31-4.39-2.77-10.1-8.64-15.37-22.46L180.81,3.16c-7.46.63-39.9,4.13-56.48,29.1-20.11,30.26-3.64,72,0,80.92a312.93,312.93,0,0,0,14.81,31.94c2.32,4.31,4.72,7.29,6.42,12,1.64,2.49,5,7,4.79,9.73,2.08,1.84,6.25,12.4,8.6,16.95,1.6,3.51,2,7.06,3.66,10.57,1.77,5.31,3.34,11.63,4.83,16.61,2.85,8.75-4.54-2.9-6.59-3.45-10.29-9.51-20.58-18.12-30.9-22.65-22.91-9-62.4-4.45-53.92,29,2.88,7.4-2,5.16-5.38,10.84-4.68,8.29,3.47,17.09,9.83,21.81,26.25,21,63.37,24.4,95.89,19.41,10.1-.34,27.86,4.61,38.57,2,40.33-5.78,34-40-.48-49.68-2.63-1-7.47-1.62-9.79-2-.07-7.1-1.75-15.07-2.87-22-2.27-11.36-7.07-22.35-9.69-33.52-2.46-21.52,3.13-51.39,7.67-73,.82-2.56,1.16-7.89,1.41-10.07.32-6.81,1.54,0,3.29,2,5.31,6.81,18.8,5.78,24.24-1-.86-1.82-5.65-1-7.3-3.36a27.53,27.53,0,0,1-2.08-8.84A28.66,28.66,0,0,1,226.92,45.6ZM182.58,12c2.11.12,11.21,1.49,10.22,2.78a103.9,103.9,0,0,0-23,3.78c-49.51,13.06-43.29,65.76-27.91,103.81,9.64,24.49,23.61,47,34,71.15,35.16,91.43-113.6,67-103.44,32.86,7-11.14,11-1.7,16.6,2.15A75.45,75.45,0,0,0,113.45,241c15.91,5,36,3.08,49.82-6.39,10.94-6.72,8.74-14.78,6.27-25.36-4.66-21.51-15.47-41.44-24.44-61.61-11.8-29.08-35.1-72.8-22.58-104C133.17,21.3,158.44,9.48,182.58,12m19.56,5.5c10,5.44,18.1,18.12,28.48,23.07a50.32,50.32,0,0,0,11.13,4.56c3.35,1.09,15.11,1.79,6.69,5.39-1,1-4.81-1.47-4.64,1.29.33,1.81-4.92,9.44-4.33,6.67.43-1.28.59-10.45-1.31-7.39-.72,1.66-8.28,13.26-6.45,6.3,1.71-8.71.5-10.25-6.53-15.23-4.94-3.91-13.56-9.61-19.63-4.71-3.26,4.34-.92,14.86-.63,18.89,2.56,12,3,24.24,18.68,23.51-15.44,8.7-21.12-8-24.11-20.34-2.36-7.64-3.33-37.24,2.65-42m-16.27,2c-6.47,1.26-14.73,2.86-20.69,6.69-6.45,3.57-18.79,13.85-10.14,21-19.44,18.91-4.84,78.72,6.65,100.36,8.71,20.53,22,39.21,24.05,61.95,3.82,21.95-5.56,40.55-26.48,48.47-2.49,1.4-8.2,1.82-10.78,1.55.44-1,2.93-.77,4-1.47,31.59-8.93,35.14-39.84,25.29-67.33-7.61-19.69-19.09-37.39-27.3-56.64C133.31,97,126.91,17,185.87,19.49m32.48,2.12c1.27,2.19,3,4.4,4.24,6.61,3.59,4.66-1,1.51-3.29.57-2.9-1.22-6-7.55-1-7.18M174.12,31.68c-11.2,14.92-8.94,25.5,6.52,35.79.86.8,3.55,1.72,4.06,2.54-1.12-.53-3.42-.63-5-1.31-28.37-7.22-21.39-23.37-5.56-37M154.73,54.25c1.55,7.22,9.87,11.11,15.88,14.11a147.91,147.91,0,0,0,14.69,5.06c1.52-.5.82,2.25.72,2.88-.24,3.57-.17,6.78-4.91,5.15-11.29-3.24-40.49-12-26.38-27.2m-5,17.2c5.91,4.16,12.28,6.77,19.13,9.32C173,82,177.82,83.22,181.76,84c3.42-1.66,1.83,8.24,1.5,8.42-10.63,1.11-42-6.18-33.5-21m42,5.15c1.06,1.16,4.88,2.93,4.45,5.17-.74,6.55-1.88,12.21-2.87,18.56-2.46,13.67-3.77,30.05-5,43.67-.58,6.73-1.95-8-2.14-10.31-.7-14.55-1.23-44.86,5.51-57.09M150.91,87.15c7.8,5.24,17.48,6.94,26.61,8.3,3.54,1,5.09-1.63,4.88,3.82,2.43,9.8-15.23,4.55-19,3.66-6.87-1.25-18.1-8.79-12.49-15.78m2.36,16.16c9.33,3.45,9.89,3.71,21.46,3.9,1.3.59,9-1.5,7.36,2.1-.16,2.57,1.37,4.56-.39,6.44C173,118.94,158.59,118,152.76,110c-.48-.1-2.67-9.12.51-6.7m2.9,14.49c7.47,2.81,11.29,2.2,23.71,1.74,1.55-.09,1.49-.24,1.64,4.19,1.33,7-14.24,5.4-18.5,4.47-3.42-.8-6.56-2.12-7.88-5.3-.26-.35-1.56-7.39,1-5.1m4.22,12.81c4.87,1.84,16.74.73,21.62.36,0,1.94.51,3.58.44,5.43-4.27,3.78-14.8,3-19,1.91-3.37.71-7.89-9.21-3-7.7m23.54,9.59c2.59,9.35-9.36,8.61-16.16,7.93-3.33.73-8-8.44-3.59-7.41,6.12,1.69,14.11.14,19.75-.52m.59,9.29c1.59,4.76-.81,5.85-5.23,6.48-4.44-.1-12.54,1.71-12.41-5-.17-3.11,8.61.61,12.85-1.08,1.93-.08,3.26-1,4.79-.41m2.27,6.64c-.1.51.53,3.78-.25,4.42-3.69,1.95-15.27,5.64-15.61-1.73-.55-2.7,7.69-.24,8.91-1.25,2.15-.22,5.21-1.69,6.95-1.44m2.15,7.47c1.7,6.65-7.59,7.34-12.2,6.38-2.1-1.29-4.1-5.76,1.63-4.8,3.89,1,10.51-4.25,10.57-1.58m2,5.94c2,6.2-6.11,7.61-10.88,6.8-2.09-.49-4.16-5.63.75-4.67,4.71.31,6.63-1.74,10.13-2.13m2.53,8.45c.06,5.48-7,5.2-10.72,5.08-4.83-5.21.37-4,3.66-4.67,2.45.16,7.74-4.3,7.06-.41m2.78,5.89c.63,4.55-8.84,6.26-12.28,4.53-1-.7-.42-2.75-.62-3.82h2c3.88,1.06,12-4.94,10.86-.71M111,183.6c-4.55,15,13.94,26.86,24.27,34.79,22.42,16.54,37.51,10.39,15.11,18.57C92.61,257.63,45.56,180.88,111,183.6m10.53,1.48c17.12,2.92,32.85,17.63,43.09,31.39,11.72,21.07-20.77,4.62-27.19-.93-5.23-2.82-35.7-33.49-15.9-30.46m75.69,5.42c-.36,5.26-7.27,4.84-11.76,4.91-3.31-4.45.42-4.58,4.26-4.47,1.67-.62,3.44-.92,5.18-1.67,1.92-.36,2.29-2.12,2.32,1.23m-37.17,3,38.81,2.95c.27,4.87-7.63,5.1-11.61,5-4.83-5.28,2.65-4.11,5.69-5,2.13,0,6.49-4.13,5.92,0m1.21,6.21c1.52,4.63-10.31,7.4-12.61,4.89-.73-1.66-1.45-3.94,1.93-3.36,3.15,1.18,11-4.67,10.68-1.53m.89,7.14c.94,4.58-8.33,5.72-11.8,5.23-1.39-1.55-2.82-5.1,1.89-4.39,3.74,1.11,10.28-5,9.91-.84m.76,4.51c1.58,5.13-5.11,7.06-9.32,7-3.23.53-3.9-1.73-3.57-4.47,5.12.43,8.87-1.28,12.89-2.5m-1.22,6.39c1.36,3.82-2.32,5.5-5.27,6.6-1.24,0-7.49,1.25-6.54-2.4-1.29-2.88,4-1.5,5.21-2.05,2.59-.52,4.48-2,6.6-2.15m15.58,1.19c12.8,6.45,35.11,23.8,14.08,35.55-10,4.81-10.86,7.16-24.46,7-5.43.15-26.71-1.3-20.48-4.22,10.29-5.21,21.06-14,26.59-24.68a47.25,47.25,0,0,0,2.65-7.56c.62-.84,0-7.67,1.62-6.11m-17,7.89c-.08,4.09-6.29,3.29-9.33,2.66-1,.37-2.35-4.49-.33-3.76,1,1.16,11-1.62,9.66,1.1m-10.29,4c.51.43,1.2.51,4.86.57,5.52-.3,3.68.79,2.55,3.33-2.54,1.26-6.5.3-8.17-.88-1-.6-.62-4.6.76-3m-2.21,5c-.25,1,9.5-.28,8.37,1.66-.24,4-6.53,2.65-8.44,1.88-1.36-.25-2.51-5.11.07-3.54m-3.37,4.87c1.06.84,6.2.84,8.69.88.56,4.46-4.7,4.16-7.85,2.91-1.87,0-3.35-4.9-.84-3.79m-4.35,4.69c.43.27.75.13,1.27.45s.73.27,4,.32c3.86,0,3.79,0,3.5.88.45,3.55-5.35,2.45-6.76,2.2-2.25.4-4.6-4.39-2-3.85M172.69,253c2.43.63,1.31.75,5.39.78,3.47-.06,4.21-.26,2.93,2.5-1.75,1.79-13-.44-8.32-3.28m-6,4.37c1.16,1.07,11.49-1,8.39,2.5-2.19,1.38-7.08.21-8.52-.08-2.23-.88-2.27-3.46.13-2.42" transform="translate(-6.57 -1.16)"/>
    </g>
  </g>
  <path class="cls-7" d="M64.88,145.52a207.86,207.86,0,0,0,22.5,43.93,212.86,212.86,0,0,0,77.51,69.26c15.66-7.34,60-30.64,89.23-83.19a195.71,195.71,0,0,0,13.5-30" transform="translate(-6.57 -1.16)"/>
  <path class="cls-8" d="M265.77,150.41a200.67,200.67,0,0,0,12.36-87.85,321,321,0,0,0-226.78,0,218.93,218.93,0,0,0,15.17,87.85" transform="translate(-6.57 -1.16)"/>
  <g class="cls-9">
    <g>
      <path id="path0-4" data-name="path0" class="cls-4" d="M227.82,47.22l.3-.28h0c.92,1.47,1.8,1.43,3,2.56,1.5,4,1.1,6.43.39,7.94a21.07,21.07,0,0,0-1.62,3.74c-.32,1-1,3.25-.46,3.61,1.46,1,8.54-7,9.63-9.45.77,2-.44,5.94-1.48,8.06-2.81,7,9-6.36,8.27-8.5,3-.9,8.64-1.95,8.95-4.29.25-1.85-2.75-3.57-3.93-4.31-4.38-2.77-10.09-8.64-15.37-22.46L181.7,4.78c-7.46.63-39.89,4.13-56.48,29.1-20.1,30.26-3.63,72,0,80.92A312.93,312.93,0,0,0,140,146.74c2.33,4.31,4.73,7.29,6.42,12,1.65,2.49,5,7,4.8,9.73,2.07,1.84,6.25,12.4,8.6,16.95,1.6,3.51,1.95,7.06,3.66,10.57,1.77,5.31,3.34,11.63,4.82,16.61,2.85,8.75-4.54-2.9-6.58-3.45-10.29-9.51-20.58-18.12-30.9-22.65-22.91-9-62.4-4.45-53.93,29,2.89,7.4-2,5.16-5.38,10.84-4.68,8.29,3.48,17.09,9.84,21.81,26.25,21,63.37,24.4,95.89,19.41,10.1-.34,27.85,4.61,38.56,2,40.34-5.78,34-40-.48-49.68-2.62-1-7.46-1.62-9.79-2-.06-7.1-1.74-15.07-2.86-22-2.28-11.36-7.07-22.35-9.69-33.52-2.46-21.52,3.13-51.39,7.67-73,.82-2.56,1.16-7.89,1.4-10.07.32-6.81,1.55,0,3.29,2,5.32,6.81,18.81,5.78,24.24-1-.85-1.82-5.64-1-7.29-3.36a27.27,27.27,0,0,1-2.08-8.84A28.62,28.62,0,0,1,227.82,47.22Z" transform="translate(-6.57 -1.16)"/>
      <path id="path0-5" data-name="path0" class="cls-5" d="M227.82,47.22l.3-.28h0c.92,1.47,1.8,1.43,3,2.56,1.5,4,1.1,6.43.39,7.94a21.07,21.07,0,0,0-1.62,3.74c-.32,1-1,3.25-.46,3.61,1.46,1,8.54-7,9.63-9.45.77,2-.44,5.94-1.48,8.06-2.81,7,9-6.36,8.27-8.5,3-.9,8.64-1.95,8.95-4.29.25-1.85-2.75-3.57-3.93-4.31-4.38-2.77-10.09-8.64-15.37-22.46L181.7,4.78c-7.46.63-39.89,4.13-56.48,29.1-20.1,30.26-3.63,72,0,80.92A312.93,312.93,0,0,0,140,146.74c2.33,4.31,4.73,7.29,6.42,12,1.65,2.49,5,7,4.8,9.73,2.07,1.84,6.25,12.4,8.6,16.95,1.6,3.51,1.95,7.06,3.66,10.57,1.77,5.31,3.34,11.63,4.82,16.61,2.85,8.75-4.54-2.9-6.58-3.45-10.29-9.51-20.58-18.12-30.9-22.65-22.91-9-62.4-4.45-53.93,29,2.89,7.4-2,5.16-5.38,10.84-4.68,8.29,3.48,17.09,9.84,21.81,26.25,21,63.37,24.4,95.89,19.41,10.1-.34,27.85,4.61,38.56,2,40.34-5.78,34-40-.48-49.68-2.62-1-7.46-1.62-9.79-2-.06-7.1-1.74-15.07-2.86-22-2.28-11.36-7.07-22.35-9.69-33.52-2.46-21.52,3.13-51.39,7.67-73,.82-2.56,1.16-7.89,1.4-10.07.32-6.81,1.55,0,3.29,2,5.32,6.81,18.81,5.78,24.24-1-.85-1.82-5.64-1-7.29-3.36a27.27,27.27,0,0,1-2.08-8.84A28.62,28.62,0,0,1,227.82,47.22Zm-4.34-17.38c3.59,4.66-1,1.51-3.28.57-2.9-1.22-6-7.55-.95-7.18M175,33.3c-11.2,14.92-8.93,25.5,6.53,35.79.86.8,3.55,1.72,4.06,2.54-1.12-.53-3.42-.63-5-1.31C152.21,63.1,159.19,47,175,33.3M155.62,55.87C157.17,63.09,165.5,67,171.51,70A147.73,147.73,0,0,0,186.19,75c1.53-.5.83,2.25.72,2.88-.23,3.57-.17,6.78-4.9,5.15-11.29-3.24-40.49-12-26.39-27.2m-5,17.2c5.91,4.16,12.28,6.77,19.12,9.32,4.08,1.21,8.93,2.45,12.87,3.21,3.42-1.66,1.84,8.24,1.51,8.42-10.64,1.11-42-6.18-33.5-21m1.15,15.7c7.79,5.24,17.48,6.94,26.61,8.3,3.53,1,5.09-1.63,4.88,3.82,2.42,9.8-15.23,4.55-19,3.66-6.87-1.25-18.11-8.79-12.49-15.78m2.36,16.16c9.33,3.45,9.89,3.71,21.45,3.9,1.31.59,9-1.5,7.36,2.1-.16,2.57,1.38,4.56-.38,6.44-8.67,3.19-23.12,2.26-28.94-5.74-.49-.1-2.67-9.12.51-6.7m2.9,14.49c7.47,2.81,11.28,2.2,23.7,1.74,1.56-.09,1.5-.24,1.64,4.19,1.34,7-14.23,5.4-18.5,4.47-3.41-.8-6.55-2.12-7.87-5.3-.26-.35-1.57-7.39,1-5.1m4.22,12.81c4.87,1.84,16.74.73,21.62.36,0,1.94.51,3.58.44,5.43-4.28,3.78-14.81,3-19.06,1.91-3.36.71-7.88-9.21-3-7.7m23.54,9.59c2.58,9.35-9.37,8.61-16.16,7.93-3.33.73-8-8.44-3.6-7.41,6.13,1.69,14.11.14,19.76-.52m.59,9.29c1.58,4.76-.81,5.85-5.24,6.48-4.43-.1-12.54,1.71-12.41-5-.17-3.11,8.61.61,12.86-1.08,1.92-.08,3.26-1,4.79-.41m2.27,6.64c-.1.51.53,3.78-.25,4.42-3.7,2-15.28,5.64-15.61-1.73-.55-2.7,7.68-.24,8.91-1.25,2.15-.22,5.21-1.69,6.95-1.44m2.15,7.47c1.69,6.65-7.6,7.34-12.21,6.38-2.09-1.29-4.09-5.76,1.63-4.8,3.9,1,10.52-4.25,10.58-1.58m2,5.94c2,6.2-6.11,7.61-10.88,6.8-2.1-.49-4.17-5.63.74-4.67,4.72.31,6.64-1.74,10.14-2.13m2.53,8.45c.06,5.48-7,5.2-10.72,5.08-4.84-5.21.37-4,3.65-4.67,2.46.16,7.74-4.3,7.07-.41m2.78,5.89c.63,4.55-8.85,6.26-12.28,4.53-1-.7-.42-2.75-.63-3.82h2c3.87,1.06,12-4.94,10.86-.71m1,6.62c-.35,5.26-7.27,4.84-11.75,4.91-3.32-4.45.42-4.58,4.25-4.47,1.68-.62,3.45-.92,5.19-1.67,1.92-.36,2.28-2.12,2.31,1.23m-37.17,3,38.82,2.95c.27,4.87-7.63,5.1-11.62,5-4.82-5.28,2.66-4.11,5.7-5,2.13,0,6.49-4.13,5.92,0m1.21,6.21c1.52,4.63-10.32,7.4-12.62,4.89-.73-1.66-1.45-3.94,1.93-3.36,3.15,1.18,11-4.67,10.69-1.53m.89,7.14c.94,4.59-8.33,5.72-11.81,5.23-1.38-1.55-2.81-5.1,1.89-4.39,3.75,1.11,10.29-5,9.92-.84m.76,4.51c1.58,5.13-5.12,7.06-9.33,7-3.23.53-3.89-1.73-3.57-4.47,5.12.43,8.88-1.28,12.9-2.5m-1.22,6.39c1.35,3.82-2.32,5.5-5.27,6.6-1.25,0-7.49,1.25-6.55-2.4-1.29-2.88,4.06-1.5,5.21-2.05,2.6-.52,4.49-2,6.61-2.15M200,231.4c-.07,4.09-6.29,3.29-9.33,2.66-1.05.37-2.35-4.49-.33-3.76,1,1.16,11-1.62,9.66,1.1m-10.29,4c.51.43,1.21.51,4.86.57,5.53-.3,3.68.79,2.56,3.33-2.55,1.26-6.51.3-8.18-.88-1-.6-.62-4.6.76-3m-2.21,5c-.25,1,9.5-.28,8.38,1.66-.24,4-6.53,2.65-8.45,1.88-1.35-.25-2.5-5.11.07-3.54m-3.36,4.87c1,.84,6.2.84,8.69.88.56,4.46-4.7,4.16-7.85,2.91-1.88,0-3.35-4.9-.84-3.79M179.73,250c.43.27.76.13,1.28.45s.73.27,4,.32c3.86.05,3.79,0,3.5.88.45,3.55-5.36,2.45-6.76,2.2-2.25.4-4.61-4.39-2-3.85m-6.14,4.66c2.43.63,1.31.75,5.39.78,3.47-.06,4.2-.26,2.93,2.5-1.75,1.79-13-.44-8.32-3.28m-6,4.37c1.15,1.07,11.49-1,8.38,2.5-2.19,1.38-7.07.21-8.51-.08-2.23-.88-2.28-3.46.13-2.42" transform="translate(-6.57 -1.16)"/>
      <path id="path0-6" data-name="path0" class="cls-6" d="M227.82,47.22l.3-.28h0c.92,1.47,1.8,1.43,3,2.56,1.5,4,1.1,6.43.39,7.94a21.07,21.07,0,0,0-1.62,3.74c-.32,1-1,3.25-.46,3.61,1.46,1,8.54-7,9.63-9.45.77,2-.44,5.94-1.48,8.06-2.81,7,9-6.36,8.27-8.5,3-.9,8.64-1.95,8.95-4.29.25-1.85-2.75-3.57-3.93-4.31-4.38-2.77-10.09-8.64-15.37-22.46L181.7,4.78c-7.46.63-39.89,4.13-56.48,29.1-20.1,30.26-3.63,72,0,80.92A312.93,312.93,0,0,0,140,146.74c2.33,4.31,4.73,7.29,6.42,12,1.65,2.49,5,7,4.8,9.73,2.07,1.84,6.25,12.4,8.6,16.95,1.6,3.51,1.95,7.06,3.66,10.57,1.77,5.31,3.34,11.63,4.82,16.61,2.85,8.75-4.54-2.9-6.58-3.45-10.29-9.51-20.58-18.12-30.9-22.65-22.91-9-62.4-4.45-53.93,29,2.89,7.4-2,5.16-5.38,10.84-4.68,8.29,3.48,17.09,9.84,21.81,26.25,21,63.37,24.4,95.89,19.41,10.1-.34,27.85,4.61,38.56,2,40.34-5.78,34-40-.48-49.68-2.62-1-7.46-1.62-9.79-2-.06-7.1-1.74-15.07-2.86-22-2.28-11.36-7.07-22.35-9.69-33.52-2.46-21.52,3.13-51.39,7.67-73,.82-2.56,1.16-7.89,1.4-10.07.32-6.81,1.55,0,3.29,2,5.32,6.81,18.81,5.78,24.24-1-.85-1.82-5.64-1-7.29-3.36a27.27,27.27,0,0,1-2.08-8.84A28.62,28.62,0,0,1,227.82,47.22ZM183.47,13.61c2.12.12,11.22,1.49,10.23,2.78a103.9,103.9,0,0,0-23,3.78C121.2,33.23,127.42,85.93,142.8,124c9.64,24.49,23.62,47,34,71.15C212,286.56,63.23,262.17,73.39,228c7-11.14,11-1.7,16.6,2.15a75.45,75.45,0,0,0,24.36,12.47c15.9,5,36,3.08,49.82-6.39,10.94-6.72,8.74-14.78,6.26-25.36C165.78,189.35,155,169.42,146,149.25c-11.8-29.08-35.11-72.8-22.58-104,10.65-22.35,35.91-34.17,60.05-31.66M203,19.11c10,5.44,18.1,18.12,28.48,23.07a49.93,49.93,0,0,0,11.13,4.56c3.34,1.09,15.11,1.79,6.69,5.39-1,1-4.81-1.47-4.65,1.29.33,1.81-4.92,9.44-4.33,6.67.44-1.28.6-10.45-1.3-7.39-.73,1.66-8.28,13.26-6.45,6.3,1.7-8.71.5-10.25-6.53-15.23-4.94-3.91-13.57-9.61-19.64-4.71-3.25,4.34-.92,14.86-.62,18.89,2.56,12,3,24.24,18.68,23.51-15.44,8.7-21.12-8-24.12-20.34-2.35-7.64-3.32-37.24,2.66-42m-16.27,2C180.3,22.37,172,24,166.08,27.8c-6.45,3.57-18.79,13.85-10.15,21-19.43,18.91-4.83,78.72,6.65,100.36,8.72,20.53,22,39.21,24.06,62,3.81,21.95-5.56,40.55-26.49,48.47-2.48,1.4-8.2,1.82-10.78,1.55.45-1,2.93-.77,4-1.47,31.58-8.93,35.13-39.84,25.28-67.33-7.61-19.69-19.08-37.39-27.29-56.64C134.2,98.57,127.81,18.64,186.77,21.11m32.48,2.12c1.26,2.19,3,4.4,4.23,6.61,3.59,4.66-1,1.51-3.28.57-2.9-1.22-6-7.55-.95-7.18M175,33.3c-11.2,14.92-8.93,25.5,6.53,35.79.86.8,3.55,1.72,4.06,2.54-1.12-.53-3.42-.63-5-1.31C152.21,63.1,159.19,47,175,33.3M155.62,55.87C157.17,63.09,165.5,67,171.51,70A147.73,147.73,0,0,0,186.19,75c1.53-.5.83,2.25.72,2.88-.23,3.57-.17,6.78-4.9,5.15-11.29-3.24-40.49-12-26.39-27.2m-5,17.2c5.91,4.16,12.28,6.77,19.12,9.32,4.08,1.21,8.93,2.45,12.87,3.21,3.42-1.66,1.84,8.24,1.51,8.42-10.64,1.11-42-6.18-33.5-21m42,5.15c1.05,1.16,4.88,2.93,4.44,5.17-.73,6.55-1.87,12.21-2.86,18.56-2.47,13.67-3.77,30.05-5,43.67-.57,6.73-1.95-8-2.14-10.31-.7-14.55-1.22-44.86,5.52-57.09M151.81,88.77c7.79,5.24,17.48,6.94,26.61,8.3,3.53,1,5.09-1.63,4.88,3.82,2.42,9.8-15.23,4.55-19,3.66-6.87-1.25-18.11-8.79-12.49-15.78m2.36,16.16c9.33,3.45,9.89,3.71,21.45,3.9,1.31.59,9-1.5,7.36,2.1-.16,2.57,1.38,4.56-.38,6.44-8.67,3.19-23.12,2.26-28.94-5.74-.49-.1-2.67-9.12.51-6.7m2.9,14.49c7.47,2.81,11.28,2.2,23.7,1.74,1.56-.09,1.5-.24,1.64,4.19,1.34,7-14.23,5.4-18.5,4.47-3.41-.8-6.55-2.12-7.87-5.3-.26-.35-1.57-7.39,1-5.1m4.22,12.81c4.87,1.84,16.74.73,21.62.36,0,1.94.51,3.58.44,5.43-4.28,3.78-14.81,3-19.06,1.91-3.36.71-7.88-9.21-3-7.7m23.54,9.59c2.58,9.35-9.37,8.61-16.16,7.93-3.33.73-8-8.44-3.6-7.41,6.13,1.69,14.11.14,19.76-.52m.59,9.29c1.58,4.76-.81,5.85-5.24,6.48-4.43-.1-12.54,1.71-12.41-5-.17-3.11,8.61.61,12.86-1.08,1.92-.08,3.26-1,4.79-.41m2.27,6.64c-.1.51.53,3.78-.25,4.42-3.7,2-15.28,5.64-15.61-1.73-.55-2.7,7.68-.24,8.91-1.25,2.15-.22,5.21-1.69,6.95-1.44m2.15,7.47c1.69,6.65-7.6,7.34-12.21,6.38-2.09-1.29-4.09-5.76,1.63-4.8,3.9,1,10.52-4.25,10.58-1.58m2,5.94c2,6.2-6.11,7.61-10.88,6.8-2.1-.49-4.17-5.63.74-4.67,4.72.31,6.64-1.74,10.14-2.13m2.53,8.45c.06,5.48-7,5.2-10.72,5.08-4.84-5.21.37-4,3.65-4.67,2.46.16,7.74-4.3,7.07-.41m2.78,5.89c.63,4.55-8.85,6.26-12.28,4.53-1-.7-.42-2.75-.63-3.82h2c3.87,1.06,12-4.94,10.86-.71m-85.2-.28c-4.56,15,13.94,26.86,24.27,34.79,22.42,16.54,37.5,10.39,15.11,18.57-57.79,20.67-104.84-56.08-39.38-53.36m10.53,1.48c17.12,2.92,32.85,17.63,43.08,31.39,11.73,21.07-20.77,4.62-27.19-.93-5.22-2.82-35.7-33.49-15.89-30.46m75.68,5.42c-.35,5.26-7.27,4.84-11.75,4.91-3.32-4.45.42-4.58,4.25-4.47,1.68-.62,3.45-.92,5.19-1.67,1.92-.36,2.28-2.12,2.31,1.23m-37.17,3,38.82,2.95c.27,4.87-7.63,5.1-11.62,5-4.82-5.28,2.66-4.11,5.7-5,2.13,0,6.49-4.13,5.92,0m1.21,6.21c1.52,4.63-10.32,7.4-12.62,4.89-.73-1.66-1.45-3.94,1.93-3.36,3.15,1.18,11-4.67,10.69-1.53m.89,7.14c.94,4.59-8.33,5.72-11.81,5.23-1.38-1.55-2.81-5.1,1.89-4.39,3.75,1.11,10.29-5,9.92-.84m.76,4.51c1.58,5.13-5.12,7.06-9.33,7-3.23.53-3.89-1.73-3.57-4.47,5.12.43,8.88-1.28,12.9-2.5m-1.22,6.39c1.35,3.82-2.32,5.5-5.27,6.6-1.25,0-7.49,1.25-6.55-2.4-1.29-2.88,4.06-1.5,5.21-2.05,2.6-.52,4.49-2,6.61-2.15M217,223.51c12.79,6.45,35.1,23.8,14.08,35.55-10,4.81-10.86,7.16-24.46,7-5.43.15-26.71-1.3-20.49-4.22,10.3-5.21,21.06-14,26.59-24.68a47.28,47.28,0,0,0,2.66-7.56c.62-.84,0-7.67,1.62-6.11M200,231.4c-.07,4.09-6.29,3.29-9.33,2.66-1.05.37-2.35-4.49-.33-3.76,1,1.16,11-1.62,9.66,1.1m-10.29,4c.51.43,1.21.51,4.86.57,5.53-.3,3.68.79,2.56,3.33-2.55,1.26-6.51.3-8.18-.88-1-.6-.62-4.6.76-3m-2.21,5c-.25,1,9.5-.28,8.38,1.66-.24,4-6.53,2.65-8.45,1.88-1.35-.25-2.5-5.11.07-3.54m-3.36,4.87c1,.84,6.2.84,8.69.88.56,4.46-4.7,4.16-7.85,2.91-1.88,0-3.35-4.9-.84-3.79M179.73,250c.43.27.76.13,1.28.45s.73.27,4,.32c3.86.05,3.79,0,3.5.88.45,3.55-5.36,2.45-6.76,2.2-2.25.4-4.61-4.39-2-3.85m-6.14,4.66c2.43.63,1.31.75,5.39.78,3.47-.06,4.2-.26,2.93,2.5-1.75,1.79-13-.44-8.32-3.28m-6,4.37c1.15,1.07,11.49-1,8.38,2.5-2.19,1.38-7.07.21-8.51-.08-2.23-.88-2.28-3.46.13-2.42" transform="translate(-6.57 -1.16)"/>
    </g>
  </g>
  <path class="cls-10" d="M7.32,123.51,18.4,150.17,7.32,176.83H308.18a14.55,14.55,0,0,0,14.55-14.55V123.51Z" transform="translate(-6.57 -1.16)"/>
  <g>
    <path class="cls-11" d="M261.7,154.56v6.33h4.5v8.82H248.61v-8.82H251V139.4h-2.34v-8.77h28.76V141h-8.82V139.4H261.7v6.38h1.59v-1.55h8.77V156.1h-8.77v-1.54Z" transform="translate(-6.57 -1.16)"/>
    <path class="cls-11" d="M298.43,145.64v-5l-1.22-1.27h-5.72l-1.27,1.27v19l1.27,1.22h5.72l1.22-1.22V155h10.74v8.49l-6.24,6.24H285.72l-6.24-6.24v-26.6l6.24-6.24h17.21l6.24,6.24v8.77Z" transform="translate(-6.57 -1.16)"/>
    <g>
      <path class="cls-12" d="M184.66,149.44H159.14v11.45h-2.35v8.82H181l6.24-6.24V152Zm-8.16,10.23-1.27,1.22h-5.35v-7h5.35l1.27,1.27Z" transform="translate(-6.57 -1.16)"/>
      <polygon class="cls-12" points="132.21 148.28 121.46 148.28 121.46 159.72 119.12 159.72 119.12 168.54 148.06 168.54 148.06 157.38 139.24 157.38 139.24 159.72 132.21 159.72 132.21 148.28"/>
      <polygon class="cls-12" points="111 148.28 89.89 148.28 89.89 159.72 87.54 159.72 87.54 168.54 116.3 168.54 116.3 158.18 107.48 158.18 107.48 159.72 100.63 159.72 100.63 153.39 102.23 153.39 102.23 154.94 111 154.94 111 148.28"/>
      <polygon class="cls-12" points="82.38 148.28 53.25 148.28 53.25 159.72 50.9 159.72 50.9 168.54 66.34 168.54 66.34 159.72 63.99 159.72 63.99 153.2 71.64 153.2 71.64 159.72 69.29 159.72 69.29 168.54 84.73 168.54 84.73 159.72 82.38 159.72 82.38 148.28"/>
      <polygon class="cls-12" points="197.14 148.28 213.13 148.28 210.51 150.91 210.51 159.72 212.85 159.72 212.85 168.54 197.42 168.54 197.42 159.72 199.76 159.72 199.76 150.91 197.14 148.28"/>
      <polygon class="cls-12" points="45.41 148.28 19.42 148.28 24.63 153.49 36.12 153.49 37.34 154.75 37.34 158.5 36.12 159.72 30.4 159.72 29.13 158.5 29.13 154.8 18.39 154.8 18.39 162.31 24.63 168.54 41.85 168.54 48.09 162.31 48.09 150.95 45.41 148.28"/>
    </g>
    <g>
      <line class="cls-13" x1="45.41" y1="148.28" x2="45.41" y2="148.28"/>
      <polyline class="cls-13" points="19.42 148.28 45.41 148.28 41.85 144.71 30.4 144.71 29.13 143.44 29.13 139.5 30.4 138.24 36.12 138.24 37.34 139.5 37.34 143.4 48.09 143.4 48.09 135.7 41.85 129.46 24.63 129.46 18.39 135.7 18.39 147.25"/>
      <polygon class="cls-13" points="69.29 138.24 71.64 138.24 71.64 143.59 63.99 143.59 63.99 138.24 66.34 138.24 66.34 129.46 50.9 129.46 50.9 138.24 53.25 138.24 53.25 148.28 82.38 148.28 82.38 138.24 84.73 138.24 84.73 129.46 69.29 129.46 69.29 138.24"/>
      <polygon class="cls-13" points="87.54 138.24 89.89 138.24 89.89 148.28 111 148.28 111 143.07 102.23 143.07 102.23 144.62 100.63 144.62 100.63 138.24 107.48 138.24 107.48 139.79 116.3 139.79 116.3 129.46 87.54 129.46 87.54 138.24"/>
      <polygon class="cls-13" points="121.46 148.28 132.21 148.28 132.21 138.24 134.55 138.24 134.55 129.46 119.12 129.46 119.12 138.24 121.46 138.24 121.46 148.28"/>
      <path class="cls-13" d="M159.14,149.44h25.52l2.58-2.58v-10L181,130.63H156.79v8.77h2.35m10.74,0h5.35l1.27,1.27v3.14l-1.27,1.27h-5.35Z" transform="translate(-6.57 -1.16)"/>
      <polygon class="cls-13" points="208.26 129.46 208.26 138.24 209.85 138.24 205.16 142.93 200.47 138.24 202.01 138.24 202.01 129.46 183.44 129.46 183.44 138.24 187.1 138.24 197.14 148.28 213.13 148.28 223.18 138.24 226.27 138.24 226.27 129.46 208.26 129.46"/>
    </g>
  </g>
</svg>
