<?xml version="1.0" encoding="utf-8"?>
<!-- Generator: Adobe Illustrator 25.2.1, SVG Export Plug-In . SVG Version: 6.00 Build 0)  -->
<svg version="1.1" id="Camada_1" xmlns="http://www.w3.org/2000/svg" xmlns:xlink="http://www.w3.org/1999/xlink" x="0px" y="0px"
	 viewBox="0 0 1920 1080" style="enable-background:new 0 0 1920 1080;" xml:space="preserve">
<style type="text/css">
	.st0{fill:#FFFFFF;}
	.st1{fill:none;}
	.st2{fill:#EE6C88;}
	.st3{font-family:'BritannicBold';}
	.st4{font-size:53px;}
	.st5{font-size:80px;}
</style>
<g>
	<g>
		<path d="M986.1,878.1c-89.1,0-172.8-34.7-235.8-97.7c-63-63-97.7-146.7-97.7-235.8s34.7-172.8,97.7-235.8
			c63-63,146.7-97.7,235.8-97.7s172.8,34.7,235.8,97.7c63,63,97.7,146.7,97.7,235.8s-34.7,172.8-97.7,235.8
			C1158.9,843.4,1075.1,878.1,986.1,878.1z"/>
		<path class="st0" d="M986.1,216.1c44.4,0,87.4,8.7,127.9,25.8c39.1,16.5,74.2,40.2,104.4,70.4c30.2,30.2,53.9,65.3,70.4,104.4
			c17.1,40.5,25.8,83.5,25.8,127.9c0,44.4-8.7,87.4-25.8,127.9c-16.5,39.1-40.2,74.2-70.4,104.4s-65.3,53.9-104.4,70.4
			c-40.5,17.1-83.5,25.8-127.9,25.8s-87.4-8.7-127.9-25.8c-39.1-16.5-74.2-40.2-104.4-70.4s-53.9-65.3-70.4-104.4
			c-17.1-40.5-25.8-83.5-25.8-127.9c0-44.4,8.7-87.4,25.8-127.9c16.5-39.1,40.2-74.2,70.4-104.4c30.2-30.2,65.3-53.9,104.4-70.4
			C898.7,224.7,941.7,216.1,986.1,216.1 M986.1,206.1c-186.9,0-338.5,151.6-338.5,338.5s151.6,338.5,338.5,338.5
			s338.5-151.6,338.5-338.5S1173,206.1,986.1,206.1L986.1,206.1z"/>
	</g>
	<rect x="665.7" y="522" class="st1" width="84.8" height="81.7"/>
	<text transform="matrix(1 0 0 1 665.6807 557.8813)" class="st2 st3 st4">20</text>
	<rect x="1242.3" y="522" class="st1" width="84.8" height="81.7"/>
	<text transform="matrix(1 0 0 1 1242.2815 557.8813)" class="st2 st3 st4">01</text>
	<text transform="matrix(1 0 0 1 851.4043 809.3296)" class="st2 st3 st5">.</text>
	<text transform="matrix(1 0 0 1 1103.793 809.3296)" class="st2 st3 st5">.</text>
	<g>
		<path class="st0" d="M982.1,303.2c32.6,0,64.2,6.4,94,19c28.7,12.2,54.6,29.6,76.7,51.7s39.6,48,51.7,76.7
			c12.6,29.8,19,61.4,19,94s-6.4,64.2-19,94c-12.2,28.7-29.6,54.6-51.7,76.7s-48,39.6-76.7,51.7c-29.8,12.6-61.4,19-94,19
			s-64.2-6.4-94-19c-28.7-12.2-54.6-29.6-76.7-51.7c-22.2-22.2-39.6-48-51.7-76.7c-12.6-29.8-19-61.4-19-94s6.4-64.2,19-94
			c12.2-28.7,29.6-54.6,51.7-76.7c22.2-22.2,48-39.6,76.7-51.7C917.9,309.6,949.5,303.2,982.1,303.2 M982.1,298.2
			c-136.1,0-246.4,110.3-246.4,246.4S846,790.9,982.1,790.9s246.4-110.3,246.4-246.4S1118.1,298.2,982.1,298.2L982.1,298.2z"/>
	</g>
	<ellipse cx="985" cy="395" rx="252" ry="121"/>
	<ellipse cx="987.5" cy="778" rx="75.5" ry="40"/>
	<path id="path3175" class="st0" d="M961.5,372.9c2.2-1.2,4.5-2.3,6.7-3.4c2.2-1.1,4.6-2,6.9-3c2.3-1,4.6-1.8,7-2.7l1.1-0.4l1.2,0.5
		c2.5,1,4.9,2.1,7.3,3.2c2.4,1.2,4.9,2.2,7.2,3.6l7.1,3.8c2.3,1.5,4.6,2.8,6.8,4.4l-0.1,0.2h0l-0.1,0.2l-0.4-0.2l-29-11.9l-27.6,9.8
		l-0.4,0.1l-0.1-0.3C957.1,375.3,959.3,374.2,961.5,372.9 M1038.5,331v0.6c0,0-1.2,15.8-1.5,15c-0.3-0.8-5.9-10.1-5.9-10.1
		L1038.5,331z M1033.1,360.1c10.9-2.4,16.6-19.1,30.8-13.7c0,0-16.4-25.3-24.8-20.8c-5.4,2.8-17.4,11.3-25.3,17.1l-19.4,11.1
		l13.5-3.8C1011.9,353.8,1022.2,362.6,1033.1,360.1 M927.4,334.6l7.6,5.5c0,0-5.7,9.3-6,10.1c-0.3,0.8-1.6-15-1.6-15V334.6z
		 M930,360.1c10.3,2.3,20-5.3,24.4-9.5l13.2,4.6l-11.2-7.5c-3.5-2.6-24.6-18.2-32.3-22.2c-8.4-4.4-24.8,20.8-24.8,20.8
		C913.4,341.1,919.1,357.7,930,360.1 M1183.9,348.6c-37.8-34.6-94,7.1-94,7.1s-15.7-18.5-13.4-36.8c2.4-18.3,92.2-27.9,122.2,23.4
		c47.3,81.1-75.9,228-75.9,228C1206.1,445.3,1203.4,366.5,1183.9,348.6 M1091.7,581.7c-3.8,7.8-7.1,15.4-10.1,22.4
		c-1.4,3.5-2.7,6.9-4,10.2c-1.1,3.3-2.2,6.4-3.2,9.3c-1.8,5.9-3.3,11.1-4.2,15.4c-1,4.3-1.5,7.8-1.9,10.1c-0.4,2.4-0.6,3.6-0.6,3.6
		s0.1-1.3,0.2-3.7c0.2-2.4,0.2-5.9,0.9-10.3c0.5-4.5,1.6-9.8,3-15.9c0.8-3,1.6-6.2,2.5-9.6c1.1-3.3,2.2-6.9,3.4-10.5
		c2.6-7.3,5.5-15.1,9.1-23.1c3.5-8.1,7.4-16.5,11.6-25.1c4.3-8.6,8.7-17.4,13.4-26.3c4.7-8.9,9.4-17.9,14.1-26.9
		c9.5-18,18.6-36.1,25.6-53.7c3.5-8.8,6.4-17.4,8.6-25.7c0.8-4.2,2-8.3,2.4-12.3c0.3-2,0.6-4,0.8-5.9c0.1-1.9,0.2-3.8,0.3-5.7
		c0.2-1.9,0-3.7-0.1-5.5c-0.1-1.8-0.1-3.5-0.3-5.2c-0.6-3.3-0.8-6.6-1.8-9.5c-0.4-1.5-0.8-2.9-1.2-4.2c-0.4-1.4-1.1-2.6-1.6-3.8
		c-0.5-1.2-1.1-2.4-1.6-3.5c-0.5-1.1-1.2-2-1.8-3c-1.2-1.8-2.1-3.6-3.2-5c-1.1-1.3-2-2.5-2.8-3.4c-1.5-1.9-2.3-2.8-2.3-2.8
		s0.9,0.9,2.6,2.6c0.8,0.8,1.9,1.9,3.1,3.1c1.2,1.3,2.3,3,3.7,4.8c0.6,0.9,1.5,1.8,2.1,2.9c0.6,1.1,1.2,2.2,1.9,3.4
		c0.6,1.2,1.4,2.4,2,3.8c0.5,1.4,1.1,2.8,1.6,4.3c1.3,2.9,1.8,6.3,2.7,9.8c0.4,1.7,0.5,3.6,0.7,5.4c0.2,1.9,0.5,3.8,0.4,5.7
		c0.3,7.9-0.8,16.3-2.4,25c-2,8.7-4.5,17.7-7.9,26.8c-3.4,9-7.2,18.3-11.6,27.4c-4.3,9.1-8.9,18.3-13.6,27.4
		c-9.6,18-19.2,35.9-28.3,52.7C1099.7,565.7,1095.4,573.9,1091.7,581.7 M902.1,649.1c-0.4-2.4-0.9-5.8-1.9-10.1
		c-0.9-4.4-2.4-9.5-4.2-15.4c-1-2.9-2.1-6-3.2-9.3c-1.3-3.2-2.6-6.6-4-10.2c-2.9-7-6.3-14.5-10.1-22.4c-3.8-7.9-8-16-12.4-24.5
		c-9-16.8-18.6-34.8-28.3-52.7c-4.7-9.1-9.3-18.2-13.6-27.4c-4.4-9.1-8.1-18.3-11.6-27.4c-3.4-9-6-18.1-7.9-26.8
		c-1.7-8.8-2.8-17.2-2.4-25c-0.1-2,0.2-3.9,0.4-5.7c0.2-1.9,0.3-3.7,0.7-5.4c0.9-3.5,1.4-6.8,2.7-9.8c0.6-1.5,1.1-2.9,1.6-4.3
		c0.5-1.4,1.3-2.6,2-3.8c0.7-1.2,1.3-2.3,1.9-3.4c0.6-1.1,1.4-2,2.1-2.9c1.4-1.8,2.5-3.5,3.7-4.8c1.2-1.2,2.3-2.3,3.1-3.1
		c1.7-1.7,2.6-2.6,2.6-2.6s-0.8,1-2.3,2.8c-0.8,0.9-1.7,2.1-2.8,3.4c-1,1.4-2,3.1-3.2,5c-0.6,0.9-1.3,1.9-1.8,3
		c-0.5,1.1-1,2.3-1.6,3.5c-0.5,1.2-1.2,2.4-1.6,3.8c-0.4,1.4-0.8,2.8-1.2,4.2c-1,2.9-1.2,6.1-1.8,9.5c-0.3,1.7-0.2,3.4-0.3,5.2
		c-0.1,1.8-0.3,3.6-0.1,5.5c0.1,1.9,0.2,3.8,0.3,5.7c0.2,1.9,0.5,3.9,0.8,5.9c0.4,4,1.6,8.1,2.4,12.3c2.2,8.3,5.1,17,8.6,25.7
		c7.1,17.5,16.1,35.7,25.6,53.7c4.7,9,9.5,18,14.1,26.9c4.7,8.9,9.2,17.7,13.4,26.3c4.3,8.6,8.2,17,11.6,25.1
		c3.5,8.1,6.5,15.9,9.1,23.1c1.2,3.7,2.3,7.2,3.4,10.5c0.9,3.4,1.7,6.6,2.5,9.6c1.3,6.1,2.5,11.4,3,15.9c0.8,4.4,0.8,8,0.9,10.3
		c0.1,2.4,0.2,3.7,0.2,3.7S902.5,651.5,902.1,649.1 M771.8,342.3c31.2-53.1,120-43.1,122.4-24.8c0.5,3.9,0.2,7.8-0.6,11.6
		l-20.4,21.7c-16.5-9.9-57.1-29.2-86.5-2.2c-19.5,17.8-22.3,96.6,61.1,221.7C847.6,570.3,724.2,423.2,771.8,342.3 M926.9,304.1
		c8.6,3.5,39,15.2,60.3,15.2c2.7,0,5.2-0.2,7.5-0.6c21.9-3.7,37-8.7,42.6-10.7l66.8,79.7l-53.2,21.3c-8.3-3.6-49.8-21.5-65.4-21.5
		c-0.3,0-0.7,0-1,0c-8.7,0.4-26.1,5.9-42.8,11.3c-13.1,4.2-26.6,8.5-30.7,8.5c-5.3,0-30-15.4-52-31L926.9,304.1z M1017.1,469.2
		l0.9-55.3l10.6,1.2L1017.1,469.2z M943.6,415.3l10.5-1.6l3.2,57.2L943.6,415.3z M1053.5,412.3c-14.9,74.2-34.2,155.8-40.6,161.7
		c-16.1,9.4-54.1,4.5-58.6-1.4c-4.3-6.2-30.2-97.1-46.6-156.9l4.6,1.2c5.3,17.8,32.7,109.6,38.5,117.9c0.7,1,1.6,1.8,2.9,2.6
		c1-1.4,2.1-2.8,3.1-4.3c0.4-0.5,0.7-0.9,1.1-1.4c2.3-2.8,4.6-5.6,7.1-8.2c4-4.4,10.2-8.5,15.3-12.4l0,1.3
		c-5.3,4.6-10.4,9.5-15.3,14.7c-2.8,3.1-5.6,6.2-8.2,9.6c-1.3,1.7-2.6,3.4-3.8,5.1c-0.2,0.2-0.3,0.5-0.5,0.8c-1.3,2-3.3,5.2-4.2,6.9
		c2.1-0.7,5.3-3.8,7.2-4.7c2-0.9,3.8-1.9,5.7-2.8c0.6-0.3,1.2-0.7,1.7-1c9.7,2.4,22.7,2.9,32.4,2.1c3-0.3,5.8-0.6,8.3-1.1
		c1,0.8,2,1.6,3,2.4c1.6,1.2,3.1,2.4,4.8,3.5c1.7,1.1,3.3,2.2,5.1,3.2c-0.5-1.6-1-3-1.6-4.5c-0.2-0.4-0.3-0.8-0.5-1.2
		c-0.8-1.9-1.6-3.6-2.4-5.4c-1.7-3.5-3.6-6.9-5.6-10.3c-2-3.3-4.1-6.5-6.4-9.7c-1.8-2.5-4.5-3.4-6.4-5.8l0.3-48.9l1.6,45.6
		c-0.3,0.6,2.7,3.1,4.5,5.6c2.2,3.1,4.4,6.3,6.4,9.7c1.2,2,2.4,4.1,3.5,6.2c0.7,1.3,1.4,2.6,2.1,4c0.4,0.8,0.7,1.6,1.1,2.3
		c2.8-1.5,4.7-3.4,5.8-5.6c15.4-33.1,31.9-116.5,32.6-120l-1.6-0.8L1053.5,412.3C1053.6,412,1053.6,412,1053.5,412.3 M1033.1,541.5
		c2.9-11.6,5.9-24.2,8.8-37c7.8-1.7,15.5-3.9,23.1-6.4c-0.2,11.1-0.9,23.5-2.2,35.1C1053.1,536.6,1043.2,539.4,1033.1,541.5
		 M1018.5,588.3c3.3-5.8,7.9-20.7,12.7-39.4c10.1-2,20.1-4.6,29.8-7.9c-0.3,11.7-1.2,25-2.8,36.7
		C1045.4,582.4,1032.2,586,1018.5,588.3 M1069,454.6c-0.2,11.1-0.8,23.5-2,35.2c-7.6,2.7-15.4,5.1-23.4,7c2.9-12.9,5.6-25.6,8-37.1
		C1057.5,458.1,1063.3,456.5,1069,454.6 M1071.2,446.7c-5.8,2-11.8,3.9-17.9,5.4c3.8-18.4,6.6-32.5,7.6-37.2
		c4.1-1.1,8.1-2.3,12.1-3.7C1072.8,422.4,1072.2,434.8,1071.2,446.7 M882.2,406.4c3.8,1.4,9.4,3.3,16.6,5.4
		c0.5,1.9,4.5,16.9,10.1,37.5c-9.5-2.7-16.3-5.1-20-6.5C886.2,430.4,883.9,417.7,882.2,406.4 M888.9,450.4c4.8,1.8,12.4,4.3,22.2,7
		c3.2,11.6,6.7,24.4,10.3,37.5c-12.4-3.1-21.4-6.3-25.8-8C892.8,474.5,890.5,461.7,888.9,450.4 M895.5,494.3
		c5.7,2.1,15.4,5.4,28.1,8.4c3.6,12.9,7.2,25.7,10.6,37.3c-15.5-3.4-26.8-7.4-31.9-9.4C899.4,518.4,897.1,505.4,895.5,494.3
		 M902.1,538.3c6.6,2.5,18.6,6.4,34.4,9.6c5.9,19.9,10.7,35.1,13,39.5c-19.4-3.5-33.7-8.8-40-11.4
		C906.3,563.6,903.8,549.9,902.1,538.3 M987.9,631.8c-35.7,0-63.2-9.6-72.2-13.1c-3.1-11.6-5.5-24.6-7-35.6
		c11.9,4.5,41.2,14.6,79,14.6h0c24,0,47.2-4.6,69.2-12.1c-0.3,11.1-1.2,23.6-2.9,34.6C1033.2,627.9,1010.9,631.8,987.9,631.8
		 M988,676.2L988,676.2c-31.5,0-55.9-8.6-64.9-12.4c-3.5-11.7-6.2-26-7.7-37.7c11.2,4.2,38,12.7,72.5,12.7
		c22.5,0,44.4-3.6,65.1-10.8c-0.4,11.8-1.6,25.4-3.6,36.5C1029.9,671.8,1009.2,676.2,988,676.2 M988.2,717.5
		c-28.5,0-50.4-7.5-58.6-10.7c-3.5-10.9-6.1-24.8-7.5-36.1c10.5,4,34.7,12.2,66,12.2h0c21,0,41.5-3.7,61-10.5
		c-0.5,12.4-1.9,25.2-4,34.9C1026.8,714.1,1007.7,717.5,988.2,717.5 M1039.7,751.2c-16.6,6.1-33.9,9.2-51.4,9.2
		c-24.2,0-42.9-6-51.1-9.2c-4.2-9.7-7.2-24.9-8.7-37c9.8,3.7,31.4,10.7,59.6,10.7h0c19.5,0,38.6-3.4,56.9-9.9
		C1044.4,728.4,1042.5,742.2,1039.7,751.2 M1033.6,795.4c-14.7,5.3-29.8,7.9-45.1,7.9c-18.9,0-33.8-4.2-42-7.1
		c-5.8-6.1-9.7-24.3-11.3-38.1c9,3.5,28.1,9.5,53.1,9.5c17.9,0,35.6-3.1,52.7-9.2C1040.2,773.3,1037.4,788.9,1033.6,795.4
		 M839.3,392.1c0,2.3,0.2,4.8,0.5,7.2c0.5,5,1.4,10.1,2.7,15.5c1.1,5.3,2.8,10.7,4.5,16.3c1.7,5.5,3.7,11,5.8,16.5
		c2.1,5.5,4.2,11,6.4,16.4c2.2,5.4,4.4,10.7,6.5,15.9c4.2,10.3,8.1,20,10.9,28.5c1.5,4.2,2.7,8.2,3.6,11.7c1,3.5,1.6,6.6,2.1,9.2
		c0.5,2.6,0.8,4.6,0.9,6c0.2,1.4,0.2,2.1,0.2,2.1s-0.2-0.7-0.6-2.1c-0.4-1.3-1-3.3-1.9-5.7c-0.9-2.4-2-5.4-3.3-8.7
		c-1.3-3.3-3-7-4.8-11.1c-3.8-8.1-8.2-17.5-12.9-27.5c-2.3-5.1-4.8-10.3-7.1-15.7c-2.3-5.4-4.6-10.9-6.8-16.5
		c-4.1-11.3-7.8-22.8-9.7-34c-1.1-5.6-1.6-11.1-1.8-16.3c-0.2-5.2,0.1-10.2,0.7-14.7c0.2-2.3,0.8-4.4,1.2-6.5c0.5-2,1.1-3.9,1.7-5.7
		c1.3-3.5,2.5-6.4,3.9-8.8c1.1-2.4,2.4-4,3.2-5.2c0.8-1.2,1.2-1.8,1.2-1.8s-0.3,0.7-0.9,2c-0.5,1.3-1.5,3.1-2.3,5.6
		c-0.9,2.4-1.7,5.4-2.5,8.9c-0.7,3.5-1.2,7.4-1.4,11.8C839.3,387.5,839.2,389.8,839.3,392.1 M1027.6,835.7
		c-9.9,4.4-23.8,6.9-38.2,6.9c-15.5,0-29.5-2.9-36.7-7.6c-6-3.9-9.6-20.4-10.9-32.9c8.2,3.2,24.9,8.4,46.8,8.4
		c16.4,0,32.7-2.9,48.4-8.7C1035.9,817.4,1032.3,833.7,1027.6,835.7 M1131.1,385.4c-0.2-4.3-0.7-8.3-1.4-11.8
		c-0.8-3.4-1.6-6.5-2.5-8.9c-0.8-2.4-1.7-4.3-2.3-5.6c-0.6-1.3-0.9-2-0.9-2s0.4,0.6,1.2,1.8c0.8,1.2,2,2.8,3.2,5.2
		c1.3,2.3,2.6,5.3,3.9,8.8c0.5,1.8,1.2,3.6,1.7,5.7c0.4,2,1,4.2,1.2,6.5c0.7,4.5,1,9.5,0.7,14.7c-0.2,5.2-0.7,10.7-1.8,16.3
		c-1.9,11.2-5.6,22.8-9.7,34c-2.2,5.6-4.4,11.1-6.8,16.5c-2.3,5.4-4.8,10.6-7.1,15.7c-4.7,10.1-9.1,19.5-12.9,27.5
		c-1.8,4.1-3.5,7.8-4.8,11.1c-1.4,3.3-2.5,6.3-3.4,8.7c-0.8,2.4-1.5,4.4-1.9,5.7c-0.4,1.3-0.6,2.1-0.6,2.1s0.1-0.7,0.2-2.1
		c0.1-1.4,0.4-3.4,0.9-6c0.5-2.6,1.1-5.7,2.1-9.2c0.9-3.5,2.1-7.5,3.6-11.7c2.9-8.5,6.7-18.2,10.9-28.5c2.1-5.1,4.3-10.5,6.5-15.9
		c2.2-5.4,4.4-10.9,6.4-16.4c2.1-5.5,4.1-11,5.8-16.5c1.7-5.5,3.4-10.9,4.5-16.3c1.2-5.3,2.1-10.5,2.7-15.5c0.2-2.5,0.5-4.9,0.5-7.2
		C1131.3,389.8,1131.2,387.5,1131.1,385.4 M1174.9,299.8c-47.1-23.8-96.5-7.2-117.1,2l-14.8,2l-3.6-4.3c0,0-11.9,4.7-27.7,8.5
		l-29.6,4c-23-1.9-54.4-15.2-54.7-15.4l-2.3-1l-7,7.4L911,302c-17-8.4-67.6-28.7-117.3-2.2c-72,38.5-46,141-22.2,184.4
		c41.5,75.5,161.4,212.8,140.1,339.6c0,0,5.2,4.8,12.1,9.8l0,0.5l0.6,0c1,0.7,2,1.4,3,2.1l0,0c0.1,0,0.5,0.3,1.3,0.8
		c3.9,2.5,8,4.9,11.8,6.3c12,5.6,30.9,12.5,52,12.5c14.4,0,29.8-3.3,44.5-12.4c12.5-2.4,27.5-18.3,27.5-18.3
		c-24-126.3,92.9-266.2,132.7-342.6C1220.1,438.7,1247.8,336.7,1174.9,299.8"/>
</g>
</svg>
