<?xml version="1.0" standalone="no"?>
<!DOCTYPE svg PUBLIC "-//W3C//DTD SVG 20010904//EN"
 "http://www.w3.org/TR/2001/REC-SVG-20010904/DTD/svg10.dtd">
<svg version="1.0" xmlns="http://www.w3.org/2000/svg"
 width="1298.000000pt" height="2500.000000pt" viewBox="0 0 1298.000000 2500.000000"
 preserveAspectRatio="xMidYMid meet">

<g transform="translate(0.000000,2500.000000) scale(0.100000,-0.100000)"
fill="#000000" stroke="none">
<path d="M9095 24984 c-22 -2 -121 -11 -220 -19 -805 -69 -1532 -263 -2178
-582 -517 -255 -908 -533 -1297 -923 -549 -549 -949 -1209 -1215 -2004 -150
-449 -263 -999 -309 -1496 -8 -91 -18 -185 -22 -210 -3 -25 -9 -913 -13 -1975
l-6 -1930 -1917 -3 -1918 -2 0 -2215 0 -2215 1920 0 1920 0 0 -5700 0 -5700
2290 0 2290 0 0 5700 0 5700 1914 0 1914 0 6 38 c6 37 566 4378 566 4387 0 3
-989 6 -2197 7 l-2198 3 -3 1490 c-4 1729 1 1852 74 2185 162 735 607 1135
1417 1275 273 48 275 48 1710 52 l1357 4 0 1984 0 1984 -42 5 c-180 25 -693
71 -948 86 -96 5 -200 12 -230 15 -96 9 -403 25 -775 41 -332 14 -1790 28
-1890 18z"/>
</g>
</svg>
