<?xml version="1.0" encoding="UTF-8"?><svg id="Camada_1" xmlns="http://www.w3.org/2000/svg" xmlns:xlink="http://www.w3.org/1999/xlink" viewBox="0 0 2172.55 1608.24"><defs><style>.cls-1{fill:url(#Gradiente_sem_nome_81);}.cls-2,.cls-3,.cls-4,.cls-5,.cls-6{fill:#fff;}.cls-7,.cls-8,.cls-9,.cls-10{fill:#333;}.cls-7,.cls-8,.cls-11,.cls-10{stroke:#009245;stroke-miterlimit:10;stroke-width:11px;}.cls-8{clip-path:url(#clippath);}.cls-12{clip-path:url(#clippath-2);}.cls-3{filter:url(#drop-shadow-4);}.cls-4{filter:url(#drop-shadow-3);}.cls-11{fill:none;}.cls-5{filter:url(#drop-shadow-1);}.cls-13{opacity:.1;}.cls-14{fill:url(#Nova_amostra_de_gradiente_1);filter:url(#drop-shadow-2);}.cls-15{fill:url(#Gradiente_sem_nome_137);}.cls-16{fill:url(#Gradiente_sem_nome_108);}.cls-10{clip-path:url(#clippath-1);}.cls-17{fill:#1a1a1a;}.cls-18{fill:url(#Gradiente_sem_nome_108-2);}.cls-6{font-family:PaybAck, PaybAck;font-size:181.17px;}</style><linearGradient id="Gradiente_sem_nome_108" x1="1382.55" y1="1324.68" x2="1631.14" y2="1324.68" gradientUnits="userSpaceOnUse"><stop offset="0" stop-color="#228373"/><stop offset=".03" stop-color="#1f816e"/><stop offset=".25" stop-color="#117656"/><stop offset=".47" stop-color="#076e44"/><stop offset=".71" stop-color="#01693a"/><stop offset="1" stop-color="#006837"/></linearGradient><linearGradient id="Gradiente_sem_nome_108-2" x1="271.2" y1="1327.31" x2="519.57" y2="1327.31" xlink:href="#Gradiente_sem_nome_108"/><clipPath id="clippath"><path class="cls-7" d="M1285.44,1032.84l-308.41,487.29c-9.37,14.8-46.26,14.8-55.63,0l-407.37-643.66L231.69,430.36l1053.76,602.48Z"/></clipPath><clipPath id="clippath-1"><path class="cls-8" d="M1130.43,105.5c-52.43-4.16-106.95-6.7-163.43-7.19-323.62-2.82-585.27,62.44-755.56,119.14-4.71-2.34-95.14-46.54-114.76-21.46-2.42,3.09-4.2,7.8-3.64,15.32l52.68,83.24L1325.73,969.19l58.69-92.72,295.42-466.76L1130.43,105.5Z"/></clipPath><clipPath id="clippath-2"><path class="cls-10" d="M1801.76,195.99c-17.4-18.97-89.28,22.96-98.76,28.57-99.1-34.05-228.56-71.05-382.92-96.16l398.23,220.5,87.09-137.6c.76-8.05-1.15-12.6-3.64-15.32Z"/></clipPath><linearGradient id="Gradiente_sem_nome_81" x1="804.38" y1="630.28" x2="871.2" y2="630.28" gradientUnits="userSpaceOnUse"><stop offset="0" stop-color="#109cad"/><stop offset="1" stop-color="#22b573"/></linearGradient><filter id="drop-shadow-1" filterUnits="userSpaceOnUse"><feOffset dx="14" dy="14"/><feGaussianBlur result="blur" stdDeviation="14"/><feFlood flood-color="#000" flood-opacity=".75"/><feComposite in2="blur" operator="in"/><feComposite in="SourceGraphic"/></filter><linearGradient id="Nova_amostra_de_gradiente_1" x1="521.27" y1="724.12" x2="1377.28" y2="724.12" gradientUnits="userSpaceOnUse"><stop offset="0" stop-color="#22b573"/><stop offset="1" stop-color="#006837"/></linearGradient><filter id="drop-shadow-2" filterUnits="userSpaceOnUse"><feOffset dx="50" dy="80"/><feGaussianBlur result="blur-2" stdDeviation="100"/><feFlood flood-color="#000" flood-opacity="1"/><feComposite in2="blur-2" operator="in"/><feComposite in="SourceGraphic"/></filter><radialGradient id="Gradiente_sem_nome_137" cx="949.4" cy="1237.52" fx="949.4" fy="1237.52" r="400.05" gradientUnits="userSpaceOnUse"><stop offset="0" stop-color="#22b573"/><stop offset=".78" stop-color="#077944"/><stop offset="1" stop-color="#006837"/></radialGradient><filter id="drop-shadow-3" filterUnits="userSpaceOnUse"><feOffset dx="14" dy="14"/><feGaussianBlur result="blur-3" stdDeviation="14"/><feFlood flood-color="#000" flood-opacity=".75"/><feComposite in2="blur-3" operator="in"/><feComposite in="SourceGraphic"/></filter><filter id="drop-shadow-4" filterUnits="userSpaceOnUse"><feOffset dx="14" dy="14"/><feGaussianBlur result="blur-4" stdDeviation="14"/><feFlood flood-color="#000" flood-opacity=".75"/><feComposite in2="blur-4" operator="in"/><feComposite in="SourceGraphic"/></filter></defs><path class="cls-16" d="M1597.81,1324.7l.26-.1c-12.03-29.24-24.19-58.82-36.33-88.41-15.82-38.56-23.18-42.62-64.58-34.03-8.27,1.71-16.23,4.88-25.87,7.85,12.91,31.89,25.01,61.91,37.21,91.87l-.26,.11s.03,.08,.05,.12c13.42,32.95,10.97,41.66-20.99,58.25-25.34,13.16-52.4,23.11-77.32,36.94-10.9,6.05-18.39,18.24-27.43,27.64,12.93,9.17,25.61,25.54,38.83,25.98,25.93,.88,52.45-5.81,78.18-11.73,42.88-9.87,85.33-21.6,131.58-33.47-10.91-26.52-22.06-53.61-33.33-81.01Z"/><path class="cls-18" d="M304.53,1324.7l-.26-.1c12.03-29.24,24.19-58.82,36.33-88.41,7.89-19.22,13.67-29.87,22.62-34.66,6.15-3.29,12.08-2.4,41.97,.62,7.13,.72,17.42,1.77,29.93,3.07-5.68,17.38-12.68,36.08-21.33,55.7-6.49,14.72-13.22,28.37-19.94,40.94l.26,.11s-.03,.07-.05,.12c-4.97,12.25-5.61,26.55-2.78,34.68,3.05,8.78,11.03,12.95,27.26,20.74,50.48,24.23,63.9,27.39,79.41,41.48,5.61,5.1,14,13.9,21.64,27.99-9.18,14.73-19.29,21.41-26.97,24.75-17.95,7.8-32.85,1.79-89.82-12.56-29.7-7.48-7.95-1.39-50.94-12.31-34.1-8.66-61.88-16.08-80.64-21.16,.43-1.05,16.09-39.12,33.33-81.01Z"/><g><path class="cls-9" d="M1285.44,1032.84l-308.41,487.29c-9.37,14.8-46.26,14.8-55.63,0l-407.37-643.66L231.69,430.36l1053.76,602.48Z"/><path class="cls-9" d="M1130.43,105.5c-52.43-4.16-106.95-6.7-163.43-7.19-323.62-2.82-585.27,62.44-755.56,119.14-4.71-2.34-95.14-46.54-114.76-21.46-2.42,3.09-4.2,7.8-3.64,15.32l52.68,83.24L1325.73,969.19l58.69-92.72,295.42-466.76L1130.43,105.5Z"/><path class="cls-9" d="M1801.76,195.99c-17.4-18.97-89.28,22.96-98.76,28.57-99.1-34.05-228.56-71.05-382.92-96.16l398.23,220.5,87.09-137.6c.76-8.05-1.15-12.6-3.64-15.32Z"/><g class="cls-12"><image class="cls-13" width="800" height="527" transform="translate(0 100.1) scale(2.72)" xlink:href="../../../../../../Downloads/snake-skin-background-snake-skin-background-green-color-177789721.jpg"/></g><path class="cls-11" d="M1285.44,1032.84l-308.41,487.29c-9.37,14.8-46.26,14.8-55.63,0l-407.37-643.66L231.69,430.36l1053.76,602.48Z"/><path class="cls-11" d="M1130.43,105.5c-52.43-4.16-106.95-6.7-163.43-7.19-323.62-2.82-585.27,62.44-755.56,119.14-4.71-2.34-95.14-46.54-114.76-21.46-2.42,3.09-4.2,7.8-3.64,15.32l52.68,83.24L1325.73,969.19l58.69-92.72,295.42-466.76L1130.43,105.5Z"/><path class="cls-11" d="M1801.76,195.99c-17.4-18.97-89.28,22.96-98.76,28.57-99.1-34.05-228.56-71.05-382.92-96.16l398.23,220.5,87.09-137.6c.76-8.05-1.15-12.6-3.64-15.32Z"/></g><g><path class="cls-1" d="M852.54,756.5c-5.05-5.62-66.57-76.31-42.67-163.56,13.6-49.66,47.72-78.55,61.33-88.89-13.85,15-39.54,47.13-49.78,95.11-17.16,80.43,22.25,143.8,31.11,157.33Z"/><path class="cls-5" d="M1246.96,220.92S772.26,38.92,611.9,363.45c0,0,221.44-234.17,635.06-142.54Z"/><path class="cls-14" d="M1033.7,1228.15c-1.61-.87-3.21-1.77-4.78-2.72-11.1-6.67-21.32-14.41-29.45-24.71-6.84-8.67-13.64-17.44-21.17-25.49-14.27-15.25-29.57-29.44-46.25-42.09-13.2-10.01-26.87-19.33-41.05-27.88-12.08-7.29-24.42-14.16-36.62-21.26-15.34-8.94-30.64-17.95-45.99-26.87-17.05-9.91-34.02-19.96-50.64-30.58-16.08-10.28-32-20.74-47.23-32.28-14.49-10.98-28.44-22.59-41.57-35.1-20.39-19.43-39.57-39.98-56.72-62.44-15.02-19.68-28.27-40.4-39.78-62.26-6.64-12.61-12.39-25.65-17.8-38.84-9.54-23.28-17.37-47.09-22.97-71.63-2.94-12.88-5.35-25.83-7.06-38.96-1.53-11.7-3.17-23.39-3.19-35.16-.03-13.79-.56-27.59,.55-41.41,.74-9.21,1.67-18.4,2.96-27.5,2.06-14.55,5.27-28.96,9.57-43,9.66-31.54,23.4-61.23,41.62-88.81,10.68-16.17,22.45-31.52,35.58-45.7,12.68-13.69,25.88-27,40.41-38.78,15.38-12.48,31.35-24.21,48.29-34.55,16.49-10.07,33.44-19.32,51.32-26.62,25.44-10.39,51.55-18.88,77.95-26.49,22.41-6.46,44.92-12.52,67.63-17.81,21.37-4.98,42.97-8.57,64.73-11.44,14.82-1.95,29.1-6.65,43.43-10.95,18.69-5.61,36.66-13.71,56.32-16.07,14.77-1.77,28.71,.03,41.72,7.52,13.57,7.81,27.15,15.6,40.73,23.4,12.25,7.03,24.47,14.12,36.78,21.03,4.31,2.42,8.86,4.4,13.41,6.63,.52-2.03-.79-2.52-1.52-3.27-8.96-9.17-19.15-16.88-29.29-24.66-6.02-4.62-12.86-8.16-18.31-13.52-4.09-4.02-3.42-6.77,2.31-8.24,17.18-4.43,33.18-1.4,45.89,10.97,10.13,9.86,21.16,17.25,34.86,20.22,24.73,5.38,48.75,13.22,72.92,20.52,17.6,5.31,35.22,10.71,52.18,17.86,7.22,3.05,14.2,6.98,18.93,13.78,6.16,8.83,5.16,19.01,4.02,28.49-2.5,20.72-11.37,39.58-19.81,58.43-3.27,7.3-7.48,10.68-15.91,4.61-3.23-2.32-6.03-1.99-8.17,2.16-.81,1.58-1.31,3.36-1.73,5.1-2.87,11.99-5.61,24.08-13.94,33.75-6.02,7-12.16,13.95-21.16,17.46-1.28,.5-2.69,1.25-3.52,.38-1.04-1.09,.48-2.31,1.07-3.23,3.78-5.9,7.61-11.78,10.3-18.26,3.84-9.26,6.62-18.83,6.42-29.01-.13-6.78-3.61-9.49-9.73-7.08-3.03,1.19-5.96,1.56-9.09,1.61-10.44,.15-19.73-5.23-30.05-5.99-10.56-.78-15.71,1.88-14.16,12.39,1.01,6.86,.21,13.45-3.66,18.88-9.16,12.85-20.67,23.52-33.4,32.84-2.41,1.76-4.66,4.06-8.45,3.01,2.49-3.73,4.96-7.12,7.1-10.7,4.61-7.71,6.17-16.48,7.72-25.09,1.45-8.02,3.66-15.96,3.68-24.24,0-3.03-1.52-4.23-3.94-4.5-2.56-.28-5.29-.45-7.75,.14-16.63,3.98-33.44,6.74-50.53,7.54-9.31,.44-18.68,.67-27.96,.66-34.1-.04-68.22,1.61-102.31-1.37-10.46-.91-20.91-1.94-31.18-3.8-15.1-2.74-29.94-6.78-44.3-12.38-16.04-6.26-31.92-12.88-45.95-23.03-8.17-5.91-13.04-13.92-12.95-24.49,.05-6,1.01-11.8,2.51-17.57,.3-1.15,.74-2.72-.39-3.61-.83-.66-1.85,0-2.63,.79-8.39,8.58-12.59,18.4-9.99,30.67,1.95,9.18,6.01,16.67,13.72,22.38,8.46,6.27,17.15,11.99,26.75,16.42,8.22,3.8,16.74,6.95,24.43,11.97,11.1,7.25,19.83,16.98,28.83,26.44,3.71,3.89,7.27,8.01,10.35,12.4,10.61,15.12,22.51,29.16,35.2,42.53,8.55,9.01,18.09,16.96,27.99,24.4,7.77,5.84,15.69,11.62,24.98,15.19-10.11-9.7-19.02-20.48-28.94-30.3-3.25-3.21-6.39-6.57-9.25-10.13-9.89-12.33-19.75-24.69-29.4-37.21-5.38-6.99-11.01-13.86-14.54-22.09-2.38-5.55-.74-8.28,5.08-8.3,14.29-.05,28.47,1.84,42.71,2.43,12.48,.52,24.97,1.69,37.49,1.05,1.58-.08,3.21-.19,4.76,.05,10.26,1.57,20.48,1.24,30.65-.61,4.67-.85,10.11,1.99,10.21,5.94,.19,6.93,.57,13.92-.15,20.78-.42,4-1.28,8.14-.49,11.92,2.84,13.66,8.58,26.26,15.85,38.1,7.53,12.26,16.6,23.4,25.7,34.54,10.84,13.26,23.89,23.76,38.88,31.76,18.13,9.67,37.57,16.38,56.64,23.88,12.67,4.99,23.75,11.44,29.78,24.47,4.51,9.76,3.97,13.69-3.94,20.92-3.77,3.44-3.5,6.25,.65,9.27,2.63,1.91,5.17,3.98,7.54,6.2,5.33,5,8.3,11.59,11.91,17.79,10.51,18.03,17.46,37.39,22.14,57.63,.23,.98,.7,2.56-.52,3.12-1.34,.62-2.17-.34-2.93-1.65-3.23-5.57-6.61-11.05-10.02-16.52-6.67-10.7-13.4-21.38-21.07-31.4-1.29-1.69-3.17-3.71-5.25-2.88-1.56,.62-1.73,3.2-1.74,5.17-.04,10.34-.03,20.67-.7,31.01-.32,4.98-1.09,9.93-1.17,14.95-.07,4.3-1.27,8.59-2.17,12.85-.23,1.11-.06,3.18-1.69,3.02-1.44-.14-1.17-1.98-1.21-3.26-.11-3.7-.56-7.43-.66-11.07-.32-12.26-1.91-24.35-3.72-36.42-1.24-8.3-2.24-16.69-5.02-24.69-5.51-15.88-14.54-29.29-27.31-40.35-10.02-8.67-21.21-15.12-33.6-19.54-13.9-4.96-21.58-6.22-29.07-5.14,13.49,4.78,26.31,10.58,37.92,18.68,9.92,6.93,20.19,13.49,27.16,23.91,1.51,2.26,1.77,4.46,1.14,6.4-.67,2.08-3.27,1.65-5.25,1.7-9.57,.2-18.97-1.36-28.42-2.57-10.25-1.31-20.57-2.07-30.78-3.59-16.13-2.4-31.45-7.78-46.11-14.72-26.85-12.69-52.99-26.7-77.78-43.15-14.57-9.67-29.54-18.76-43.95-28.67-16.16-11.11-32.25-22.24-49.62-31.47-21.68-11.52-44.18-20.84-67.95-27.04-15.58-4.06-31.29-7.59-47.52-7.37-8.74,.12-17.47-.29-26.25,.67-11.22,1.23-22.32,2.87-33.15,5.99-19.96,5.76-38.25,14.76-54.69,27.67-16.19,12.72-29.43,27.84-39.34,45.8-10.53,19.08-15.84,39.87-17.28,61.41-.79,11.77-1.8,23.59-.51,35.58,1.14,10.55,1.87,21.16,3.8,31.61,1.67,9.02,3.83,17.95,7.62,26.41-.62-8.65-2.39-17.24-2.3-25.82,.21-20.95-1.48-41.93,1.43-62.87,2.07-14.87,6.25-28.99,12.74-42.38,4.83-9.96,10.99-19.16,17.98-27.87,9.79-12.2,20.99-22.71,33.67-31.8,12.5-8.96,26.1-15.8,40.5-20.89,10.73-3.79,21.73-7.11,33.44-6.28,1.84,.13,3.64,.24,4.38,1.95,.76,1.75-.68,3.09-1.84,4.26-4.37,4.41-8.75,8.81-13.17,13.17-6.9,6.8-12.28,14.74-16.59,23.32-8.98,17.85-12.09,37.28-13.75,56.88-1.09,12.83-.49,25.83,1.71,38.55,2.45,14.17,5.64,28.22,10.19,41.93,5.53,16.66,12.93,32.42,21.7,47.58,10.15,17.54,22.48,33.48,36.33,48.17,7.88,8.36,16,16.51,24.67,24.13,11.27,9.9,23.03,19.15,35.33,27.68,15.29,10.61,31.21,20.25,47.21,29.76,27.65,16.44,54.93,33.5,82.59,49.93,31.77,18.87,59.92,36.9,73.79,45.78,33.81,21.66,81.29,54.42,138.03,101.57-8.3,15.77-18.82,32.33-32.21,48.74-62.68,76.79-149.08,101.9-191.43,110.83Zm15-948.29c5.93-2.86,11.74-5.96,17.68-8.81,3.26-1.57,6.59-3.09,10.36-3.11,3.28-.01,4.27,1.51,3.79,4.68-.7,4.64-1.62,9.3-1.1,14.03,1.06,9.54,4.75,17.36,13.76,22.07,8.67,4.53,17.95,7.15,27.48,8.46,7.31,1.01,14.9,.03,21.25-4.02,9.17-5.86,18.78-9.25,29.76-8.88,4.99,.17,9.83,1.49,14.93,1.36-1.87-1.52-3.78-2.92-5.89-3.86-15.02-6.71-30.13-13.22-45.11-20.01-14.88-6.74-29.66-13.7-44.47-20.6-19.17-8.93-41.28,5.46-46.31,19.36,1.54,1.25,2.74-.12,3.88-.67Zm213.84,44.57c-.67-.15-1.68,.37-2.25,.89-.8,.72,.2,1.54,.51,2.05,.64,1.08,1.78,1.86,2.61,2.84,4.5,5.31,6.62,12.3,2.35,19.12-1.04,1.66-2.32,3.17-3.31,4.86-1.11,1.89-.82,3.21,1.77,3.05,6.59-.42,15.56-6.96,15.4-15.19-.65-9.61-8.32-15.69-17.07-17.61Z"/><path class="cls-17" d="M1465.87,1198.04q84.4-13.12,116.98,65.49c21.42,51.99,42.32,104.2,63.32,156.36,.54,1.34-.46,3.29,.21-.66-29.5,4.21-57.36,6.46-84.4,12.45-36.53,8.09-72.05,20.96-108.7,28.31-47.72,9.57-69.55-3.9-87.81-48.53-28.88-70.59-28.62-69.3-102.33-54.4-227.87,46.08-455.19,43.88-681.59-10.68-4.65-1.12-9.38-1.94-16.48-3.39-11.06,26.94-21.98,53.14-32.59,79.48-10.87,26.98-31.03,42.61-59.61,38.82-33.99-4.51-67.41-13.54-100.92-21.31-37.73-8.75-73.94-28.12-119.62-12.2,23-56.1,43.52-107.94,65.44-159.18,37.6-87.89,16.71-85.21,118.83-71.36,10.38-24.78,23.31-49.41,31-75.59,9.17-31.24,31.4-40.23,58.58-37.79,41.16,3.7,82.66,8.32,122.81,17.71,208.06,48.66,415.34,42.17,622.82-3.46,35.48-7.8,72.08-11.49,108.38-14.18,26.96-2,46.41,9.85,55.24,38.49,8.05,26.12,20.32,50.93,30.44,75.62Zm-1063.99,109.7c24.82,0,44.75-1.85,64.18,.51,20.43,2.47,40.62,8.11,60.48,13.83,231.06,66.57,465.01,74.81,700.85,32.52,89.62-16.07,178.32-37.33,269.23-56.61-24.11-58.45-49.81-123.41-78.41-187.06-4.07-9.05-22.59-17.17-33.82-16.44-41.18,2.68-82.09,9.47-123.14,14.36-105.7,12.59-211.55,35.72-317.11,34.53-111.58-1.26-222.87-25.99-334.35-39.97-32.18-4.04-64.55-8.03-96.89-8.49-10.2-.14-26.04,8.89-29.98,17.84-27.79,62.98-53.15,127.03-81.03,194.99Zm30.41-99.54c-19.08-3.36-35.24-8.4-51.35-8.24-10.06,.1-25.87,5.49-29.13,12.9-28.46,64.59-54.68,130.17-80.39,192.64,46.62,12.17,90.75,24.76,135.43,34.94,25.63,5.84,52.21,10.78,78.22,10.12,11.69-.29,23-15.26,34.49-23.58-8.24-9.76-14.65-22.8-25.08-28.65-26.54-14.87-54.99-26.28-82.46-39.53-24.32-11.73-32.44-28.25-19.5-54.92,14.52-29.91,25.72-61.44,39.76-95.69Zm1198.85,197.5c-22.56-54.86-46.18-112.18-69.7-169.53-15.82-38.56-23.18-42.62-64.58-34.03-8.27,1.71-16.23,4.88-25.87,7.85,12.95,31.97,25.07,62.06,37.31,92.1,13.42,32.95,10.97,41.66-20.99,58.25-25.34,13.16-52.4,23.11-77.32,36.94-10.9,6.05-18.39,18.24-27.43,27.64,12.93,9.17,25.61,25.54,38.83,25.98,25.93,.88,52.45-5.81,78.18-11.73,42.88-9.87,85.33-21.6,131.58-33.47Z"/><path class="cls-15" d="M402.03,1307.74c27.88-67.96,53.24-132.01,81.03-194.99,3.95-8.94,19.78-17.98,29.98-17.84,32.33,.45,64.71,4.45,96.89,8.49,111.48,13.98,222.77,38.71,334.35,39.97,105.56,1.19,211.41-21.94,317.11-34.53,41.05-4.89,81.95-11.68,123.14-14.36,11.23-.73,29.76,7.39,33.82,16.44,28.6,63.65,54.3,128.61,78.41,187.06-90.92,19.28-179.61,40.54-269.23,56.61-235.84,42.29-469.79,34.06-700.85-32.52-19.87-5.72-40.06-11.36-60.48-13.83-19.43-2.35-39.36-.51-64.18-.51Z"/><text class="cls-6" transform="translate(605.94 1293.28) rotate(6.7)"><tspan x="0" y="0">S</tspan></text><text class="cls-6" transform="translate(723 1306.78) rotate(3.61)"><tspan x="0" y="0">h</tspan></text><text class="cls-6" transform="translate(857.41 1314.49) rotate(.58)"><tspan x="0" y="0">e</tspan></text><text class="cls-6" transform="translate(968.56 1315.18) rotate(-2.09)"><tspan x="0" y="0">l</tspan></text><text class="cls-6" transform="translate(1075.79 1310.93) rotate(-4.79)"><tspan x="0" y="0">b</tspan></text><text class="cls-6" transform="translate(1189.15 1301.05) rotate(-7.64)"><tspan x="0" y="0">y</tspan></text><path class="cls-2" d="M1044.82,280.54c5.03-13.9,27.14-28.29,46.31-19.36,14.81,6.9,29.59,13.86,44.47,20.6,14.99,6.78,30.09,13.3,45.11,20.01,2.11,.94,4.02,2.34,5.89,3.86-5.1,.14-9.94-1.19-14.93-1.36-10.98-.37-20.59,3.02-29.76,8.88-6.35,4.06-13.94,5.03-21.25,4.02-9.53-1.32-18.81-3.93-27.48-8.46-9.02-4.71-12.71-12.53-13.76-22.07-.53-4.73,.4-9.39,1.1-14.03,.48-3.18-.51-4.69-3.79-4.68-3.77,.01-7.09,1.54-10.36,3.11-5.93,2.85-11.75,5.95-17.68,8.81-1.14,.55-2.34,1.92-3.88,.67Z"/><path class="cls-2" d="M1262.54,324.5c-.67-.15-1.68,.37-2.25,.89-.8,.72,.2,1.54,.51,2.05,.64,1.08,1.78,1.86,2.61,2.84,4.5,5.31,6.62,12.3,2.35,19.12-1.04,1.66-2.32,3.17-3.31,4.86-.85,1.44-.87,2.55,.31,2.92,3.08-.4,6-1.18,8.6-2.29,4.52-2.69,8.37-7.36,8.26-12.77-.65-9.61-8.32-15.69-17.07-17.61Z"/><path class="cls-4" d="M631.2,969.84s-304.78-279.65-54.67-541.33c0,0-214.67,185.33,54.67,541.33Z"/><path class="cls-3" d="M852.54,764.71c-5.05-5.62-66.57-76.31-42.67-163.56,13.6-49.66,47.72-78.55,61.33-88.89-13.85,15-39.54,47.13-49.78,95.11-17.16,80.43,22.25,143.8,31.11,157.33Z"/></g></svg>