<?xml version="1.0" encoding="utf-8"?>
<!-- Generator: Adobe Illustrator 25.2.1, SVG Export Plug-In . SVG Version: 6.00 Build 0)  -->
<svg version="1.1" id="Layer_1" xmlns="http://www.w3.org/2000/svg" xmlns:xlink="http://www.w3.org/1999/xlink" x="0px" y="0px"
	 viewBox="0 0 1200 800" style="enable-background:new 0 0 1200 800;" xml:space="preserve">
<style type="text/css">
	.st0{fill-rule:evenodd;clip-rule:evenodd;}
</style>
<path class="st0" d="M711.1,478.5c-53.6,39.5-131.4,60.6-198.3,60.6c-93.9,0-178.4-34.7-242.3-92.5c-5-4.5-0.5-10.7,5.5-7.2
	c69,40.1,154.3,64.3,242.4,64.3c59.4,0,124.8-12.3,184.9-37.8C712.4,462.1,720,471.9,711.1,478.5"/>
<path class="st0" d="M733.4,452.9c-6.8-8.8-45.3-4.1-62.6-2.1c-5.3,0.6-6.1-3.9-1.3-7.2c30.7-21.6,81-15.3,86.8-8.1
	c5.9,7.3-1.5,57.7-30.3,81.8c-4.4,3.7-8.6,1.7-6.7-3.2C725.8,497.9,740.3,461.7,733.4,452.9"/>
<path class="st0" d="M672,291.3v-21c0-3.2,2.4-5.3,5.3-5.3h93.9c3,0,5.4,2.2,5.4,5.3v18c0,3-2.6,7-7.1,13.2l-48.7,69.5
	c18.1-0.4,37.2,2.3,53.6,11.5c3.7,2.1,4.7,5.1,5,8.2V413c0,3.1-3.4,6.6-6.9,4.8c-28.9-15.1-67.3-16.8-99.2,0.2
	c-3.3,1.8-6.7-1.8-6.7-4.8v-21.3c0-3.4,0-9.2,3.5-14.4l56.4-80.8h-49.1C674.4,296.6,672,294.4,672,291.3 M329.5,422.2h-28.6
	c-2.7-0.2-4.9-2.2-5.1-4.9V270.7c0-2.9,2.5-5.3,5.5-5.3H328c2.8,0.1,5,2.3,5.2,4.9v19.2h0.5c7-18.5,20-27.2,37.6-27.2
	c17.9,0,29.1,8.6,37.1,27.2c6.9-18.5,22.6-27.2,39.5-27.2c12,0,25.1,4.9,33.1,16c9,12.3,7.2,30.3,7.2,46l0,92.5
	c0,2.9-2.5,5.3-5.5,5.3H454c-2.9-0.2-5.1-2.5-5.1-5.3v-77.7c0-6.2,0.6-21.6-0.8-27.5c-2.1-9.8-8.5-12.6-16.8-12.6
	c-6.9,0-14.1,4.6-17.1,12c-2.9,7.4-2.7,19.8-2.7,28.1v77.7c0,2.9-2.5,5.3-5.5,5.3h-28.5c-2.9-0.2-5.1-2.5-5.1-5.3l0-77.7
	c0-16.4,2.7-40.4-17.6-40.4c-20.5,0-19.7,23.5-19.7,40.4v77.7C335,419.8,332.5,422.2,329.5,422.2 M857.5,262.3
	c42.4,0,65.3,36.4,65.3,82.7c0,44.7-25.4,80.2-65.3,80.2c-41.6,0-64.3-36.4-64.3-81.8C793.2,297.8,816.2,262.3,857.5,262.3
	 M857.7,292.3c-21.1,0-22.4,28.7-22.4,46.6c0,17.9-0.3,56.2,22.1,56.2c22.1,0,23.2-30.9,23.2-49.7c0-12.4-0.5-27.2-4.3-38.9
	C873.2,296.2,866.8,292.3,857.7,292.3 M977.8,422.2h-28.4c-2.9-0.2-5.1-2.5-5.1-5.3l0-146.7c0.2-2.7,2.6-4.8,5.5-4.8h26.5
	c2.5,0.1,4.5,1.8,5.1,4.1v22.4h0.5c8-20.1,19.2-29.6,38.9-29.6c12.8,0,25.3,4.6,33.4,17.3c7.5,11.7,7.5,31.5,7.5,45.6v92.3
	c-0.3,2.6-2.7,4.6-5.5,4.6h-28.6c-2.6-0.2-4.8-2.1-5.1-4.6v-79.6c0-16,1.8-39.5-17.9-39.5c-7,0-13.3,4.7-16.5,11.7
	c-4,9-4.5,17.9-4.5,27.8v79C983.3,419.8,980.9,422.2,977.8,422.2 M597.2,352.1c0,11.1,0.3,20.4-5.3,30.3c-4.5,8-11.8,13-19.8,13
	c-11,0-17.4-8.4-17.4-20.7c0-24.3,21.8-28.8,42.5-28.8V352.1 M626,421.8c-1.9,1.7-4.6,1.8-6.7,0.7c-9.5-7.9-11.2-11.5-16.4-19
	c-15.7,16-26.8,20.8-47.1,20.8c-24.1,0-42.8-14.8-42.8-44.5c0-23.2,12.5-39,30.5-46.7c15.5-6.8,37.2-8,53.7-9.9v-3.7
	c0-6.8,0.5-14.8-3.5-20.7c-3.5-5.3-10.1-7.4-16-7.4c-10.9,0-20.6,5.6-22.9,17.2c-0.5,2.6-2.4,5.1-5,5.2l-27.7-3
	c-2.3-0.5-4.9-2.4-4.3-6c6.3-33.6,36.7-43.7,63.9-43.7c13.9,0,32.1,3.7,43,14.2c13.9,13,12.6,30.3,12.6,49.1v44.5
	c0,13.4,5.5,19.2,10.8,26.5c1.8,2.6,2.2,5.7-0.1,7.6C642.1,407.7,631.7,416.8,626,421.8L626,421.8 M222.6,352.1
	c0,11.1,0.3,20.4-5.3,30.3c-4.5,8-11.7,13-19.8,13c-11,0-17.4-8.4-17.4-20.7c0-24.3,21.8-28.8,42.5-28.8V352.1 M251.4,421.8
	c-1.9,1.7-4.6,1.8-6.7,0.7c-9.5-7.9-11.2-11.5-16.4-19c-15.7,16-26.8,20.8-47.1,20.8c-24,0-42.8-14.8-42.8-44.5
	c0-23.2,12.6-39,30.5-46.7c15.5-6.8,37.2-8,53.7-9.9v-3.7c0-6.8,0.5-14.8-3.5-20.7c-3.5-5.3-10.2-7.4-16-7.4
	c-10.9,0-20.6,5.6-23,17.2c-0.5,2.6-2.4,5.1-4.9,5.2l-27.7-3c-2.3-0.5-4.9-2.4-4.3-6c6.4-33.6,36.7-43.7,63.9-43.7
	c13.9,0,32.1,3.7,43,14.2c13.9,13,12.6,30.3,12.6,49.1v44.5c0,13.4,5.5,19.2,10.8,26.5c1.8,2.6,2.3,5.7-0.1,7.6
	C267.6,407.7,257.2,416.8,251.4,421.8L251.4,421.8"/>
</svg>
