<?xml version="1.0" standalone="no"?>
<!DOCTYPE svg PUBLIC "-//W3C//DTD SVG 20010904//EN"
 "http://www.w3.org/TR/2001/REC-SVG-20010904/DTD/svg10.dtd">
<svg version="1.0" xmlns="http://www.w3.org/2000/svg"
 width="2560.000000pt" height="1771.000000pt" viewBox="0 0 2560.000000 1771.000000"
 preserveAspectRatio="xMidYMid meet">

<g transform="translate(0.000000,1771.000000) scale(0.100000,-0.100000)"
fill="#000000" stroke="none">
<path d="M11175 17633 c-726 -6 -1838 -30 -2695 -58 -2416 -79 -4320 -239
-5440 -456 -220 -43 -472 -134 -722 -261 -702 -357 -1242 -962 -1516 -1698
-65 -173 -91 -269 -141 -513 -385 -1869 -551 -5074 -411 -7942 74 -1508 231
-2836 445 -3755 143 -615 423 -1119 861 -1552 358 -354 767 -602 1244 -756
752 -242 3261 -442 6685 -532 2156 -56 5123 -59 6980 -5 2957 85 4788 222
5890 440 790 156 1459 573 1931 1202 289 383 466 783 568 1280 226 1099 385
2522 456 4088 48 1053 52 2423 10 3425 -71 1676 -235 3089 -485 4178 -123 533
-315 937 -639 1342 -98 122 -332 355 -466 463 -238 192 -529 363 -800 470
-184 73 -490 164 -674 202 -1430 289 -6265 480 -11081 438z m2479 -6910 c1781
-1022 3238 -1863 3238 -1868 0 -8 -6356 -3662 -6514 -3746 l-38 -19 0 3765 0
3765 38 -19 c20 -11 1494 -856 3276 -1878z"/>
</g>
</svg>
