<?xml version="1.0" encoding="utf-8"?>
<!-- Generator: Adobe Illustrator 25.2.1, SVG Export Plug-In . SVG Version: 6.00 Build 0)  -->
<svg version="1.1" id="Layer_1" xmlns="http://www.w3.org/2000/svg" xmlns:xlink="http://www.w3.org/1999/xlink" x="0px" y="0px"
	 viewBox="0 0 500 500" style="enable-background:new 0 0 500 500;" xml:space="preserve">
<style type="text/css">
	.st0{fill:#1D1D1B;}
	.st1{fill:#1D1D1B;stroke:#F0F3F5;stroke-width:2;stroke-linecap:round;stroke-linejoin:round;stroke-miterlimit:10;}
	.st2{fill:#F71735;}
	.st3{fill:#1D1D1B;stroke:#F0F3F5;stroke-width:2;stroke-miterlimit:10;}
	.st4{font-family:'Aero';}
	.st5{font-size:37px;}
	.st6{font-size:13.5245px;}
</style>
<path class="st0" d="M201.8,167c4.3-2.2,9.2-4.4,14.7-6.3c2.8-1,5.5-1.8,8.1-2.5c0,68.1,0,136.3,0,204.4c-4.5-3.8-9.3-8.2-14.1-13
	c-3.1-3.2-6-6.3-8.7-9.4"/>
<path class="st0" d="M278.7,159.3c4,1.4,8.1,2.9,12.3,4.6c3.7,1.5,7.2,3,10.6,4.5c0,68.1,0,105.1,0,173.2c-2.5,2.9-4.9,5.8-7.4,8.7
	c-5.1,1.6-10.3,3.2-15.4,4.9c0-4.2,0-8.3,0-12.5"/>
<path class="st1" d="M121.7,177.8c-13.8-9.1-28.3-19.2-43.2-30.6c-14.4-11.1-27.7-22.1-39.7-32.7c0.6,10.8,1.7,22.7,3.8,35.5
	c1.7,10.5,3.8,20.3,6,29.3c8.3,5,16.6,10.1,24.9,15.1l-17.6,2.1c5.3,16.7,13,36.5,24.4,57.6c10.1,18.7,20.8,34.3,30.6,46.8
	c-0.7-7.8-1.5-15.7-2.2-23.5c9.6,0.5,19.1,1,28.7,1.6c-4.9-12.8-10-29.3-13.1-48.9C120.9,209.7,120.8,191.8,121.7,177.8z"/>
<path class="st2" d="M224.6,362.5c3.8,3.1,7.9,6.4,12.5,9.6c5.1,3.6,10.1,6.8,14.8,9.5c-1.9-5.6-3.9-11.1-5.8-16.7l32.6-9.8V159.3
	c-3.9-1.4-8.1-2.8-12.5-4.1c-4.5-1.3-8.8-2.4-12.9-3.4c-4.7,0.5-9.8,1.4-15.2,2.6c-4.9,1.1-9.3,2.4-13.4,3.7"/>
<path class="st1" d="M134.1,360.6h21.8c0.3-4.2,0.7-8.4,1-12.5c4.6,0.5,9.2,0.9,13.8,1.4c4.7,7,10.6,14.6,18,22.3
	c16.6,17.3,34.1,28,47.4,34.5c-18.8-5.4-40.1-13.1-62.9-24C158.7,375.2,145.6,367.9,134.1,360.6z"/>
<path class="st1" d="M354.2,314.5c5.7-0.6,12.2-1.1,19.2-1c6.8,0,13.1,0.4,18.7,1c-13,14.2-28.9,29.6-48,44.9
	c-25.8,20.7-50.8,35.8-72.1,46.8c15.2-9.7,35.6-25.1,54.7-48.7C339.3,342.1,348,327.1,354.2,314.5z"/>
<path class="st2" d="M349.9,197.1c-12.4-9.3-28.5-19.7-48.5-28.9v85c17.8-5.7,26.6-8.3,40.3-10.1c1.6-0.2,3.1-0.4,4.6-0.6
	C349.6,224.9,350.2,209.4,349.9,197.1z"/>
<path class="st2" d="M194.1,330.4c2.5,3.3,5.1,6.5,7.7,9.5V329C198.7,329.7,196.1,330.1,194.1,330.4z"/>
<path class="st2" d="M330.3,294.1c-0.5,0.1-1,0.2-1.5,0.3c-11.2,2.2-18.6,4.2-27.4,7v40.1C310.6,329.9,321.3,314.1,330.3,294.1z"/>
<path class="st1" d="M384.5,177.9c0.5,8.4,0.5,18.1-0.3,28.7c-0.8,10.8-2.4,20.4-4.1,28.7c9.6-0.1,19.2-0.2,28.8-0.3v20.6
	c6.8-6.8,15.2-16.6,22.8-29.6c8.5-14.5,13-28,15.6-38.1c-5.8-0.3-11.6-0.5-17.4-0.8l21.8-12c2-5.5,3.9-11.7,5.5-18.4
	c3.4-14.7,4.3-28,4.1-38.8C435.7,138,410.1,158,384.5,177.9z"/>
<path class="st2" d="M181.8,178l-8.2,33.4c-6.8,1.9-13.6,3.9-20.4,5.8c0.6,13.8,3.1,39.9,15.5,69.5c13.1-0.9,24.1-2.5,33.1-4.2
	V166.8C193.9,170.5,187.2,174.4,181.8,178z"/>
<path class="st3" d="M459.4,277.4c-1-0.4-2-0.7-2.9-1.1c1-0.1,2-0.1,2.9-0.2c-9-3.5-18.9-6.8-29.8-9.9c-11.7-3.3-22.7-5.6-32.7-7.3
	c0-5.2,0-10.4,0-15.6c0-0.4,0-0.9,0-1.3c-7.6-1-17.4-2-29-2c5.8-26.9,6.3-49.2,6.2-61.4c-13.3-11.3-32.8-25.5-58.7-37.3
	c-23.7-10.8-45.4-16.1-61.8-18.9c-16.7,3.6-37.3,9.6-59.7,19.9c-25.1,11.5-44.8,24.9-59.2,36.3c-1.3,17.2-2.6,59.8,17.1,107.4
	c-8.4,0.1-17.5-0.1-27.2-0.8c0,0.4,0.1,0.9,0.1,1.3c0,0-0.1,0-0.1,0c0.6,6.7,1.3,13.4,1.9,20.1c-8.4,0.2-18.1-0.2-28.8-1.7
	c-13.6-1.9-25.3-5.1-34.7-8.3c0.2,0.5,0.5,1,0.8,1.6c-0.3-0.1-0.5-0.2-0.8-0.3c2.1,4.2,6.4,11.7,14.6,18.2
	c8.3,6.6,16.8,9.2,21.8,10.3c-3.5,2.5-7.9,5.3-13.3,7.8c-6.2,2.9-11.8,4.5-16.3,5.4c0.9,0.2,1.7,0.5,2.6,0.7
	c-0.9,0.2-1.8,0.4-2.6,0.6c7.4,2,15.8,3.8,24.9,5.1c20.3,2.8,38.2,2.1,52.4,0.3c0-0.4,0-0.9,0-1.3c0-3.8,0-7.5,0-11.3
	c7.6,0,18.2-0.2,30.7-1.4c27.3,37.6,59.7,58,76.6,67.2c18.7-11.1,42.5-28.5,64.1-55c14.4-17.7,25.1-36,33.1-53.9
	c9.4-1.2,17.3-1.8,23.2-2.1c-0.2,4.2-0.4,8.4-0.6,12.6c0,0,0,0,0.1,0c0,0.4,0,0.9-0.1,1.3c10.5-0.8,24.9-0.8,41.5,2.7
	c19.1,4,33.9,11,43.8,16.7c-0.3-0.6-0.7-1.3-1.1-1.9c0.4,0.2,0.8,0.4,1.1,0.6c-3.3-5.8-8.8-14-17.5-21.8c-6.3-5.6-12.5-9.4-17.5-12
	c3.6-1.9,7.8-3.8,12.7-5.5C445.7,278.7,453.4,277.7,459.4,277.4z M173.6,211.4l8.2-33.4c8.4-5.5,19.7-11.8,33.7-17
	c14.5-5.4,27.6-7.9,37.8-9.2c12,2.8,25.6,6.9,40.1,12.9c23.7,9.9,42.5,21.8,56.5,32.3c0.3,12.3-0.4,27.9-3.6,45.5
	c-1.5,0.2-3.1,0.3-4.6,0.6c-19.3,2.5-28.7,6.6-67.1,18.6c-37.1,11.6-55.7,17.4-71.1,20.4c-9.2,1.8-20.9,3.6-34.9,4.6
	c-12.4-29.6-14.9-55.7-15.5-69.5C159.9,215.3,166.7,213.4,173.6,211.4z M294.1,350.3c-16,4.9-32,9.8-48,14.6l5.8,16.7
	c-13.3-7.8-36.8-23.6-57.8-51.1c8.9-1.4,26.9-5,62.6-15.3c41.2-11.9,47.8-16,72.2-20.8c0.5-0.1,1-0.2,1.5-0.3
	C318.6,319.9,304.3,338.7,294.1,350.3z"/>
<g>
	<g>
		<path class="st2" d="M180.4,306.4c1.2-0.1,2.1,0.1,2.7,0.7c0.6,0.6,0.7,1.6,0.5,2.8c-0.4,2.2-0.9,4.4-1.3,6.5
			c-0.3,1.2-0.9,2.3-1.7,3.1c-0.9,0.8-1.9,1.3-3.1,1.4c-4.8,0.5-9.6,0.8-14.4,0.9c-1.2,0-2.1-0.3-2.7-1.1c-0.6-0.7-0.7-1.7-0.5-2.9
			c0.2-1.1,0.5-2.3,0.7-3.4c2.8,0,5.7-0.1,8.5-0.3c-0.3,1.4-0.6,2.9-0.9,4.3c1.8-0.1,3.6-0.2,5.3-0.4c0.6-2.7,1.1-5.4,1.7-8.1
			c-3.3,0.3-6.6,0.5-9.8,0.6c-1.2,0-2.1-0.3-2.7-1c-0.6-0.7-0.7-1.7-0.5-2.9c0.4-2.1,0.9-4.3,1.3-6.4c0.3-1.2,0.9-2.2,1.7-3
			c0.9-0.8,1.9-1.2,3.1-1.2c4.8-0.3,9.6-0.7,14.4-1.4c1.2-0.2,2.1,0.1,2.7,0.7c0.6,0.6,0.7,1.6,0.5,2.8c-0.2,1.2-0.5,2.4-0.7,3.5
			c-2.8,0.4-5.7,0.8-8.5,1.1c0.3-1.4,0.6-2.9,0.9-4.3c-1.8,0.2-3.6,0.4-5.3,0.5c-0.6,2.7-1.1,5.4-1.7,8.1
			C173.9,307.2,177.2,306.8,180.4,306.4z"/>
		<path class="st2" d="M206.9,316c-2.8,0.7-5.7,1.3-8.5,1.9c0.6-2.8,1.1-5.6,1.7-8.3c-1.8,0.4-3.6,0.7-5.3,1.1
			c-0.6,2.8-1.1,5.5-1.7,8.3c-2.8,0.5-5.7,1-8.5,1.4c1.8-8.8,3.6-17.6,5.4-26.4c2.8-0.5,5.7-1,8.5-1.6c-1,5-2,10-3,15
			c1.8-0.3,3.6-0.7,5.3-1.1c1-5,2-10,3-15c2.8-0.6,5.7-1.3,8.5-2C210.5,298.1,208.7,307.1,206.9,316z"/>
		<path class="st2" d="M214.1,314.2c-1.2,0.3-2.1,0.2-2.7-0.4c-0.6-0.6-0.7-1.5-0.5-2.8c1.2-6.2,2.5-12.3,3.7-18.5
			c0.3-1.3,0.9-2.4,1.7-3.4c0.9-1,1.9-1.6,3.1-1.9c4.7-1.3,9.4-2.6,14.1-4c-0.2,1.1-0.4,2.3-0.7,3.4c-3.2,1-6.4,1.9-9.6,2.8
			c-0.6,2.8-1.1,5.6-1.7,8.5c2.5-0.7,5-1.4,7.4-2.1c-0.2,1.1-0.4,2.3-0.7,3.4c-2.5,0.7-5,1.4-7.4,2.1c-0.6,2.8-1.1,5.6-1.7,8.5
			c3.2-0.9,6.4-1.8,9.6-2.7c-0.2,1.1-0.4,2.3-0.7,3.4C223.5,311.7,218.8,313,214.1,314.2z"/>
		<path class="st2" d="M248.9,304c-6,1.9-12.1,3.8-18.1,5.6c1.8-9,3.6-18.1,5.4-27.1c2.8-0.9,5.7-1.7,8.5-2.6
			c-1.6,7.9-3.2,15.9-4.7,23.8c3.2-1,6.4-2,9.6-3C249.4,301.8,249.1,302.9,248.9,304z"/>
		<path class="st2" d="M277.2,280c-0.1,0.5-0.4,1.1-0.8,1.6c-0.4,0.6-0.9,1-1.4,1.4c0.4,0.1,0.7,0.3,0.9,0.7
			c0.2,0.4,0.3,0.8,0.2,1.4c-0.4,2.3-0.9,4.5-1.3,6.8c-0.3,1.3-0.9,2.4-1.7,3.4c-0.9,1-1.9,1.7-3.1,2.1c-6.1,1.9-12.2,3.9-18.4,5.8
			c1.8-9.1,3.6-18.2,5.4-27.2c6.1-1.9,12.2-3.9,18.4-5.7c1.2-0.4,2.1-0.3,2.7,0.3c0.6,0.6,0.7,1.5,0.5,2.8
			C278.1,275.5,277.6,277.8,277.2,280z M262.5,288.6c-0.6,2.8-1.1,5.7-1.7,8.5c1.8-0.6,3.6-1.1,5.3-1.7c0.6-2.8,1.1-5.7,1.7-8.5
			C266.1,287.4,264.3,288,262.5,288.6z M264.9,276.6c-0.6,2.8-1.1,5.7-1.7,8.5c1.8-0.6,3.6-1.1,5.3-1.7c0.6-2.8,1.1-5.7,1.7-8.5
			C268.4,275.5,266.6,276.1,264.9,276.6z"/>
		<path class="st2" d="M293.7,282.4c-0.6,2.8-1.1,5.6-1.7,8.5c-2.8,0.8-5.6,1.6-8.5,2.4c0.6-2.8,1.1-5.7,1.7-8.5
			c-1.1-5.5-2.1-11.1-3.2-16.6c2.8-0.8,5.7-1.7,8.5-2.4c0.8,4.2,1.6,8.3,2.4,12.5c2.7-5.1,5.3-10.2,8-15.2c1.1-0.3,2.3-0.6,3.4-0.8
			C300.8,268.9,297.3,275.6,293.7,282.4z"/>
		<path class="st2" d="M331.6,260.3c-3.2,0.4-6.4,0.9-9.6,1.4c-0.6,2.8-1.1,5.5-1.7,8.3c2.5-0.4,5-0.8,7.4-1.2
			c-0.2,1.1-0.4,2.2-0.7,3.3c-2.5,0.4-5,0.8-7.4,1.2c-0.8,3.9-1.6,7.7-2.4,11.6c-2.8,0.5-5.7,1.1-8.5,1.8c1.5-7.5,3-15,4.6-22.5
			c0.3-1.3,0.9-2.4,1.7-3.3c0.9-0.9,1.9-1.5,3.1-1.7c4.7-0.9,9.4-1.6,14.1-2.2C332,258.1,331.8,259.2,331.6,260.3z"/>
		<path class="st2" d="M333.5,282.4c-1.2,0.1-2.1-0.1-2.7-0.8c-0.6-0.7-0.7-1.6-0.5-2.8c1.2-6,2.5-12,3.7-18
			c0.3-1.2,0.9-2.3,1.7-3.1c0.9-0.8,1.9-1.3,3.1-1.4c4.7-0.4,9.4-0.6,14.1-0.6c-0.2,1.1-0.4,2.1-0.7,3.2c-3.2,0-6.4,0.1-9.6,0.3
			c-1.4,6.5-2.9,13-4.3,19.5c3.3-0.3,6.5-0.5,9.8-0.6c-0.2,1.1-0.4,2.1-0.7,3.2C342.9,281.5,338.2,281.9,333.5,282.4z"/>
	</g>
</g>
<text transform="matrix(1 0 0 1 238.5231 195.4213)" class="st0 st4 st5">F</text>
<text transform="matrix(1 0 0 1 313.8247 227.9405)" class="st0 st4 st5">C</text>
<text transform="matrix(1 0 0 1 236.0792 348.0997)" class="st0 st4 st6">2001</text>
<text transform="matrix(1 0 0 1 169.0065 245.5567)" class="st0 st4 st5">S</text>
</svg>
