<svg xmlns="http://www.w3.org/2000/svg" viewBox="0 0 500 500"><g id="freepik--Floor--inject-2"><path id="freepik--floor--inject-2" d="M82.1,259.92c-92.72,53.54-92.72,140.33,0,193.87s243.06,53.53,335.79,0,92.72-140.33,0-193.87S174.83,206.39,82.1,259.92Z" style="fill:#fafafa"></path></g><g id="freepik--Sunburst--inject-2"><g id="freepik--Sparkles--inject-2"><path d="M249.35,196.93c-1.57-3.53-1.69-7.05-1.69-10.58l-.12-10.57c-.12-7.05-.08-14.1-.08-21.15.07-14.09.29-28.19.49-42.29s.43-28.19.75-42.29l.5-21.14c.21-7,.38-14.1.64-21.15h.32c.26,7.05.43,14.1.64,21.15l.5,21.14c.32,14.1.49,28.2.75,42.29s.42,28.2.49,42.29c0,7.05,0,14.1-.08,21.15l-.12,10.57c0,3.53-.12,7.05-1.69,10.58Z" style="fill:#CA2537"></path><path d="M249.36,197c-2.16-3.2-2.89-6.65-3.5-10.12l-2-10.39c-1.34-6.92-2.52-13.87-3.74-20.81-2.38-13.9-4.61-27.82-6.86-41.74s-4.48-27.84-6.61-41.78L223.5,51.29c-1-7-2.06-13.95-3-20.93l.31-.06c1.48,6.9,2.87,13.81,4.31,20.71l4.16,20.74c2.76,13.83,5.38,27.68,8.08,41.52s5.31,27.7,7.83,41.57c1.22,6.94,2.49,13.87,3.59,20.83l1.72,10.44c.61,3.47,1.1,7,.17,10.7Z" style="fill:#CA2537"></path><path d="M249.39,197.15c-2.68-2.78-4-6.05-5.21-9.36l-3.73-9.89c-2.52-6.58-4.89-13.22-7.3-19.85-4.76-13.27-9.37-26.59-14-39.91s-9.24-26.64-13.76-40l-6.77-20c-2.21-6.7-4.46-13.38-6.63-20.09l.3-.11c2.66,6.53,5.23,13.1,7.84,19.65l7.7,19.7C213,90.4,217.93,103.58,223,116.74s10,26.35,14.93,39.58c2.41,6.62,4.87,13.23,7.16,19.89l3.5,10c1.21,3.31,2.3,6.67,2,10.51Z" style="fill:#CA2537"></path><path d="M249.44,197.25c-3.12-2.27-5-5.26-6.75-8.31l-5.4-9.1c-3.63-6-7.11-12.17-10.63-18.27-7-12.24-13.85-24.56-20.72-36.87s-13.73-24.63-20.5-37L175.29,69.14c-3.33-6.21-6.71-12.4-10-18.64l.27-.15c3.75,6,7.42,12,11.14,18l11,18.07c7.32,12,14.52,24.17,21.79,36.25s14.46,24.21,21.57,36.38c3.53,6.11,7.09,12.19,10.51,18.35l5.18,9.22c1.76,3.05,3.42,6.16,3.82,10Z" style="fill:#CA2537"></path><path d="M249.51,197.34c-3.47-1.69-5.83-4.31-8.1-7l-6.89-8c-4.62-5.32-9.12-10.75-13.65-16.15-9-10.84-17.9-21.78-26.81-32.71s-17.79-21.88-26.61-32.88L154.24,84.05c-4.37-5.54-8.77-11-13.1-16.61l.24-.2c4.73,5.23,9.39,10.52,14.09,15.78l14,15.88c9.31,10.59,18.5,21.28,27.76,31.92s18.45,21.32,27.56,32.08c4.53,5.4,9.1,10.77,13.54,16.24l6.7,8.18c2.26,2.7,4.43,5.48,5.49,9.19Z" style="fill:#CA2537"></path><path d="M249.58,197.42c-3.71-1.06-6.48-3.23-9.18-5.5l-8.18-6.7c-5.48-4.44-10.85-9-16.25-13.53-10.75-9.12-21.41-18.35-32.08-27.57S162.57,125.67,152,116.37l-15.88-14c-5.26-4.7-10.55-9.36-15.78-14.09l.2-.24c5.57,4.33,11.08,8.73,16.62,13.09l16.51,13.22c11,8.81,21.92,17.74,32.88,26.61s21.87,17.8,32.71,26.81c5.4,4.53,10.83,9,16.16,13.65l8,6.89c2.7,2.26,5.32,4.62,7,8.09Z" style="fill:#CA2537"></path><path d="M249.68,197.48c-3.84-.4-7-2-10-3.81l-9.21-5.18c-6.17-3.42-12.25-7-18.35-10.51-12.18-7.11-24.28-14.35-36.38-21.57s-24.21-14.47-36.26-21.8l-18.06-11c-6-3.71-12-7.38-18-11.13l.16-.27c6.23,3.29,12.42,6.67,18.63,10l18.56,10.14c12.37,6.77,24.67,13.67,37,20.5s24.63,13.73,36.87,20.72c6.11,3.53,12.24,7,18.28,10.64l9.09,5.39c3.06,1.76,6.05,3.63,8.31,6.76Z" style="fill:#CA2537"></path><path d="M249.78,197.53c-3.85.27-7.2-.82-10.52-2l-10-3.5c-6.67-2.3-13.28-4.75-19.9-7.16-13.22-4.89-26.39-9.92-39.57-14.93s-26.35-10-39.49-15.17l-19.7-7.69c-6.55-2.62-13.11-5.19-19.65-7.85l.11-.29c6.71,2.16,13.39,4.42,20.09,6.62l20,6.77c13.36,4.52,26.66,9.18,40,13.76s26.64,9.25,39.91,14c6.62,2.41,13.26,4.77,19.84,7.3l9.9,3.73c3.31,1.2,6.58,2.53,9.35,5.21Z" style="fill:#CA2537"></path><path d="M249.89,197.56c-3.75.94-7.24.45-10.71-.17l-10.43-1.71c-7-1.11-13.9-2.38-20.84-3.6-13.87-2.51-27.72-5.18-41.56-7.83s-27.7-5.31-41.52-8.08L104.09,172c-6.9-1.43-13.82-2.82-20.71-4.31l.05-.3c7,1,14,2,20.94,3l20.91,3.19c13.94,2.13,27.85,4.41,41.78,6.6s27.84,4.48,41.73,6.86c6.94,1.23,13.89,2.4,20.81,3.75L240,192.78c3.48.62,6.92,1.35,10.12,3.51Z" style="fill:#CA2537"></path><path d="M250,197.57c-3.52,1.57-7.05,1.7-10.57,1.7l-10.58.12c-7,.12-14.09.07-21.14.07-14.1-.07-28.2-.29-42.29-.49s-28.2-.42-42.29-.75L102,197.73c-7-.22-14.1-.39-21.15-.65v-.31c7-.26,14.1-.43,21.15-.65l21.15-.49c14.09-.32,28.19-.5,42.29-.75s28.19-.42,42.29-.49c7,0,14.1,0,21.14.07l10.58.13c3.52,0,7,.12,10.57,1.69Z" style="fill:#CA2537"></path><path d="M250.11,197.56c-3.2,2.16-6.64,2.9-10.12,3.51l-10.39,2c-6.92,1.35-13.87,2.52-20.81,3.75-13.89,2.38-27.81,4.61-41.73,6.86s-27.84,4.47-41.78,6.61l-20.91,3.18c-7,1-14,2.07-20.94,3l-.05-.3c6.89-1.49,13.81-2.88,20.71-4.31l20.74-4.16c13.82-2.77,27.68-5.38,41.52-8.08s27.69-5.31,41.56-7.83c6.94-1.22,13.88-2.49,20.84-3.6l10.43-1.71c3.47-.62,7-1.11,10.71-.17Z" style="fill:#CA2537"></path><path d="M250.22,197.53c-2.77,2.68-6,4-9.35,5.21l-9.9,3.73c-6.58,2.53-13.22,4.89-19.84,7.31-13.27,4.75-26.6,9.37-39.91,14s-26.64,9.24-40,13.76l-20,6.77c-6.7,2.2-13.38,4.46-20.09,6.62l-.11-.29c6.54-2.66,13.1-5.23,19.65-7.84l19.7-7.7c13.14-5.12,26.33-10.11,39.49-15.17s26.35-10,39.57-14.93c6.62-2.41,13.23-4.86,19.9-7.16l10-3.5c3.32-1.2,6.67-2.29,10.52-2Z" style="fill:#CA2537"></path><path d="M250.32,197.48c-2.26,3.13-5.25,5-8.31,6.76l-9.09,5.39c-6,3.63-12.17,7.11-18.28,10.64-12.24,7-24.56,13.85-36.87,20.72s-24.63,13.73-37,20.5l-18.56,10.14c-6.21,3.34-12.4,6.72-18.63,10l-.16-.27c6-3.75,12-7.42,18-11.13l18.06-11c12.05-7.33,24.18-14.53,36.26-21.79s24.2-14.47,36.38-21.58c6.1-3.52,12.18-7.09,18.35-10.51l9.21-5.17c3.06-1.77,6.17-3.42,10-3.82Z" style="fill:#CA2537"></path><path d="M250.41,197.42c-1.68,3.47-4.3,5.83-7,8.09l-8,6.9c-5.33,4.62-10.76,9.11-16.16,13.64-10.84,9-21.78,17.91-32.71,26.81s-21.87,17.8-32.88,26.61l-16.51,13.22c-5.54,4.36-11,8.76-16.62,13.09l-.2-.24c5.23-4.73,10.52-9.39,15.78-14.09l15.88-14c10.6-9.3,21.29-18.5,31.92-27.75s21.33-18.45,32.08-27.56c5.4-4.53,10.77-9.1,16.25-13.54l8.18-6.7c2.7-2.27,5.47-4.44,9.18-5.5Z" style="fill:#CA2537"></path><path d="M250.49,197.34c-1.06,3.71-3.23,6.49-5.49,9.19l-6.7,8.18c-4.44,5.48-9,10.84-13.54,16.24-9.11,10.76-18.35,21.42-27.56,32.08S178.75,284.36,169.44,295l-14,15.88c-4.7,5.26-9.36,10.55-14.09,15.78l-.24-.2c4.33-5.57,8.73-11.07,13.1-16.61l13.21-16.52c8.82-11,17.75-21.91,26.61-32.87s17.8-21.88,26.81-32.72c4.53-5.4,9-10.83,13.65-16.15l6.89-8c2.27-2.7,4.63-5.32,8.1-7Z" style="fill:#CA2537"></path><path d="M250.56,197.25c-.4,3.84-2.06,6.95-3.82,10l-5.18,9.22c-3.42,6.16-7,12.25-10.51,18.35-7.11,12.17-14.35,24.27-21.57,36.38S195,295.4,187.69,307.45l-11,18.07c-3.72,6-7.39,12-11.14,18l-.27-.16c3.3-6.24,6.68-12.42,10-18.64l10.15-18.56c6.77-12.37,13.67-24.66,20.5-37s13.73-24.63,20.72-36.87c3.52-6.1,7-12.23,10.63-18.27l5.4-9.1c1.76-3,3.63-6,6.75-8.31Z" style="fill:#CA2537"></path><path d="M250.61,197.15c.27,3.85-.82,7.2-2,10.51l-3.5,10c-2.29,6.66-4.75,13.27-7.16,19.89C233,250.76,228,263.93,223,277.11s-10,26.35-15.16,39.48l-7.7,19.7c-2.61,6.55-5.18,13.12-7.84,19.65l-.3-.1c2.17-6.72,4.42-13.4,6.63-20.1l6.77-20c4.52-13.35,9.18-26.66,13.76-40s9.24-26.64,14-39.91c2.41-6.62,4.78-13.26,7.3-19.85l3.73-9.89c1.21-3.31,2.53-6.58,5.21-9.36Z" style="fill:#CA2537"></path><path d="M250.64,197c.93,3.74.44,7.23-.17,10.7l-1.72,10.44c-1.1,7-2.37,13.89-3.59,20.84-2.52,13.87-5.19,27.71-7.83,41.56s-5.32,27.69-8.08,41.52l-4.16,20.74c-1.44,6.9-2.83,13.81-4.31,20.71l-.31-.06c1-7,2-13.95,3-20.93l3.19-20.91c2.13-13.94,4.41-27.85,6.61-41.78s4.48-27.84,6.86-41.74c1.22-6.94,2.4-13.89,3.74-20.81l2-10.39c.61-3.47,1.34-6.92,3.5-10.12Z" style="fill:#CA2537"></path><path d="M250.65,196.93c1.57,3.52,1.69,7,1.69,10.57l.12,10.57c.12,7.05.08,14.1.08,21.15-.07,14.09-.29,28.19-.49,42.29s-.43,28.19-.75,42.29L250.8,345c-.21,7-.38,14.09-.64,21.14h-.32c-.26-7-.43-14.1-.64-21.14l-.5-21.15c-.32-14.1-.49-28.19-.75-42.29s-.42-28.2-.49-42.29c0-7.05,0-14.1.08-21.15l.12-10.57c0-3.53.12-7.05,1.69-10.57Z" style="fill:#CA2537"></path><path d="M250.64,196.81c2.16,3.2,2.89,6.65,3.5,10.12l2,10.39c1.34,6.92,2.52,13.87,3.74,20.81,2.38,13.9,4.61,27.82,6.86,41.74s4.48,27.84,6.61,41.78l3.19,20.91c1,7,2.06,13.95,3,20.93l-.31.06c-1.48-6.9-2.87-13.81-4.31-20.71l-4.16-20.74c-2.76-13.83-5.38-27.68-8.08-41.52s-5.31-27.69-7.83-41.56c-1.22-7-2.49-13.88-3.59-20.84l-1.72-10.44c-.61-3.47-1.1-7-.17-10.7Z" style="fill:#CA2537"></path><path d="M250.61,196.7c2.68,2.78,4,6.05,5.21,9.36l3.73,9.89c2.52,6.59,4.89,13.23,7.3,19.85,4.76,13.27,9.37,26.59,14,39.91s9.24,26.64,13.76,40l6.77,20c2.21,6.7,4.46,13.38,6.63,20.1l-.3.1c-2.66-6.53-5.23-13.1-7.84-19.65l-7.7-19.7c-5.12-13.13-10.1-26.32-15.16-39.48s-10-26.35-14.93-39.58c-2.41-6.62-4.87-13.23-7.16-19.89l-3.5-10c-1.21-3.31-2.3-6.66-2-10.51Z" style="fill:#CA2537"></path><path d="M250.56,196.6c3.12,2.27,5,5.26,6.75,8.31l5.4,9.1c3.63,6,7.11,12.17,10.63,18.27,7,12.24,13.85,24.56,20.72,36.87s13.73,24.63,20.5,37l10.15,18.56c3.33,6.22,6.71,12.4,10,18.64l-.27.16c-3.75-6-7.42-12-11.14-18l-11-18.07c-7.32-12.05-14.52-24.17-21.79-36.25S276.06,247,269,234.82c-3.53-6.1-7.09-12.19-10.51-18.35l-5.18-9.22c-1.76-3.05-3.42-6.16-3.82-10Z" style="fill:#CA2537"></path><path d="M250.49,196.51c3.47,1.69,5.83,4.31,8.1,7l6.89,8c4.62,5.32,9.12,10.75,13.65,16.15,9,10.84,17.9,21.79,26.81,32.72s17.79,21.87,26.61,32.87l13.21,16.52c4.37,5.54,8.77,11,13.1,16.61l-.24.2c-4.73-5.23-9.39-10.52-14.09-15.78l-14-15.88c-9.31-10.59-18.5-21.28-27.76-31.92S284.35,241.71,275.24,231c-4.53-5.4-9.1-10.76-13.54-16.24l-6.7-8.18c-2.26-2.7-4.43-5.48-5.49-9.19Z" style="fill:#CA2537"></path><path d="M250.41,196.43c3.72,1.06,6.49,3.23,9.19,5.5l8.18,6.7c5.48,4.44,10.85,9,16.25,13.54,10.75,9.11,21.41,18.34,32.08,27.56s21.32,18.45,31.92,27.75l15.88,14c5.26,4.7,10.55,9.36,15.78,14.09l-.2.24c-5.57-4.33-11.08-8.73-16.62-13.09l-16.51-13.22c-11-8.81-21.92-17.74-32.88-26.61s-21.87-17.8-32.71-26.81c-5.4-4.53-10.83-9-16.16-13.64l-8-6.9c-2.7-2.26-5.32-4.62-7-8.09Z" style="fill:#CA2537"></path><path d="M250.32,196.37c3.84.4,6.95,2,10,3.82l9.21,5.17c6.17,3.42,12.25,7,18.35,10.51,12.18,7.11,24.28,14.35,36.38,21.58s24.21,14.46,36.26,21.79l18.06,11c6,3.71,12,7.38,18,11.13l-.16.27c-6.23-3.29-12.42-6.67-18.63-10l-18.56-10.14c-12.37-6.77-24.67-13.67-37-20.5s-24.63-13.73-36.87-20.72c-6.11-3.53-12.24-7-18.28-10.64L258,204.24c-3.06-1.76-6.05-3.63-8.31-6.76Z" style="fill:#CA2537"></path><path d="M250.22,196.32c3.85-.27,7.2.82,10.52,2l10,3.5c6.67,2.3,13.28,4.75,19.9,7.16,13.22,4.89,26.39,9.92,39.57,14.93s26.35,10,39.49,15.17l19.7,7.7c6.55,2.61,13.11,5.18,19.65,7.84l-.11.29c-6.71-2.16-13.39-4.42-20.09-6.62l-20-6.77c-13.36-4.52-26.66-9.18-40-13.76s-26.64-9.25-39.91-14c-6.62-2.42-13.26-4.78-19.84-7.31l-9.9-3.73c-3.31-1.2-6.58-2.53-9.35-5.21Z" style="fill:#CA2537"></path><path d="M250.11,196.29c3.75-.94,7.24-.45,10.71.17l10.43,1.71c7,1.11,13.9,2.38,20.84,3.6,13.87,2.52,27.72,5.18,41.56,7.83s27.69,5.31,41.52,8.08l20.74,4.16c6.9,1.43,13.82,2.82,20.71,4.31l-.05.3c-7-1-14-2-20.94-3l-20.91-3.18c-13.94-2.14-27.85-4.41-41.78-6.61s-27.84-4.48-41.73-6.86c-6.94-1.23-13.89-2.4-20.81-3.75l-10.39-2c-3.48-.61-6.92-1.35-10.12-3.51Z" style="fill:#CA2537"></path><path d="M250,196.28c3.52-1.57,7.05-1.7,10.57-1.69l10.58-.13c7-.12,14.09-.07,21.14-.07,14.1.07,28.2.29,42.29.49s28.2.43,42.29.75l21.15.49c7.05.22,14.1.39,21.15.65v.31c-7.05.26-14.1.43-21.15.65l-21.15.49c-14.09.33-28.19.5-42.29.75s-28.19.42-42.29.49c-7.05,0-14.1,0-21.14-.07l-10.58-.12c-3.52,0-7-.13-10.57-1.7Z" style="fill:#CA2537"></path><path d="M249.89,196.29c3.2-2.16,6.64-2.89,10.12-3.51l10.39-1.95c6.92-1.35,13.87-2.52,20.81-3.75,13.89-2.38,27.81-4.61,41.73-6.86s27.84-4.47,41.78-6.6l20.91-3.19c7-1,13.95-2.07,20.94-3l.05.3c-6.89,1.49-13.81,2.88-20.71,4.31l-20.74,4.16c-13.83,2.77-27.68,5.38-41.52,8.08s-27.69,5.32-41.56,7.83c-6.94,1.22-13.88,2.49-20.84,3.6l-10.43,1.71c-3.47.62-7,1.11-10.71.17Z" style="fill:#CA2537"></path><path d="M249.78,196.32c2.77-2.68,6-4,9.35-5.21l9.9-3.73c6.58-2.53,13.22-4.89,19.84-7.3,13.27-4.76,26.6-9.37,39.91-14s26.64-9.24,40-13.76l20-6.77c6.7-2.2,13.38-4.46,20.09-6.62l.11.29c-6.54,2.66-13.1,5.23-19.65,7.85l-19.7,7.69c-13.14,5.13-26.33,10.11-39.49,15.17s-26.35,10-39.57,14.93c-6.62,2.41-13.23,4.86-19.9,7.16l-10,3.5c-3.32,1.2-6.67,2.29-10.52,2Z" style="fill:#CA2537"></path><path d="M249.68,196.37c2.26-3.13,5.25-5,8.31-6.76l9.09-5.39c6-3.63,12.17-7.11,18.28-10.64,12.24-7,24.56-13.84,36.87-20.72s24.63-13.73,37-20.5l18.56-10.14c6.21-3.34,12.4-6.72,18.63-10l.16.27c-6,3.75-12,7.42-18,11.13l-18.06,11c-12,7.33-24.18,14.53-36.26,21.8s-24.2,14.46-36.38,21.57c-6.1,3.52-12.18,7.09-18.35,10.51l-9.21,5.18c-3.06,1.76-6.17,3.41-10,3.81Z" style="fill:#CA2537"></path><path d="M249.58,196.43c1.69-3.47,4.31-5.83,7-8.09l8-6.89c5.33-4.63,10.76-9.12,16.16-13.65,10.84-9,21.78-17.9,32.71-26.81s21.87-17.8,32.88-26.61l16.51-13.22c5.54-4.36,11.05-8.76,16.62-13.09l.2.24c-5.23,4.73-10.52,9.39-15.78,14.09l-15.88,14c-10.6,9.3-21.29,18.5-31.92,27.75S294.78,162.57,284,171.69c-5.4,4.53-10.77,9.09-16.25,13.53l-8.18,6.7c-2.7,2.27-5.47,4.44-9.19,5.5Z" style="fill:#CA2537"></path><path d="M249.51,196.51c1.06-3.71,3.23-6.49,5.49-9.19l6.7-8.18c4.44-5.47,9-10.84,13.54-16.24,9.11-10.76,18.34-21.41,27.56-32.08s18.45-21.33,27.76-31.92l14-15.88c4.7-5.26,9.36-10.55,14.09-15.78l.24.2c-4.33,5.57-8.73,11.07-13.1,16.61l-13.21,16.52c-8.82,11-17.75,21.91-26.61,32.88s-17.8,21.87-26.81,32.71c-4.53,5.4-9,10.83-13.65,16.15l-6.89,8c-2.27,2.7-4.63,5.32-8.1,7Z" style="fill:#CA2537"></path><path d="M249.44,196.6c.4-3.84,2.06-6.95,3.82-10l5.18-9.22c3.42-6.16,7-12.24,10.51-18.35,7.11-12.17,14.35-24.27,21.57-36.38S305,98.45,312.31,86.4l11-18.07c3.72-6,7.39-12,11.14-18l.27.15c-3.3,6.24-6.68,12.43-10,18.64L314.56,87.7c-6.77,12.37-13.67,24.66-20.5,37s-13.73,24.63-20.72,36.87c-3.52,6.1-7,12.23-10.63,18.27l-5.4,9.1c-1.76,3.05-3.63,6-6.75,8.31Z" style="fill:#CA2537"></path><path d="M249.39,196.7c-.27-3.84.82-7.2,2-10.51l3.5-10c2.29-6.66,4.75-13.27,7.16-19.89C267,143.09,272,129.92,277,116.74s10-26.34,15.16-39.48l7.7-19.7c2.61-6.55,5.18-13.12,7.84-19.65l.3.11c-2.17,6.71-4.42,13.39-6.63,20.09l-6.77,20c-4.52,13.35-9.18,26.66-13.76,40s-9.24,26.64-14,39.91c-2.41,6.63-4.78,13.27-7.3,19.85l-3.73,9.89c-1.21,3.31-2.53,6.58-5.21,9.36Z" style="fill:#CA2537"></path><path d="M249.36,196.81c-.93-3.74-.44-7.23.17-10.7l1.72-10.44c1.1-7,2.37-13.89,3.59-20.83,2.52-13.87,5.19-27.72,7.83-41.57s5.32-27.69,8.08-41.52L274.91,51c1.44-6.9,2.83-13.81,4.31-20.71l.31.06c-1,7-2,14-3,20.93L273.31,72.2c-2.13,13.94-4.41,27.86-6.61,41.78s-4.48,27.84-6.86,41.74c-1.22,6.94-2.4,13.89-3.74,20.81l-2,10.39c-.61,3.47-1.34,6.92-3.5,10.12Z" style="fill:#CA2537"></path><g style="opacity:0.85"><path d="M249.35,196.93c-1.57-3.53-1.69-7.05-1.69-10.58l-.12-10.57c-.12-7.05-.08-14.1-.08-21.15.07-14.09.29-28.19.49-42.29s.43-28.19.75-42.29l.5-21.14c.21-7,.38-14.1.64-21.15h.32c.26,7.05.43,14.1.64,21.15l.5,21.14c.32,14.1.49,28.2.75,42.29s.42,28.2.49,42.29c0,7.05,0,14.1-.08,21.15l-.12,10.57c0,3.53-.12,7.05-1.69,10.58Z" style="fill:#fff"></path><path d="M249.36,197c-2.16-3.2-2.89-6.65-3.5-10.12l-2-10.39c-1.34-6.92-2.52-13.87-3.74-20.81-2.38-13.9-4.61-27.82-6.86-41.74s-4.48-27.84-6.61-41.78L223.5,51.29c-1-7-2.06-13.95-3-20.93l.31-.06c1.48,6.9,2.87,13.81,4.31,20.71l4.16,20.74c2.76,13.83,5.38,27.68,8.08,41.52s5.31,27.7,7.83,41.57c1.22,6.94,2.49,13.87,3.59,20.83l1.72,10.44c.61,3.47,1.1,7,.17,10.7Z" style="fill:#fff"></path><path d="M249.39,197.15c-2.68-2.78-4-6.05-5.21-9.36l-3.73-9.89c-2.52-6.58-4.89-13.22-7.3-19.85-4.76-13.27-9.37-26.59-14-39.91s-9.24-26.64-13.76-40l-6.77-20c-2.21-6.7-4.46-13.38-6.63-20.09l.3-.11c2.66,6.53,5.23,13.1,7.84,19.65l7.7,19.7C213,90.4,217.93,103.58,223,116.74s10,26.35,14.93,39.58c2.41,6.62,4.87,13.23,7.16,19.89l3.5,10c1.21,3.31,2.3,6.67,2,10.51Z" style="fill:#fff"></path><path d="M249.44,197.25c-3.12-2.27-5-5.26-6.75-8.31l-5.4-9.1c-3.63-6-7.11-12.17-10.63-18.27-7-12.24-13.85-24.56-20.72-36.87s-13.73-24.63-20.5-37L175.29,69.14c-3.33-6.21-6.71-12.4-10-18.64l.27-.15c3.75,6,7.42,12,11.14,18l11,18.07c7.32,12,14.52,24.17,21.79,36.25s14.46,24.21,21.57,36.38c3.53,6.11,7.09,12.19,10.51,18.35l5.18,9.22c1.76,3.05,3.42,6.16,3.82,10Z" style="fill:#fff"></path><path d="M249.51,197.34c-3.47-1.69-5.83-4.31-8.1-7l-6.89-8c-4.62-5.32-9.12-10.75-13.65-16.15-9-10.84-17.9-21.78-26.81-32.71s-17.79-21.88-26.61-32.88L154.24,84.05c-4.37-5.54-8.77-11-13.1-16.61l.24-.2c4.73,5.23,9.39,10.52,14.09,15.78l14,15.88c9.31,10.59,18.5,21.28,27.76,31.92s18.45,21.32,27.56,32.08c4.53,5.4,9.1,10.77,13.54,16.24l6.7,8.18c2.26,2.7,4.43,5.48,5.49,9.19Z" style="fill:#fff"></path><path d="M249.58,197.42c-3.71-1.06-6.48-3.23-9.18-5.5l-8.18-6.7c-5.48-4.44-10.85-9-16.25-13.53-10.75-9.12-21.41-18.35-32.08-27.57S162.57,125.67,152,116.37l-15.88-14c-5.26-4.7-10.55-9.36-15.78-14.09l.2-.24c5.57,4.33,11.08,8.73,16.62,13.09l16.51,13.22c11,8.81,21.92,17.74,32.88,26.61s21.87,17.8,32.71,26.81c5.4,4.53,10.83,9,16.16,13.65l8,6.89c2.7,2.26,5.32,4.62,7,8.09Z" style="fill:#fff"></path><path d="M249.68,197.48c-3.84-.4-7-2-10-3.81l-9.21-5.18c-6.17-3.42-12.25-7-18.35-10.51-12.18-7.11-24.28-14.35-36.38-21.57s-24.21-14.47-36.26-21.8l-18.06-11c-6-3.71-12-7.38-18-11.13l.16-.27c6.23,3.29,12.42,6.67,18.63,10l18.56,10.14c12.37,6.77,24.67,13.67,37,20.5s24.63,13.73,36.87,20.72c6.11,3.53,12.24,7,18.28,10.64l9.09,5.39c3.06,1.76,6.05,3.63,8.31,6.76Z" style="fill:#fff"></path><path d="M249.78,197.53c-3.85.27-7.2-.82-10.52-2l-10-3.5c-6.67-2.3-13.28-4.75-19.9-7.16-13.22-4.89-26.39-9.92-39.57-14.93s-26.35-10-39.49-15.17l-19.7-7.69c-6.55-2.62-13.11-5.19-19.65-7.85l.11-.29c6.71,2.16,13.39,4.42,20.09,6.62l20,6.77c13.36,4.52,26.66,9.18,40,13.76s26.64,9.25,39.91,14c6.62,2.41,13.26,4.77,19.84,7.3l9.9,3.73c3.31,1.2,6.58,2.53,9.35,5.21Z" style="fill:#fff"></path><path d="M249.89,197.56c-3.75.94-7.24.45-10.71-.17l-10.43-1.71c-7-1.11-13.9-2.38-20.84-3.6-13.87-2.51-27.72-5.18-41.56-7.83s-27.7-5.31-41.52-8.08L104.09,172c-6.9-1.43-13.82-2.82-20.71-4.31l.05-.3c7,1,14,2,20.94,3l20.91,3.19c13.94,2.13,27.85,4.41,41.78,6.6s27.84,4.48,41.73,6.86c6.94,1.23,13.89,2.4,20.81,3.75L240,192.78c3.48.62,6.92,1.35,10.12,3.51Z" style="fill:#fff"></path><path d="M250,197.57c-3.52,1.57-7.05,1.7-10.57,1.7l-10.58.12c-7,.12-14.09.07-21.14.07-14.1-.07-28.2-.29-42.29-.49s-28.2-.42-42.29-.75L102,197.73c-7-.22-14.1-.39-21.15-.65v-.31c7-.26,14.1-.43,21.15-.65l21.15-.49c14.09-.32,28.19-.5,42.29-.75s28.19-.42,42.29-.49c7,0,14.1,0,21.14.07l10.58.13c3.52,0,7,.12,10.57,1.69Z" style="fill:#fff"></path><path d="M250.11,197.56c-3.2,2.16-6.64,2.9-10.12,3.51l-10.39,2c-6.92,1.35-13.87,2.52-20.81,3.75-13.89,2.38-27.81,4.61-41.73,6.86s-27.84,4.47-41.78,6.61l-20.91,3.18c-7,1-14,2.07-20.94,3l-.05-.3c6.89-1.49,13.81-2.88,20.71-4.31l20.74-4.16c13.82-2.77,27.68-5.38,41.52-8.08s27.69-5.31,41.56-7.83c6.94-1.22,13.88-2.49,20.84-3.6l10.43-1.71c3.47-.62,7-1.11,10.71-.17Z" style="fill:#fff"></path><path d="M250.22,197.53c-2.77,2.68-6,4-9.35,5.21l-9.9,3.73c-6.58,2.53-13.22,4.89-19.84,7.31-13.27,4.75-26.6,9.37-39.91,14s-26.64,9.24-40,13.76l-20,6.77c-6.7,2.2-13.38,4.46-20.09,6.62l-.11-.29c6.54-2.66,13.1-5.23,19.65-7.84l19.7-7.7c13.14-5.12,26.33-10.11,39.49-15.17s26.35-10,39.57-14.93c6.62-2.41,13.23-4.86,19.9-7.16l10-3.5c3.32-1.2,6.67-2.29,10.52-2Z" style="fill:#fff"></path><path d="M250.32,197.48c-2.26,3.13-5.25,5-8.31,6.76l-9.09,5.39c-6,3.63-12.17,7.11-18.28,10.64-12.24,7-24.56,13.85-36.87,20.72s-24.63,13.73-37,20.5l-18.56,10.14c-6.21,3.34-12.4,6.72-18.63,10l-.16-.27c6-3.75,12-7.42,18-11.13l18.06-11c12.05-7.33,24.18-14.53,36.26-21.79s24.2-14.47,36.38-21.58c6.1-3.52,12.18-7.09,18.35-10.51l9.21-5.17c3.06-1.77,6.17-3.42,10-3.82Z" style="fill:#fff"></path><path d="M250.41,197.42c-1.68,3.47-4.3,5.83-7,8.09l-8,6.9c-5.33,4.62-10.76,9.11-16.16,13.64-10.84,9-21.78,17.91-32.71,26.81s-21.87,17.8-32.88,26.61l-16.51,13.22c-5.54,4.36-11,8.76-16.62,13.09l-.2-.24c5.23-4.73,10.52-9.39,15.78-14.09l15.88-14c10.6-9.3,21.29-18.5,31.92-27.75s21.33-18.45,32.08-27.56c5.4-4.53,10.77-9.1,16.25-13.54l8.18-6.7c2.7-2.27,5.47-4.44,9.18-5.5Z" style="fill:#fff"></path><path d="M250.49,197.34c-1.06,3.71-3.23,6.49-5.49,9.19l-6.7,8.18c-4.44,5.48-9,10.84-13.54,16.24-9.11,10.76-18.35,21.42-27.56,32.08S178.75,284.36,169.44,295l-14,15.88c-4.7,5.26-9.36,10.55-14.09,15.78l-.24-.2c4.33-5.57,8.73-11.07,13.1-16.61l13.21-16.52c8.82-11,17.75-21.91,26.61-32.87s17.8-21.88,26.81-32.72c4.53-5.4,9-10.83,13.65-16.15l6.89-8c2.27-2.7,4.63-5.32,8.1-7Z" style="fill:#fff"></path><path d="M250.56,197.25c-.4,3.84-2.06,6.95-3.82,10l-5.18,9.22c-3.42,6.16-7,12.25-10.51,18.35-7.11,12.17-14.35,24.27-21.57,36.38S195,295.4,187.69,307.45l-11,18.07c-3.72,6-7.39,12-11.14,18l-.27-.16c3.3-6.24,6.68-12.42,10-18.64l10.15-18.56c6.77-12.37,13.67-24.66,20.5-37s13.73-24.63,20.72-36.87c3.52-6.1,7-12.23,10.63-18.27l5.4-9.1c1.76-3,3.63-6,6.75-8.31Z" style="fill:#fff"></path><path d="M250.61,197.15c.27,3.85-.82,7.2-2,10.51l-3.5,10c-2.29,6.66-4.75,13.27-7.16,19.89C233,250.76,228,263.93,223,277.11s-10,26.35-15.16,39.48l-7.7,19.7c-2.61,6.55-5.18,13.12-7.84,19.65l-.3-.1c2.17-6.72,4.42-13.4,6.63-20.1l6.77-20c4.52-13.35,9.18-26.66,13.76-40s9.24-26.64,14-39.91c2.41-6.62,4.78-13.26,7.3-19.85l3.73-9.89c1.21-3.31,2.53-6.58,5.21-9.36Z" style="fill:#fff"></path><path d="M250.64,197c.93,3.74.44,7.23-.17,10.7l-1.72,10.44c-1.1,7-2.37,13.89-3.59,20.84-2.52,13.87-5.19,27.71-7.83,41.56s-5.32,27.69-8.08,41.52l-4.16,20.74c-1.44,6.9-2.83,13.81-4.31,20.71l-.31-.06c1-7,2-13.95,3-20.93l3.19-20.91c2.13-13.94,4.41-27.85,6.61-41.78s4.48-27.84,6.86-41.74c1.22-6.94,2.4-13.89,3.74-20.81l2-10.39c.61-3.47,1.34-6.92,3.5-10.12Z" style="fill:#fff"></path><path d="M250.65,196.93c1.57,3.52,1.69,7,1.69,10.57l.12,10.57c.12,7.05.08,14.1.08,21.15-.07,14.09-.29,28.19-.49,42.29s-.43,28.19-.75,42.29L250.8,345c-.21,7-.38,14.09-.64,21.14h-.32c-.26-7-.43-14.1-.64-21.14l-.5-21.15c-.32-14.1-.49-28.19-.75-42.29s-.42-28.2-.49-42.29c0-7.05,0-14.1.08-21.15l.12-10.57c0-3.53.12-7.05,1.69-10.57Z" style="fill:#fff"></path><path d="M250.64,196.81c2.16,3.2,2.89,6.65,3.5,10.12l2,10.39c1.34,6.92,2.52,13.87,3.74,20.81,2.38,13.9,4.61,27.82,6.86,41.74s4.48,27.84,6.61,41.78l3.19,20.91c1,7,2.06,13.95,3,20.93l-.31.06c-1.48-6.9-2.87-13.81-4.31-20.71l-4.16-20.74c-2.76-13.83-5.38-27.68-8.08-41.52s-5.31-27.69-7.83-41.56c-1.22-7-2.49-13.88-3.59-20.84l-1.72-10.44c-.61-3.47-1.1-7-.17-10.7Z" style="fill:#fff"></path><path d="M250.61,196.7c2.68,2.78,4,6.05,5.21,9.36l3.73,9.89c2.52,6.59,4.89,13.23,7.3,19.85,4.76,13.27,9.37,26.59,14,39.91s9.24,26.64,13.76,40l6.77,20c2.21,6.7,4.46,13.38,6.63,20.1l-.3.1c-2.66-6.53-5.23-13.1-7.84-19.65l-7.7-19.7c-5.12-13.13-10.1-26.32-15.16-39.48s-10-26.35-14.93-39.58c-2.41-6.62-4.87-13.23-7.16-19.89l-3.5-10c-1.21-3.31-2.3-6.66-2-10.51Z" style="fill:#fff"></path><path d="M250.56,196.6c3.12,2.27,5,5.26,6.75,8.31l5.4,9.1c3.63,6,7.11,12.17,10.63,18.27,7,12.24,13.85,24.56,20.72,36.87s13.73,24.63,20.5,37l10.15,18.56c3.33,6.22,6.71,12.4,10,18.64l-.27.16c-3.75-6-7.42-12-11.14-18l-11-18.07c-7.32-12.05-14.52-24.17-21.79-36.25S276.06,247,269,234.82c-3.53-6.1-7.09-12.19-10.51-18.35l-5.18-9.22c-1.76-3.05-3.42-6.16-3.82-10Z" style="fill:#fff"></path><path d="M250.49,196.51c3.47,1.69,5.83,4.31,8.1,7l6.89,8c4.62,5.32,9.12,10.75,13.65,16.15,9,10.84,17.9,21.79,26.81,32.72s17.79,21.87,26.61,32.87l13.21,16.52c4.37,5.54,8.77,11,13.1,16.61l-.24.2c-4.73-5.23-9.39-10.52-14.09-15.78l-14-15.88c-9.31-10.59-18.5-21.28-27.76-31.92S284.35,241.71,275.24,231c-4.53-5.4-9.1-10.76-13.54-16.24l-6.7-8.18c-2.26-2.7-4.43-5.48-5.49-9.19Z" style="fill:#fff"></path><path d="M250.41,196.43c3.72,1.06,6.49,3.23,9.19,5.5l8.18,6.7c5.48,4.44,10.85,9,16.25,13.54,10.75,9.11,21.41,18.34,32.08,27.56s21.32,18.45,31.92,27.75l15.88,14c5.26,4.7,10.55,9.36,15.78,14.09l-.2.24c-5.57-4.33-11.08-8.73-16.62-13.09l-16.51-13.22c-11-8.81-21.92-17.74-32.88-26.61s-21.87-17.8-32.71-26.81c-5.4-4.53-10.83-9-16.16-13.64l-8-6.9c-2.7-2.26-5.32-4.62-7-8.09Z" style="fill:#fff"></path><path d="M250.32,196.37c3.84.4,6.95,2,10,3.82l9.21,5.17c6.17,3.42,12.25,7,18.35,10.51,12.18,7.11,24.28,14.35,36.38,21.58s24.21,14.46,36.26,21.79l18.06,11c6,3.71,12,7.38,18,11.13l-.16.27c-6.23-3.29-12.42-6.67-18.63-10l-18.56-10.14c-12.37-6.77-24.67-13.67-37-20.5s-24.63-13.73-36.87-20.72c-6.11-3.53-12.24-7-18.28-10.64L258,204.24c-3.06-1.76-6.05-3.63-8.31-6.76Z" style="fill:#fff"></path><path d="M250.22,196.32c3.85-.27,7.2.82,10.52,2l10,3.5c6.67,2.3,13.28,4.75,19.9,7.16,13.22,4.89,26.39,9.92,39.57,14.93s26.35,10,39.49,15.17l19.7,7.7c6.55,2.61,13.11,5.18,19.65,7.84l-.11.29c-6.71-2.16-13.39-4.42-20.09-6.62l-20-6.77c-13.36-4.52-26.66-9.18-40-13.76s-26.64-9.25-39.91-14c-6.62-2.42-13.26-4.78-19.84-7.31l-9.9-3.73c-3.31-1.2-6.58-2.53-9.35-5.21Z" style="fill:#fff"></path><path d="M250.11,196.29c3.75-.94,7.24-.45,10.71.17l10.43,1.71c7,1.11,13.9,2.38,20.84,3.6,13.87,2.52,27.72,5.18,41.56,7.83s27.69,5.31,41.52,8.08l20.74,4.16c6.9,1.43,13.82,2.82,20.71,4.31l-.05.3c-7-1-14-2-20.94-3l-20.91-3.18c-13.94-2.14-27.85-4.41-41.78-6.61s-27.84-4.48-41.73-6.86c-6.94-1.23-13.89-2.4-20.81-3.75l-10.39-2c-3.48-.61-6.92-1.35-10.12-3.51Z" style="fill:#fff"></path><path d="M250,196.28c3.52-1.57,7.05-1.7,10.57-1.69l10.58-.13c7-.12,14.09-.07,21.14-.07,14.1.07,28.2.29,42.29.49s28.2.43,42.29.75l21.15.49c7.05.22,14.1.39,21.15.65v.31c-7.05.26-14.1.43-21.15.65l-21.15.49c-14.09.33-28.19.5-42.29.75s-28.19.42-42.29.49c-7.05,0-14.1,0-21.14-.07l-10.58-.12c-3.52,0-7-.13-10.57-1.7Z" style="fill:#fff"></path><path d="M249.89,196.29c3.2-2.16,6.64-2.89,10.12-3.51l10.39-1.95c6.92-1.35,13.87-2.52,20.81-3.75,13.89-2.38,27.81-4.61,41.73-6.86s27.84-4.47,41.78-6.6l20.91-3.19c7-1,13.95-2.07,20.94-3l.05.3c-6.89,1.49-13.81,2.88-20.71,4.31l-20.74,4.16c-13.83,2.77-27.68,5.38-41.52,8.08s-27.69,5.32-41.56,7.83c-6.94,1.22-13.88,2.49-20.84,3.6l-10.43,1.71c-3.47.62-7,1.11-10.71.17Z" style="fill:#fff"></path><path d="M249.78,196.32c2.77-2.68,6-4,9.35-5.21l9.9-3.73c6.58-2.53,13.22-4.89,19.84-7.3,13.27-4.76,26.6-9.37,39.91-14s26.64-9.24,40-13.76l20-6.77c6.7-2.2,13.38-4.46,20.09-6.62l.11.29c-6.54,2.66-13.1,5.23-19.65,7.85l-19.7,7.69c-13.14,5.13-26.33,10.11-39.49,15.17s-26.35,10-39.57,14.93c-6.62,2.41-13.23,4.86-19.9,7.16l-10,3.5c-3.32,1.2-6.67,2.29-10.52,2Z" style="fill:#fff"></path><path d="M249.68,196.37c2.26-3.13,5.25-5,8.31-6.76l9.09-5.39c6-3.63,12.17-7.11,18.28-10.64,12.24-7,24.56-13.84,36.87-20.72s24.63-13.73,37-20.5l18.56-10.14c6.21-3.34,12.4-6.72,18.63-10l.16.27c-6,3.75-12,7.42-18,11.13l-18.06,11c-12,7.33-24.18,14.53-36.26,21.8s-24.2,14.46-36.38,21.57c-6.1,3.52-12.18,7.09-18.35,10.51l-9.21,5.18c-3.06,1.76-6.17,3.41-10,3.81Z" style="fill:#fff"></path><path d="M249.58,196.43c1.69-3.47,4.31-5.83,7-8.09l8-6.89c5.33-4.63,10.76-9.12,16.16-13.65,10.84-9,21.78-17.9,32.71-26.81s21.87-17.8,32.88-26.61l16.51-13.22c5.54-4.36,11.05-8.76,16.62-13.09l.2.24c-5.23,4.73-10.52,9.39-15.78,14.09l-15.88,14c-10.6,9.3-21.29,18.5-31.92,27.75S294.78,162.57,284,171.69c-5.4,4.53-10.77,9.09-16.25,13.53l-8.18,6.7c-2.7,2.27-5.47,4.44-9.19,5.5Z" style="fill:#fff"></path><path d="M249.51,196.51c1.06-3.71,3.23-6.49,5.49-9.19l6.7-8.18c4.44-5.47,9-10.84,13.54-16.24,9.11-10.76,18.34-21.41,27.56-32.08s18.45-21.33,27.76-31.92l14-15.88c4.7-5.26,9.36-10.55,14.09-15.78l.24.2c-4.33,5.57-8.73,11.07-13.1,16.61l-13.21,16.52c-8.82,11-17.75,21.91-26.61,32.88s-17.8,21.87-26.81,32.71c-4.53,5.4-9,10.83-13.65,16.15l-6.89,8c-2.27,2.7-4.63,5.32-8.1,7Z" style="fill:#fff"></path><path d="M249.44,196.6c.4-3.84,2.06-6.95,3.82-10l5.18-9.22c3.42-6.16,7-12.24,10.51-18.35,7.11-12.17,14.35-24.27,21.57-36.38S305,98.45,312.31,86.4l11-18.07c3.72-6,7.39-12,11.14-18l.27.15c-3.3,6.24-6.68,12.43-10,18.64L314.56,87.7c-6.77,12.37-13.67,24.66-20.5,37s-13.73,24.63-20.72,36.87c-3.52,6.1-7,12.23-10.63,18.27l-5.4,9.1c-1.76,3.05-3.63,6-6.75,8.31Z" style="fill:#fff"></path><path d="M249.39,196.7c-.27-3.84.82-7.2,2-10.51l3.5-10c2.29-6.66,4.75-13.27,7.16-19.89C267,143.09,272,129.92,277,116.74s10-26.34,15.16-39.48l7.7-19.7c2.61-6.55,5.18-13.12,7.84-19.65l.3.11c-2.17,6.71-4.42,13.39-6.63,20.09l-6.77,20c-4.52,13.35-9.18,26.66-13.76,40s-9.24,26.64-14,39.91c-2.41,6.63-4.78,13.27-7.3,19.85l-3.73,9.89c-1.21,3.31-2.53,6.58-5.21,9.36Z" style="fill:#fff"></path><path d="M249.36,196.81c-.93-3.74-.44-7.23.17-10.7l1.72-10.44c1.1-7,2.37-13.89,3.59-20.83,2.52-13.87,5.19-27.72,7.83-41.57s5.32-27.69,8.08-41.52L274.91,51c1.44-6.9,2.83-13.81,4.31-20.71l.31.06c-1,7-2,14-3,20.93L273.31,72.2c-2.13,13.94-4.41,27.86-6.61,41.78s-4.48,27.84-6.86,41.74c-1.22,6.94-2.4,13.89-3.74,20.81l-2,10.39c-.61,3.47-1.34,6.92-3.5,10.12Z" style="fill:#fff"></path></g></g></g><g id="freepik--speech-bubble--inject-2"><g id="freepik--speech-bubble--inject-2"><g id="freepik--speech-bubble--inject-2"><path d="M238.8,51.31a24.48,24.48,0,0,1,7,16.66l-.1,2.81a24.58,24.58,0,0,1-49-.58l0-2.81A24.58,24.58,0,0,1,238.8,51.31Z" style="fill:#fff"></path><path d="M202.52,49.44a26.68,26.68,0,0,0,33.93,41L244,93.81a1.55,1.55,0,0,0,2.06-2l-3.27-7.62a26.68,26.68,0,0,0-40.27-34.73Zm36.26,1.83a24.54,24.54,0,0,1,7,16.65l-.1,2.82a24.58,24.58,0,0,1-49-.49l0-2.82a24.59,24.59,0,0,1,42.14-16.16Z" style="fill:#e0e0e0"></path></g><g id="freepik--Check--inject-2"><path d="M217.59,83a3.73,3.73,0,0,1-2.73-1.18l-8.47-9a3.74,3.74,0,1,1,5.45-5.11l5.51,5.88,13-16.5a3.74,3.74,0,1,1,5.87,4.64l-15.71,19.9A3.75,3.75,0,0,1,217.75,83Z" style="fill:#CA2537"></path></g></g></g><g id="freepik--character-1--inject-2"><g id="freepik--character--inject-2"><g id="freepik--bottom--inject-2"><g id="freepik--bottom--inject-2"><polygon points="247.13 414.57 243.47 412.64 247.16 411.71 247.13 414.57" style="fill:#263238"></polygon><path d="M210.12,420.49s44.34-18.75,44.81-15.76a4.6,4.6,0,0,1-.07,1.79l.12-.16-.95,5.52a13,13,0,0,1-6.9,2.69c0-.26,0-1.91,0-2.86a23,23,0,0,0-3.92,2c-2.86,1.8-4.75,5-7.83,8.74-2.25,2.72-6.16,3.91-11.92,4.58-6.2.72-11.61-.62-13.1-2.33C209.21,423.3,209.88,420.87,210.12,420.49Z" style="fill:#263238"></path><path d="M211.35,419.5c.44-.44,2-2.13,4.21-4a82.87,82.87,0,0,1,6.47-5.26,23.32,23.32,0,0,0,3.2-2.52,33.46,33.46,0,0,0,2.25-2.52,47.69,47.69,0,0,0,5.53-8.89c.73-1.49,2.06-4.77,1.86-10.92-.29-9.33-1-12.71-.83-18.76l20.83,3.41c-.7,3.34-1.55,10.81-2,14.62-.64,5.78-1.5,6.31.59,12.16.62,1.72,1.57,3.38,1.6,5.21.07,3-2.32,5.47-5,6.85-2.18,1.15-4.66,1.6-6.78,2.83a21.68,21.68,0,0,0-5.6,5.25c-1.52,1.86-2.76,4.07-4.87,5.35a19.06,19.06,0,0,1-7.2,2.29,38.22,38.22,0,0,1-9.61.24C211.54,424.4,208.2,422.65,211.35,419.5Z" style="fill:#b16668"></path><path d="M228.7,410.87a8.21,8.21,0,0,0-6.78-.8c-3.3,2.49-6,4.7-8,6.25-2.34,1.88-4.4,3.6-4.37,5.82,0,3.49,13.47,4.89,21.08,1.79a9.37,9.37,0,0,0,5.44-4.54S235.12,414.48,228.7,410.87ZM254.61,399c-1.09-2.27-1.5-3.42-1.5-3.42-2.65,1.36-7.37,7.81-5.46,14.48a10,10,0,0,0,6.72-4.34A6.32,6.32,0,0,0,254.61,399Z" style="fill:#37474f"></path><path d="M291,406.66c-1.23,2,.45,9.51.22,14.87-.21,4.87-1.14,12.46.11,18.15s6.19,12,12.83,6.56c4.12-3.35,5.76-7.35,6.26-14.36.35-4.87-1.66-11.58-3.38-17.53-2-7-2.79-10.68-2.79-10.68Z" style="fill:#263238"></path><path d="M304.42,370.65c.59,11.35-.66,19.32-.67,26.59a51.09,51.09,0,0,0,1.13,9.8c1,4.63,2.67,11.06,3.38,14.06,1,4.19,1.74,6.83.33,11.55a6.28,6.28,0,0,1-.46,1.07c-2,3.9-7.12,6.88-8.77,6.42a2.83,2.83,0,0,1-2.89,1,3.37,3.37,0,0,1-.55-.12,4.33,4.33,0,0,1-.56-.22,5.63,5.63,0,0,1-2.77-3.54,9,9,0,0,1-.28-1c-1.25-5.83-.42-9.62-.32-11.9.1-2.64-.08-6-.36-10.25s-1.41-17.62-2.95-24c-1.14-4.45-2.56-10-4.06-16Z" style="fill:#b16668"></path><path d="M309.32,426.56c-4.08-1.76-15.86-1.9-17.69,3.85,0,5.4,0,9.06,3.46,13.73,4.59,6.2,10.44-.47,12.67-4.7S309.9,429.46,309.32,426.56Z" style="fill:#37474f"></path><path d="M286.52,210.76c5.83,10.23,13.69,24.45,14.19,47.49C301.38,289,301.8,311,302,314.66s2.63,10.46,4.83,28.67-.77,53-.77,53S304,400.4,297,401.15c-6.42.68-9.4-2.36-9.4-2.36s-9.66-48.77-12.28-59.72-11.47-58.79-11.47-58.79l-4,35.69S262,326,260.3,342,253.21,389,253.21,389s-2.94,3-9.77,2.7a13.87,13.87,0,0,1-9.35-3.8s-5.35-61.14-5.65-79.27.93-69.7,6.18-96.63Z" style="fill:#37474f"></path><path d="M240.3,244.84c2.17,7.37,11,11.73,15.4,12.7l4.59,24.2L259.86,316l4-35.69-4.27-25.81S245.92,252.75,240.3,244.84Zm44.48,87.46c-1.78-9.38-4-30.73-5.29-40.23s-2.44-19-3.79-28.53c.6,9.58,1.32,19.15,2.29,28.7s3.14,30.95,4.89,40.42,3.75,18.81,5.75,28.2,4.07,18.74,6.29,28.08q-2.22-14.22-4.81-28.37C288.42,351.13,286.6,341.68,284.78,332.3ZM236.6,288.58l1.14-25Q236,276,235.1,288.49c-.61,8.35-1.44,23-1.33,31.43.42,8.41,1.2,16.7,2,25s1.8,16.61,2.92,24.9q-.56-12.53-1.41-25l-.84-12.5c-.28-4.15-.61-8.33-.76-12.46s.3-14.62.42-18.78S236.44,292.75,236.6,288.58Z" style="fill:#263238"></path></g></g><g id="freepik--top--inject-2"><path d="M185.63,221.74a59.82,59.82,0,0,0-6.49-1.69c-1.66-.37-2.66.26-6.73,2.35-4.23,2.17-5,3.2-5.41,4.47a2.76,2.76,0,0,0,1,3.08c-1.33.78-1.28,3.19.55,4.11a2.2,2.2,0,0,0,.77,3.58c-.66.7-.45,3.46,2,4.15a45,45,0,0,0,6.46,1.06Z" style="fill:#9a4a4d"></path><g id="freepik--Flag--inject-2"><path d="M197.24,408.37,160.37,76.51l2.82-.32,36.88,331.89C200.15,409.2,197.34,409.46,197.24,408.37Z" style="fill:#455a64"></path><path d="M163.5,78.92c13.06,3.12,22.2,10.4,29.88,28.77,5.45,13,15.82,27.9,25.19,28.09l-5.25,43.32s-11.85,0-22.38-10.71-12-29.51-20.86-30.26c-1.36-12.16-4.23-38-4.23-38Z" style="fill:#CA2537"></path><path d="M198.73,150c-.19-.33-.29-.69-.47-1s-.38-.52-.55-.77c-.35-.5-.72-1-1.08-1.5-.66-.92-1.3-1.87-1.91-2.83a55.18,55.18,0,0,1-3.32-6,63.89,63.89,0,0,1-4.61-14.2,53.28,53.28,0,0,1-1-8.25c0-.13-.17-.17-.17,0a49.14,49.14,0,0,0,1.66,14.69,54,54,0,0,0,5.78,13.45c.69,1.15,1.42,2.27,2.2,3.35.38.54.78,1.06,1.19,1.58.25.3.5.61.77.89s.79.61,1.16.94A.23.23,0,0,0,198.73,150Z" style="opacity:0.15"></path><path d="M182.07,142.86c-3.56-10-8.28-13.47-11.06-25.15s-7.51-38.79-7.51-38.79l2.35,21.18s2.87,25.87,4.23,38c8.88.75,10.26,19.48,20.86,30.26s22.38,10.71,22.38,10.71c-4.2-.8-9.59-1.59-18.5-10.1C188.41,162.88,185.63,152.87,182.07,142.86Z" style="opacity:0.1"></path><path d="M177.8,242.85c.8,0,1.87-1.22,2.64-2s1.76-1.82,1.7-2.55c-.07-1-1.51-1.09-1.51-1.09a4.7,4.7,0,0,0,.73-.6c.94-.85-.67-2.1-2.14-1.61,0,0,.63-.35.66-.76a1.88,1.88,0,0,0-2-1.88c1.05-.48.73-1.95.06-3.1h-.78C176.08,233.32,176.45,237.92,177.8,242.85Z" style="fill:#9a4a4d"></path><path d="M169.33,237.64a20.5,20.5,0,0,0,2.88.91c1,.25,2,.51,2.94.66a4.47,4.47,0,0,0,2.82-.6c.9-.43,1.79-.92,2.66-1.44a15.57,15.57,0,0,1-2.54,1.69,4.54,4.54,0,0,1-3,.71,21.52,21.52,0,0,1-3-.75A13.51,13.51,0,0,1,169.33,237.64Z" style="opacity:0.30000000000000004"></path><path d="M179.22,235a23.44,23.44,0,0,1-2.59,1.06,4,4,0,0,1-1.43.2,11.59,11.59,0,0,1-1.38-.32,53.66,53.66,0,0,1-5.26-1.84c1.81.43,3.58,1,5.36,1.48a11.22,11.22,0,0,0,1.32.35,4,4,0,0,0,1.31-.15C177.44,235.52,178.32,235.21,179.22,235Z" style="opacity:0.30000000000000004"></path><path d="M177.92,232.32a5.42,5.42,0,0,1-2.59.48,16,16,0,0,1-2.52-.78A52.19,52.19,0,0,1,168,230c1.67.5,3.29,1.13,4.93,1.73a22.79,22.79,0,0,0,2.44.85A6.72,6.72,0,0,0,177.92,232.32Z" style="opacity:0.30000000000000004"></path><path d="M164.87,76.64a3.14,3.14,0,1,1-2.81-3.44A3.13,3.13,0,0,1,164.87,76.64Z" style="fill:#37474f"></path></g><path d="M213.65,229.17s-10.63,4-17.43,6.58c-5.2,2-5.28,2.75-7,4.47-1.94,1.92-7.53,2.19-7.53,2.19h0l-.29-2.61a2.47,2.47,0,0,0,.77-1.52,1.23,1.23,0,0,0-1-1l-.05-.39.33-.28c.56-.53.19-1.19-.53-1.52l-.25-2.2a15.84,15.84,0,0,1-2.14-2.57h0a5.68,5.68,0,0,1-.46-1.05,6,6,0,0,0-.65,0,7.49,7.49,0,0,0-3.61,1c-.92,1.58-2.33,3.49-4.63,3.44-1.88-.06-1.86-.93-.89-2.82,1.29-2.61,1.75-3.87,2.78-5.17.7-.89,3.42-2.12,5.62-3,1-.41,1.94-.75,2.49-1a2,2,0,0,1,.26-.09c1.58-.54,2.94-.44,5.86.05a10,10,0,0,0,5.57-.33c1.54-.41,9.64-4.77,9.64-4.77Z" style="fill:#b16668"></path><path d="M188.49,236a13.6,13.6,0,0,1-6.93-.31,1.38,1.38,0,0,0-.72-.66l-.25-2.2C182.17,235.08,185.56,236.1,188.49,236Z" style="fill:#9a4a4d"></path><path d="M198,217.7l-4.32,2.08a10.59,10.59,0,0,1,5.11,6.73,28.25,28.25,0,0,1,.5,8.27l5-1.75a22.57,22.57,0,0,0-1-8.39A16.4,16.4,0,0,0,198,217.7Z" style="fill:#fafafa"></path><path d="M240.8,159c-9.68,1.47-12.32,7.94-18.31,25.5-5.07,14.84-7.49,21.6-7.49,21.6l-18.65,12.22s7.67,1.87,6.53,15.33c0,0,10.13-3.53,22-7.7,6.52-2.31,6.49-5.52,9.4-12.28,3.33-7.74,7.6-22.29,7.6-22.29Z" style="fill:#CA2537"></path><path id="freepik--chest--inject-2" d="M293.91,224.24c1.81-3.08-5-12.56-4.16-21.29.53-5.55,4.77-17.13,4.77-17.13a48.35,48.35,0,0,1-9.69-36.09l-13.29,2.81-20.37,4-8,2.19c-2.74,2.36-7.76,6.07-11.79,11.77-5.83,8.23-5.8,18.83.15,25.59.06,1.32.79,19.51.13,26.88-.18,2.05-1.43,4.64-.15,7.28C237.25,239.68,274.5,244.73,293.91,224.24Z" style="fill:#fafafa"></path><path d="M247.45,100a15.83,15.83,0,0,0,3.71-.24c2.24-.5,3.1-1.34,4.58-3.09,3.15-3.71,8.95-3.54,12.43-.34,1.19,1,2.45,2.46,4,2.16.84-.16,1.83-.91,3.34-1.36a6.07,6.07,0,0,1,6.32,2.25c.72,1.2.58,2.73.68,4.13a3.68,3.68,0,0,0,2.1,3.25,2.2,2.2,0,0,0,2.92-1.8c1.53.88,1.65,3.35.58,4.78a6.21,6.21,0,0,1-4.63,2.14c3.21,0,6.59,3,5.64,6.53-.43,1.55-1.72,2.81-1.77,4.43-.08,2,1.66,3.81,2,5.79a6.91,6.91,0,0,1-.88,4.84,7.48,7.48,0,0,1-2.47,1.95,6.65,6.65,0,0,0-1.75,1.13,5.16,5.16,0,0,0-.91,1.44c-.81,1.71-1.53,3.55-3,4.8-1.86,1.62-4.52,1.88-7,1.88s-5-.17-7.3.82a17.85,17.85,0,0,0-2.95,1.79c-3,2-6.71,3.74-10.16,2.62-1.58-.51-2.92-1.57-4.45-2.24a9.62,9.62,0,0,0-4-.81c-1.45,0-2.77.55-4.19.6a5.73,5.73,0,0,1-4.61-2.26,7.22,7.22,0,0,1-1.39-5,5.25,5.25,0,0,0-2.35,4.9,7.21,7.21,0,0,1-1.61-8.41c.67-1.32,1.75-2.41,2.41-3.74,1.23-2.44-.23-5-1.34-7.21-1.31-2.57-2.21-5.82-.6-8.21s4.77-2.9,6.16-5.24c.9-1.5.81-3.37,1.08-5.1.43-2.88,2.13-5.76,4.87-6.71A12.9,12.9,0,0,1,247.45,100Z" style="fill:#263238"></path><g id="freepik--head--inject-2"><g id="freepik--head--inject-2"><g id="freepik--head--inject-2"><path d="M247.6,140.43a5.22,5.22,0,0,1-5.38-1.21c-3.43-2.88-3.74-6.53-2.65-8.94.9-2,2.51-3,5.29-2.67,2.49.32,3,1.48,4,2.87s4.25.82,2.76-5.09c3.84-2.48.39-8.27,2.23-11.37,2.88-4.85,8.75-4.48,10.74-3.69a7.51,7.51,0,0,1,7.72-1.54c2.95,1.11,5.2,4,7.6,14.51,2.45,10.74,1.33,18.9-.87,21.54-1.52,1.82-3.86,3.21-7.71,3.5l.33,6.72s-3.84,9.88-16.94,10.54c-9.1.46-3.56-9-3.56-9l-1.65-18S249.66,139.75,247.6,140.43Z" style="fill:#b16668"></path></g><path d="M261.41,118.65,258,121.39a2.29,2.29,0,0,1,.35-3.15A2.11,2.11,0,0,1,261.41,118.65Z" style="fill:#263238"></path><path d="M276.56,118.55l-4.23-1.12a2.09,2.09,0,0,1,2.6-1.6A2.3,2.3,0,0,1,276.56,118.55Z" style="fill:#263238"></path><path d="M263.84,135.78l6.18.8a3,3,0,0,1-3.37,2.74A3.29,3.29,0,0,1,263.84,135.78Z" style="fill:#9a4a4d"></path><path d="M267.83,139.24a3.21,3.21,0,0,0-3.25-2.32,3.11,3.11,0,0,0-.61.1,3.28,3.28,0,0,0,2.68,2.3A3.09,3.09,0,0,0,267.83,139.24Z" style="fill:#f28f8f"></path><path d="M276.65,121.89a1.77,1.77,0,1,1-2.42-.7A1.77,1.77,0,0,1,276.65,121.89Z" style="fill:#263238"></path><path d="M263.53,124a1.77,1.77,0,1,1-2.42-.69A1.79,1.79,0,0,1,263.53,124Z" style="fill:#263238"></path><path d="M267.24,121.39l2.43,11.37,6.05-2.68C273.56,125.79,269.94,123.21,267.24,121.39Z" style="fill:#9a4a4d"></path></g><path d="M271.34,148.34c-5.54.53-15.76,1.18-18.84-8.89a11.58,11.58,0,0,0,9.25,10.84,37.69,37.69,0,0,0,9.7.4Z" style="fill:#9a4a4d"></path></g><path d="M251.17,156.57,240.8,159c-7.17,6.38-14.68,16.26-14.55,24.3a22.49,22.49,0,0,0,4.52,13.23s1.41,16.27.23,25-4.75,31.67-4.75,31.67A61.87,61.87,0,0,0,238,256.76c1.08-11.19,2.69-52,1.65-61.73S237.16,170,251.17,156.57Z" style="fill:#CA2537"></path><path d="M251.17,156.57,240.8,159c-7.17,6.38-14.68,16.26-14.55,24.3a22.49,22.49,0,0,0,4.52,13.23s1.41,16.27.23,25-4.75,31.67-4.75,31.67A61.87,61.87,0,0,0,238,256.76c1.08-11.19,2.69-52,1.65-61.73S237.16,170,251.17,156.57Z" style="opacity:0.30000000000000004"></path><path d="M238.78,199.65c-.84-2.53-1.74-5-2.64-7.54s-1.78-5-2.62-7.52a29.83,29.83,0,0,1-1-3.8c-.29-1.2.49-2.28,1.28-3.31a35.61,35.61,0,0,1,5.7-5.4l.2-.16-.07-.23a13.23,13.23,0,0,1-.32-4.22,11.17,11.17,0,0,1,1.15-4.08,12.68,12.68,0,0,1,2.74-3.29,20.32,20.32,0,0,1,3.58-2.5,18.05,18.05,0,0,0-3.76,2.28,11.65,11.65,0,0,0-3,3.27,11.5,11.5,0,0,0-1.36,4.26,12.33,12.33,0,0,0,.27,4.48l.12-.39a34.88,34.88,0,0,0-5.9,5.5,9,9,0,0,0-1.11,1.75,2.82,2.82,0,0,0-.19.51,1.7,1.7,0,0,0-.13.55,3.69,3.69,0,0,0,.05,1.11,29.31,29.31,0,0,0,1.11,3.88c.85,2.54,1.87,5,2.85,7.47S237.75,197.19,238.78,199.65Z" style="opacity:0.2"></path><path d="M271.6,151.84s-3,4.56-6.62,15-7.15,20-6.33,29.35,3.24,61.65,3.24,61.65,16.73.06,28.51-4.92l-1.69-15.78,4.59,14.42s7.65-3.22,9.65-5.34c-4.26-21.26-11.44-31.82-12.37-39-.63-4.93,3.8-14.77,6.51-26.89,2.23-10-11.76-32.76-11.76-32.76C283.13,149.54,278.85,151,271.6,151.84Z" style="fill:#CA2537"></path><path d="M271.6,151.84s-3,4.56-6.62,15-7.15,20-6.33,29.35,3.24,61.65,3.24,61.65,16.73.06,28.51-4.92l-1.69-15.78,4.59,14.42s7.65-3.22,9.65-5.34c-4.26-21.26-11.44-31.82-12.37-39-.63-4.93,3.8-14.77,6.51-26.89,2.23-10-11.76-32.76-11.76-32.76C283.13,149.54,278.85,151,271.6,151.84Z" style="opacity:0.30000000000000004"></path><path d="M260.65,198.87a21.84,21.84,0,0,1,3.17-6.77c1.35-2.11,2.85-4.12,4.4-6.1.75-1,1.54-2,2.32-3l1.18-1.47c.2-.26.4-.49.6-.78a1.53,1.53,0,0,0,.15-.23c0-.12.09-.25.13-.37a2.79,2.79,0,0,0,0-.64,11.53,11.53,0,0,0-1.61-3.63c-.68-1.08-1.41-2.12-2.19-3.14v.63l3.53-4.19,1.75-2.1.43-.53.22-.27a1.72,1.72,0,0,0,.29-.42,1.82,1.82,0,0,0,0-.86c0-.24-.08-.48-.13-.71a43.75,43.75,0,0,0-1.73-5.26c-.68-1.71-1.37-3.41-2.14-5.08.58,1.74,1.17,3.48,1.71,5.23a50.12,50.12,0,0,1,1.45,5.26,3.14,3.14,0,0,1,.07,1.14c.06-.1,0,.06-.12.13l-.23.26-.46.51-1.82,2.07L268,172.77l-.26.29.24.33c.74,1,1.44,2,2.09,3.09a10.94,10.94,0,0,1,1.5,3.21,1.5,1.5,0,0,1,0,.3.19.19,0,0,0,0,.08s-.07.11-.1.16c-.15.23-.36.49-.54.73l-1.16,1.49c-.77,1-1.54,2-2.3,3-1.47,2-2.89,4.15-4.16,6.35a30.8,30.8,0,0,0-1.68,3.41A12.94,12.94,0,0,0,260.65,198.87Z" style="opacity:0.2"></path><path d="M330,83.73c.41-7.3-1.6-12.35-1.65-13.88-.07-2-.92-2.59-.92-2.59a2.1,2.1,0,0,0-1.49-2.08c-.25-1.72-1.27-1.69-4.54-2.6S314.3,60.46,313.1,61s-1.77,1.78-1.8,4a3.53,3.53,0,0,0-3.26.55c-1.3.81-1.87,1.52-1.09,3.83s2.37,3.81,2.53,5.83a9.19,9.19,0,0,0,3.14,6.1,6.77,6.77,0,0,1,2.56,2.4c.49,1,.44,2,.11,4.78-.28,2.34-4.73,25.18-4.73,25.18L328.18,118s1-18.69,1.44-28.38C329.73,87.32,329.92,84.73,330,83.73Z" style="fill:#b16668"></path><path d="M322.79,63.76c-1.37-.35-2.76-.6-4.14-.89-.73-.15-1.45-.31-2.18-.45a4.19,4.19,0,0,0-2-.05,3.29,3.29,0,0,0-2,2.23,19.82,19.82,0,0,0-.94,3.79,2.81,2.81,0,0,0,.16,1.92,1.31,1.31,0,0,0,1.32.66c.27,0,0-.43-.2-.4-.74.12-1-.76-.94-1.32a10.83,10.83,0,0,1,.29-1.78,14.21,14.21,0,0,1,.9-3,2.84,2.84,0,0,1,2-1.81,5.46,5.46,0,0,1,1.88.17l1.79.33c1.33.24,2.67.54,4,.72C322.85,63.91,322.85,63.77,322.79,63.76Z" style="fill:#9a4a4d"></path><path d="M322.5,65a40.38,40.38,0,0,0-4.06-.92,19.64,19.64,0,0,0-2-.29,2.09,2.09,0,0,0-1.45.4,5.19,5.19,0,0,0-1.47,3c-.16.66-.28,1.34-.39,2a9.85,9.85,0,0,0-.23,2c.1,1.32,1.55,1.91,2.72,1.87.31,0,.12-.43-.13-.42a2.65,2.65,0,0,1-1.74-.52,1.62,1.62,0,0,1-.37-1.65,24.48,24.48,0,0,1,.64-3.5,4.47,4.47,0,0,1,1.4-2.51,2.07,2.07,0,0,1,1.52-.28c.56,0,1.13.12,1.69.2a39.33,39.33,0,0,1,3.89.77C322.58,65.13,322.57,65,322.5,65Z" style="fill:#9a4a4d"></path><path d="M319.05,66.45a3.9,3.9,0,0,0-1.63.16,2.05,2.05,0,0,0-1,.94,9.18,9.18,0,0,0-.86,3.57,15.29,15.29,0,0,0-.11,1.91,1.59,1.59,0,0,0,.65,1.27,7.29,7.29,0,0,0,3.81,1.22c.28,0,.14-.38-.08-.39a7.74,7.74,0,0,1-2.13-.42c-.54-.2-1.46-.5-1.74-1a2.28,2.28,0,0,1-.09-1.13c0-.36,0-.71.07-1.07a15.56,15.56,0,0,1,.29-2,5.34,5.34,0,0,1,.68-1.86,2,2,0,0,1,1.75-.77c1.51,0,3,.2,4.51.27,0,0,0,0,0,0A15.2,15.2,0,0,0,319.05,66.45Z" style="fill:#9a4a4d"></path><path d="M321,72.87a3.45,3.45,0,0,0-.42-.51.59.59,0,0,0,0-.23,2.09,2.09,0,0,0,0-.25,2.44,2.44,0,0,0-.09-.47,3.61,3.61,0,0,0-.36-.89c0-.06-.07,0-.06.08a2.46,2.46,0,0,1,.24.84c0,.13,0,.27,0,.41v.26l0,0a2.44,2.44,0,0,0-.9-.51c-.09,0-.06.14,0,.17a4.54,4.54,0,0,1,.69.45,3,3,0,0,1,.6.72,2.83,2.83,0,0,1,.34.75,1.58,1.58,0,0,1,.05,1c-.08.21.34.45.42.21a1.65,1.65,0,0,0,0-1A3.43,3.43,0,0,0,321,72.87Z" style="fill:#9a4a4d"></path><path d="M323.14,74.53a3.83,3.83,0,0,0-.66-.08,3.77,3.77,0,0,0-.67,0,5.32,5.32,0,0,0-1.41.36,6,6,0,0,0-2.2,1.56,5.42,5.42,0,0,0-1.13,5.24c0,.08.1,0,.09,0a6.55,6.55,0,0,1,1.39-4.84,5.94,5.94,0,0,1,2-1.53,8.07,8.07,0,0,1,1.25-.44,5.35,5.35,0,0,1,.55-.11l.78-.1S323.17,74.54,323.14,74.53Z" style="fill:#9a4a4d"></path><path d="M311.71,69.94A2.49,2.49,0,0,1,310,69.8c-.56-.24-1.05-.61-1.58-.89,0,0,0,0,0,.06.87.92,2.18,1.77,3.5,1.36C312.15,70.25,311.92,69.87,311.71,69.94Z" style="fill:#9a4a4d"></path><path d="M312.19,66.46a1.91,1.91,0,0,0-.44-.93c-.08-.1-.14-.09-.1,0a2.37,2.37,0,0,1,.11.46,11.33,11.33,0,0,1,.15,1.29.06.06,0,0,0,.09,0c.05,0,.05-.07.11-.07s.1-.14.11-.2a.78.78,0,0,0,0-.22A2.32,2.32,0,0,0,312.19,66.46Z" style="fill:#9a4a4d"></path><path d="M312.74,70.67a.24.24,0,0,0-.29-.1,3.39,3.39,0,0,0-1.37,1,3,3,0,0,0-.43.7,3.12,3.12,0,0,0-.15.39,5.32,5.32,0,0,0-.06.56c0,.05.06.12.08.05a2,2,0,0,1,.21-.41c.06-.12.11-.24.18-.36a4.6,4.6,0,0,1,.49-.67,3.66,3.66,0,0,1,1.32-.92C312.83,70.89,312.79,70.74,312.74,70.67Z" style="fill:#9a4a4d"></path><path d="M313.83,94.6l.83-5.28a14.31,14.31,0,0,0,6.88,4.55,12.22,12.22,0,0,0,8.14-.05l-.34,5.43a20.74,20.74,0,0,1-9.66-.77C315.13,96.77,313.83,94.6,313.83,94.6Z" style="fill:#fafafa"></path><path d="M285.47,147.51c4.74-5.86,8.69-7.79,11.09-10.77,3.91-4.86,11.95-18,11.95-18L314,91.47c1.42,5,12.58,8.1,15.66,5.59,0,0-.4,9.59-1,26.76-.22,5.91-.87,7-8.51,18.24-3.61,5.32-7.23,11.05-13,19.94-4.18,6.42-8,12.4-10.13,18.76-.56,2.7-6.13,2.64-9.94-6C282.86,165.16,284.68,150.84,285.47,147.51Z" style="fill:#CA2537"></path></g></g></g></svg>
