<?xml version="1.0" encoding="utf-8"?>
<!-- Generator: Adobe Illustrator 25.2.1, SVG Export Plug-In . SVG Version: 6.00 Build 0)  -->
<svg version="1.1" id="圖層_1" xmlns="http://www.w3.org/2000/svg" xmlns:xlink="http://www.w3.org/1999/xlink" x="0px" y="0px"
	 viewBox="0 0 425.7 141.1" style="enable-background:new 0 0 425.7 141.1;" xml:space="preserve">
<path d="M69.6,5.1c-6.8,0-12.3,2.2-12.3,4.9v122.3c0,2.7,5.5,4.9,12.3,4.9s12.3-2.2,12.3-4.9V10C81.9,7.3,76.4,5.1,69.6,5.1z"/>
<path d="M29.2,3.8C22.5,2.9,16.8,4.3,16.4,7L0,128.3c-0.4,2.7,4.8,5.6,11.5,6.5s12.4-0.5,12.8-3.2L40.7,10.3
	C41.1,7.6,35.9,4.7,29.2,3.8z"/>
<path d="M110,3.8c-6.7,0.9-11.8,3.8-11.5,6.5l16.4,121.2c0.4,2.7,6.1,4.1,12.8,3.2c6.7-0.9,11.8-3.8,11.5-6.5L122.8,7
	C122.5,4.3,116.7,2.9,110,3.8z"/>
<path d="M162.7,70.3c0,6.8,2.2,12.3,4.9,12.3H261c2.7,0,4.9-5.5,4.9-12.3s-2.2-12.3-5-12.3h-93.4C164.9,58,162.7,63.5,162.7,70.3z"
	/>
<path d="M161.4,112.4c-0.9,6.7,0.5,12.4,3.2,12.8l92.5,12.5c2.7,0.4,5.6-4.8,6.5-11.5s-0.5-12.4-3.2-12.8l-92.5-12.5
	C165.2,100.6,162.3,105.7,161.4,112.4z"/>
<path d="M161.4,28.2c0.9,6.7,3.8,11.8,6.5,11.5l92.5-12.5c2.7-0.4,4.1-6.1,3.2-12.8s-3.8-11.8-6.5-11.5l-92.5,12.5
	C161.9,15.7,160.4,21.5,161.4,28.2z"/>
<path d="M355.1,0c-39,0-70.5,31.6-70.5,70.5c0,39,31.6,70.5,70.5,70.5s70.5-31.6,70.5-70.5C425.7,31.6,394.1,0,355.1,0z
	 M355.1,115.6c-24.9,0-45.1-20.2-45.1-45.1s20.2-45.1,45.1-45.1s45.1,20.2,45.1,45.1S380,115.6,355.1,115.6z"/>
</svg>
