<?xml version="1.0" encoding="utf-8"?>
<!-- Generator: Adobe Illustrator 25.2.1, SVG Export Plug-In . SVG Version: 6.00 Build 0)  -->
<svg version="1.1"
	 id="svg4" xmlns:cc="http://creativecommons.org/ns#" xmlns:dc="http://purl.org/dc/elements/1.1/" xmlns:inkscape="http://www.inkscape.org/namespaces/inkscape" xmlns:rdf="http://www.w3.org/1999/02/22-rdf-syntax-ns#" xmlns:sodipodi="http://sodipodi.sourceforge.net/DTD/sodipodi-0.dtd" xmlns:svg="http://www.w3.org/2000/svg"
	 xmlns="http://www.w3.org/2000/svg" xmlns:xlink="http://www.w3.org/1999/xlink" x="0px" y="0px" viewBox="0 0 335.3 119.5"
	 style="enable-background:new 0 0 335.3 119.5;" xml:space="preserve">
<sodipodi:namedview  bordercolor="#666666" borderopacity="1" gridtolerance="10" guidetolerance="10" id="namedview6" inkscape:current-layer="svg4" inkscape:cx="120.15717" inkscape:cy="58.266629" inkscape:document-rotation="0" inkscape:pageopacity="0" inkscape:pageshadow="2" inkscape:window-height="837" inkscape:window-maximized="1" inkscape:window-width="1600" inkscape:window-x="-8" inkscape:window-y="-8" inkscape:zoom="5.21" objecttolerance="10" pagecolor="#ffffff" showgrid="false">
	</sodipodi:namedview>
<path id="path2" d="M37,119.5c-10-0.4-18.2-3.1-24.6-8.2c-1.2-1-4.1-3.9-5.1-5.1c-2.6-3.3-4.4-6.4-5.5-9.9
	c-3.6-10.8-1.8-25,5.3-40.6c6.1-13.4,15.4-26.6,31.7-44.9C41.3,7.9,48.4,0,48.5,0c0,0-0.4,0.7-0.9,1.5c-4.2,7.1-7.9,15.5-9.9,22.7
	c-3.2,11.6-2.8,21.6,1.1,29.3c2.7,5.3,7.3,9.9,12.5,12.5c9.1,4.5,22.5,4.8,38.8,1.1c1.1-0.3,56.7-15,123.6-32.8
	C280.6,16.6,335.3,2,335.3,2S180,68.5,99.4,103c-12.8,5.5-16.2,6.8-22.2,8.9C61.8,117.3,48.1,119.9,37,119.5L37,119.5z"/>
</svg>
