<svg id="Layer_1" data-name="Layer 1" xmlns="http://www.w3.org/2000/svg" viewBox="0 0 102.95 88.29">
  <defs>
    <style>
      .cls-1, .cls-7 {
        stroke: #ff5559;
      }

      .cls-1, .cls-3, .cls-5, .cls-7 {
        stroke-linecap: round;
      }

      .cls-1, .cls-2, .cls-3, .cls-7 {
        stroke-miterlimit: 10;
      }

      .cls-1 {
        stroke-width: 2px;
      }

      .cls-2, .cls-3 {
        fill: none;
      }

      .cls-2, .cls-3, .cls-5 {
        stroke: #fff;
      }

      .cls-4, .cls-8 {
        fill: #ff5559;
      }

      .cls-4, .cls-5, .cls-6 {
        fill-rule: evenodd;
      }

      .cls-5, .cls-9 {
        fill: #bdbec0;
      }

      .cls-5 {
        stroke-linejoin: round;
      }

      .cls-10 {
        fill: #fff;
      }
    </style>
  </defs>
  <path class="cls-1" d="M54.92,12a116.27,116.27,0,0,1,40.4,7.49,72.33,72.33,0,0,1-8.74,41,72.47,72.47,0,0,1-32.29,30.1,77.19,77.19,0,0,1-28-25.06,78.12,78.12,0,0,1-13-46A116.36,116.36,0,0,1,54.92,12Z" transform="translate(-2.8 -3.38)"/>
  <path class="cls-2" d="M22.1,49.78a67.28,67.28,0,0,0,7.26,14.16,68.55,68.55,0,0,0,25,22.33A64.58,64.58,0,0,0,83.12,59.45a63.46,63.46,0,0,0,4.35-9.67" transform="translate(-2.8 -3.38)"/>
  <path class="cls-3" d="M86.88,51.35a64.66,64.66,0,0,0,4-28.32,103.51,103.51,0,0,0-73.12,0,70.61,70.61,0,0,0,4.89,28.32" transform="translate(-2.8 -3.38)"/>
  <g>
    <path id="path0" class="cls-4" d="M74.35,17.56l.1-.09h0c.29.47.58.46,1,.82a3.29,3.29,0,0,1,.13,2.57,6.77,6.77,0,0,0-.53,1.2c-.1.34-.31,1.05-.15,1.16.48.33,2.76-2.25,3.11-3a4.18,4.18,0,0,1-.48,2.6c-.9,2.27,2.91-2.06,2.67-2.75,1-.29,2.78-.62,2.88-1.38.08-.6-.88-1.15-1.26-1.39-1.42-.89-3.26-2.78-5-7.24L59.48,3.88c-2.4.2-12.86,1.33-18.21,9.38-6.48,9.75-1.17,23.22,0,26.09A99.91,99.91,0,0,0,46,49.65,28,28,0,0,1,48.1,53.5c.53.81,1.62,2.25,1.55,3.14.67.59,2,4,2.77,5.46.52,1.14.63,2.28,1.18,3.41.57,1.72,1.08,3.75,1.55,5.36.92,2.82-1.46-.94-2.12-1.11-3.32-3.07-6.63-5.84-10-7.31C35.68,59.54,23,61,25.68,71.81c.93,2.38-.65,1.66-1.73,3.49-1.51,2.68,1.12,5.51,3.17,7C35.58,89.1,47.55,90.2,58,88.59c3.25-.11,9,1.49,12.43.66,13-1.87,11-12.9-.15-16a19.75,19.75,0,0,0-3.16-.65,49.79,49.79,0,0,0-.92-7.1c-.74-3.66-2.28-7.21-3.13-10.81-.79-6.94,1-16.57,2.47-23.53A20.85,20.85,0,0,0,66,27.9c.1-2.2.49,0,1.06.66,1.71,2.19,6.06,1.86,7.81-.34-.27-.59-1.82-.32-2.35-1.08a9,9,0,0,1-.67-2.86A9.23,9.23,0,0,1,74.35,17.56Z" transform="translate(-2.8 -3.38)"/>
    <path id="path0-2" data-name="path0" class="cls-5" d="M74.35,17.56l.1-.09h0c.29.47.58.46,1,.82a3.29,3.29,0,0,1,.13,2.57,6.77,6.77,0,0,0-.53,1.2c-.1.34-.31,1.05-.15,1.16.48.33,2.76-2.25,3.11-3a4.18,4.18,0,0,1-.48,2.6c-.9,2.27,2.91-2.06,2.67-2.75,1-.29,2.78-.62,2.88-1.38.08-.6-.88-1.15-1.26-1.39-1.42-.89-3.26-2.78-5-7.24L59.48,3.88c-2.4.2-12.86,1.33-18.21,9.38-6.48,9.75-1.17,23.22,0,26.09A99.91,99.91,0,0,0,46,49.65,28,28,0,0,1,48.1,53.5c.53.81,1.62,2.25,1.55,3.14.67.59,2,4,2.77,5.46.52,1.14.63,2.28,1.18,3.41.57,1.72,1.08,3.75,1.55,5.36.92,2.82-1.46-.94-2.12-1.11-3.32-3.07-6.63-5.84-10-7.31C35.68,59.54,23,61,25.68,71.81c.93,2.38-.65,1.66-1.73,3.49-1.51,2.68,1.12,5.51,3.17,7C35.58,89.1,47.55,90.2,58,88.59c3.25-.11,9,1.49,12.43.66,13-1.87,11-12.9-.15-16a19.75,19.75,0,0,0-3.16-.65,49.79,49.79,0,0,0-.92-7.1c-.74-3.66-2.28-7.21-3.13-10.81-.79-6.94,1-16.57,2.47-23.53A20.85,20.85,0,0,0,66,27.9c.1-2.2.49,0,1.06.66,1.71,2.19,6.06,1.86,7.81-.34-.27-.59-1.82-.32-2.35-1.08a9,9,0,0,1-.67-2.86A9.23,9.23,0,0,1,74.35,17.56ZM73,12c1.16,1.5-.32.48-1.06.18-.93-.4-1.92-2.43-.3-2.32M57.33,13.07c-3.62,4.81-2.89,8.22,2.1,11.54.28.26,1.14.56,1.31.82-.36-.17-1.1-.2-1.62-.42-9.15-2.33-6.9-7.54-1.79-11.94m-6.26,7.28c.5,2.33,3.19,3.58,5.13,4.55a47.08,47.08,0,0,0,4.73,1.63c.49-.16.27.72.23.93-.07,1.15,0,2.18-1.58,1.66-3.64-1.05-13-3.86-8.51-8.77m-1.6,5.54a26.34,26.34,0,0,0,6.17,3c1.31.39,2.88.79,4.15,1,1.1-.53.59,2.66.48,2.72-3.42.36-13.55-2-10.8-6.76M49.84,31c2.52,1.68,5.64,2.23,8.58,2.67,1.14.33,1.64-.52,1.58,1.23.78,3.16-4.91,1.47-6.13,1.18-2.21-.4-5.84-2.83-4-5.08m.76,5.2c3,1.12,3.19,1.2,6.92,1.26.42.19,2.89-.48,2.38.68-.06.83.44,1.47-.13,2.08-2.79,1-7.45.72-9.33-1.85-.16,0-.86-2.95.16-2.17m.94,4.68c2.41.9,3.64.71,7.64.56.5,0,.49-.08.53,1.35.43,2.26-4.59,1.74-6,1.44a3.26,3.26,0,0,1-2.54-1.71c-.09-.11-.51-2.38.33-1.64M52.9,45c1.57.59,5.4.23,7,.11,0,.63.16,1.16.14,1.76-1.38,1.21-4.77,1-6.14.61-1.09.23-2.54-3-1-2.48m7.59,3.09c.83,3-3,2.78-5.21,2.56-1.07.23-2.58-2.72-1.16-2.39,2,.54,4.55,0,6.37-.17m.19,3c.51,1.53-.26,1.88-1.69,2.08-1.43,0-4,.56-4-1.61-.05-1,2.78.2,4.14-.34.63,0,1.06-.32,1.55-.13m.73,2.14c0,.16.17,1.21-.08,1.42-1.19.63-4.92,1.82-5-.56-.18-.87,2.48-.07,2.87-.4a13.34,13.34,0,0,1,2.24-.46m.69,2.4c.55,2.15-2.44,2.37-3.93,2.06-.68-.42-1.32-1.86.53-1.55,1.25.34,3.39-1.37,3.4-.51m.64,1.92c.66,2-2,2.45-3.51,2.19-.67-.15-1.34-1.81.24-1.5,1.52.1,2.14-.56,3.27-.69m.82,2.73c0,1.76-2.26,1.67-3.46,1.63-1.56-1.68.12-1.29,1.18-1.5.79,0,2.49-1.39,2.28-.13m.89,1.89c.21,1.47-2.85,2-4,1.47-.33-.23-.13-.89-.2-1.24H61c1.25.35,3.87-1.59,3.5-.23m.33,2.14C64.67,66,62.44,65.84,61,65.86c-1.07-1.43.13-1.48,1.37-1.44.54-.2,1.11-.3,1.67-.54s.74-.68.75.4m.53,1.92c.09,1.57-2.46,1.64-3.74,1.62-1.56-1.7.85-1.32,1.83-1.61.69,0,2.09-1.33,1.91,0m.39,2c.49,1.49-3.33,2.39-4.07,1.58-.23-.54-.46-1.28.62-1.09,1,.38,3.56-1.5,3.45-.49M66,70.5c.3,1.48-2.69,1.85-3.81,1.69-.45-.5-.91-1.65.61-1.42,1.21.36,3.32-1.62,3.2-.27M66.23,72c.51,1.65-1.65,2.27-3,2.24-1,.17-1.25-.56-1.15-1.44a10.22,10.22,0,0,0,4.16-.8M65.84,74c.44,1.23-.75,1.77-1.7,2.12-.4,0-2.42.41-2.11-.77-.42-.93,1.31-.48,1.68-.66.84-.17,1.45-.63,2.13-.69m-.47,2.92c0,1.32-2,1.06-3,.86-.34.12-.76-1.45-.11-1.21.33.37,3.54-.52,3.12.35m-3.32,1.28c.16.14.39.17,1.57.18,1.78-.09,1.18.26.82,1.08a3.06,3.06,0,0,1-2.64-.29c-.31-.19-.2-1.48.25-1m-.71,1.62c-.08.33,3.06-.09,2.7.54-.08,1.3-2.11.86-2.73.61-.43-.09-.8-1.65,0-1.15m-1.09,1.57a8.58,8.58,0,0,0,2.8.29c.18,1.44-1.51,1.34-2.53.94-.6,0-1.08-1.58-.27-1.23m-1.4,1.52c.14.09.24,0,.41.14s.23.09,1.28.1c1.25,0,1.22,0,1.13.29.14,1.14-1.73.79-2.18.71-.73.13-1.48-1.42-.64-1.24m-2,1.5a3.81,3.81,0,0,0,1.74.25c1.12,0,1.36-.08.95.81-.57.57-4.19-.15-2.69-1.06m-1.93,1.41c.37.34,3.7-.32,2.71.8-.71.45-2.29.07-2.75,0-.72-.28-.73-1.12,0-.78" transform="translate(-2.8 -3.38)"/>
    <path id="path0-3" data-name="path0" class="cls-6" d="M74.35,17.56l.1-.09h0c.29.47.58.46,1,.82a3.29,3.29,0,0,1,.13,2.57,6.77,6.77,0,0,0-.53,1.2c-.1.34-.31,1.05-.15,1.16.48.33,2.76-2.25,3.11-3a4.18,4.18,0,0,1-.48,2.6c-.9,2.27,2.91-2.06,2.67-2.75,1-.29,2.78-.62,2.88-1.38.08-.6-.88-1.15-1.26-1.39-1.42-.89-3.26-2.78-5-7.24L59.48,3.88c-2.4.2-12.86,1.33-18.21,9.38-6.48,9.75-1.17,23.22,0,26.09A99.91,99.91,0,0,0,46,49.65,28,28,0,0,1,48.1,53.5c.53.81,1.62,2.25,1.55,3.14.67.59,2,4,2.77,5.46.52,1.14.63,2.28,1.18,3.41.57,1.72,1.08,3.75,1.55,5.36.92,2.82-1.46-.94-2.12-1.11-3.32-3.07-6.63-5.84-10-7.31C35.68,59.54,23,61,25.68,71.81c.93,2.38-.65,1.66-1.73,3.49-1.51,2.68,1.12,5.51,3.17,7C35.58,89.1,47.55,90.2,58,88.59c3.25-.11,9,1.49,12.43.66,13-1.87,11-12.9-.15-16a19.75,19.75,0,0,0-3.16-.65,49.79,49.79,0,0,0-.92-7.1c-.74-3.66-2.28-7.21-3.13-10.81-.79-6.94,1-16.57,2.47-23.53A20.85,20.85,0,0,0,66,27.9c.1-2.2.49,0,1.06.66,1.71,2.19,6.06,1.86,7.81-.34-.27-.59-1.82-.32-2.35-1.08a9,9,0,0,1-.67-2.86A9.23,9.23,0,0,1,74.35,17.56ZM60.05,6.72c.69,0,3.62.48,3.3.9a33.55,33.55,0,0,0-7.41,1.22c-16,4.21-14,21.2-9,33.47,3.11,7.9,7.61,15.17,11,22.94C69.25,94.73,21.28,86.86,24.56,75.84c2.26-3.59,3.53-.54,5.35.7a24.56,24.56,0,0,0,7.85,4c5.13,1.61,11.61,1,16.07-2.06,3.53-2.17,2.82-4.77,2-8.18-1.5-6.94-5-13.36-7.88-19.87C44.16,41.08,36.65,27,40.69,16.93c3.43-7.21,11.58-11,19.36-10.21m6.31,1.77c3.21,1.76,5.84,5.85,9.18,7.44a16.21,16.21,0,0,0,3.59,1.48c1.08.35,4.87.57,2.16,1.73-.31.33-1.55-.47-1.5.42.11.58-1.58,3-1.39,2.15.14-.41.19-3.37-.43-2.39-.23.54-2.67,4.28-2.07,2,.55-2.81.16-3.31-2.11-4.91-1.59-1.27-4.37-3.1-6.33-1.52-1,1.4-.3,4.79-.2,6.09.82,3.87,1,7.81,6,7.58C68.3,31.4,66.47,26,65.5,22c-.75-2.46-1.07-12,.86-13.55m-5.25.65a19.76,19.76,0,0,0-6.67,2.16c-2.08,1.15-6,4.46-3.27,6.78-6.26,6.1-1.56,25.38,2.15,32.36,2.81,6.62,7.1,12.64,7.75,20C62.3,77.49,59.28,83.49,52.53,86a7.7,7.7,0,0,1-3.47.5c.14-.33.94-.25,1.29-.47,10.18-2.88,11.33-12.85,8.15-21.71C56.05,58,52.35,52.3,49.7,46.1c-5.53-12-7.6-37.76,11.41-37m10.48.68c.41.71,1,1.42,1.36,2.14,1.16,1.5-.32.48-1.06.18-.93-.4-1.92-2.43-.3-2.32M57.33,13.07c-3.62,4.81-2.89,8.22,2.1,11.54.28.26,1.14.56,1.31.82-.36-.17-1.1-.2-1.62-.42-9.15-2.33-6.9-7.54-1.79-11.94m-6.26,7.28c.5,2.33,3.19,3.58,5.13,4.55a47.08,47.08,0,0,0,4.73,1.63c.49-.16.27.72.23.93-.07,1.15,0,2.18-1.58,1.66-3.64-1.05-13-3.86-8.51-8.77m-1.6,5.54a26.34,26.34,0,0,0,6.17,3c1.31.39,2.88.79,4.15,1,1.1-.53.59,2.66.48,2.72-3.42.36-13.55-2-10.8-6.76M63,27.55c.33.38,1.57.95,1.43,1.67-.24,2.11-.61,3.94-.93,6-.79,4.41-1.21,9.69-1.59,14.09-.19,2.16-.63-2.58-.69-3.33C61,41.27,60.84,31.5,63,27.55M49.84,31c2.52,1.68,5.64,2.23,8.58,2.67,1.14.33,1.64-.52,1.58,1.23.78,3.16-4.91,1.47-6.13,1.18-2.21-.4-5.84-2.83-4-5.08m.76,5.2c3,1.12,3.19,1.2,6.92,1.26.42.19,2.89-.48,2.38.68-.06.83.44,1.47-.13,2.08-2.79,1-7.45.72-9.33-1.85-.16,0-.86-2.95.16-2.17m.94,4.68c2.41.9,3.64.71,7.64.56.5,0,.49-.08.53,1.35.43,2.26-4.59,1.74-6,1.44a3.26,3.26,0,0,1-2.54-1.71c-.09-.11-.51-2.38.33-1.64M52.9,45c1.57.59,5.4.23,7,.11,0,.63.16,1.16.14,1.76-1.38,1.21-4.77,1-6.14.61-1.09.23-2.54-3-1-2.48m7.59,3.09c.83,3-3,2.78-5.21,2.56-1.07.23-2.58-2.72-1.16-2.39,2,.54,4.55,0,6.37-.17m.19,3c.51,1.53-.26,1.88-1.69,2.08-1.43,0-4,.56-4-1.61-.05-1,2.78.2,4.14-.34.63,0,1.06-.32,1.55-.13m.73,2.14c0,.16.17,1.21-.08,1.42-1.19.63-4.92,1.82-5-.56-.18-.87,2.48-.07,2.87-.4a13.34,13.34,0,0,1,2.24-.46m.69,2.4c.55,2.15-2.44,2.37-3.93,2.06-.68-.42-1.32-1.86.53-1.55,1.25.34,3.39-1.37,3.4-.51m.64,1.92c.66,2-2,2.45-3.51,2.19-.67-.15-1.34-1.81.24-1.5,1.52.1,2.14-.56,3.27-.69m.82,2.73c0,1.76-2.26,1.67-3.46,1.63-1.56-1.68.12-1.29,1.18-1.5.79,0,2.49-1.39,2.28-.13m.89,1.89c.21,1.47-2.85,2-4,1.47-.33-.23-.13-.89-.2-1.24H61c1.25.35,3.87-1.59,3.5-.23M37,62.05c-1.47,4.84,4.5,8.66,7.83,11.22,7.22,5.33,12.09,3.35,4.87,6C31.05,85.92,15.88,61.18,37,62.05m3.4.48c5.52.94,10.59,5.68,13.89,10.12,3.78,6.8-6.7,1.49-8.77-.3-1.68-.91-11.51-10.8-5.12-9.82m24.4,1.75C64.67,66,62.44,65.84,61,65.86c-1.07-1.43.13-1.48,1.37-1.44.54-.2,1.11-.3,1.67-.54s.74-.68.75.4m.53,1.92c.09,1.57-2.46,1.64-3.74,1.62-1.56-1.7.85-1.32,1.83-1.61.69,0,2.09-1.33,1.91,0m.39,2c.49,1.49-3.33,2.39-4.07,1.58-.23-.54-.46-1.28.62-1.09,1,.38,3.56-1.5,3.45-.49M66,70.5c.3,1.48-2.69,1.85-3.81,1.69-.45-.5-.91-1.65.61-1.42,1.21.36,3.32-1.62,3.2-.27M66.23,72c.51,1.65-1.65,2.27-3,2.24-1,.17-1.25-.56-1.15-1.44a10.22,10.22,0,0,0,4.16-.8M65.84,74c.44,1.23-.75,1.77-1.7,2.12-.4,0-2.42.41-2.11-.77-.42-.93,1.31-.48,1.68-.66.84-.17,1.45-.63,2.13-.69m5,.38C75,76.48,82.18,82.07,75.4,85.86c-3.22,1.55-3.5,2.31-7.88,2.26-1.76,0-8.62-.41-6.61-1.36a20,20,0,0,0,8.57-8,15.32,15.32,0,0,0,.86-2.44c.2-.27,0-2.48.52-2m-5.49,2.54c0,1.32-2,1.06-3,.86-.34.12-.76-1.45-.11-1.21.33.37,3.54-.52,3.12.35m-3.32,1.28c.16.14.39.17,1.57.18,1.78-.09,1.18.26.82,1.08a3.06,3.06,0,0,1-2.64-.29c-.31-.19-.2-1.48.25-1m-.71,1.62c-.08.33,3.06-.09,2.7.54-.08,1.3-2.11.86-2.73.61-.43-.09-.8-1.65,0-1.15m-1.09,1.57a8.58,8.58,0,0,0,2.8.29c.18,1.44-1.51,1.34-2.53.94-.6,0-1.08-1.58-.27-1.23m-1.4,1.52c.14.09.24,0,.41.14s.23.09,1.28.1c1.25,0,1.22,0,1.13.29.14,1.14-1.73.79-2.18.71-.73.13-1.48-1.42-.64-1.24m-2,1.5a3.81,3.81,0,0,0,1.74.25c1.12,0,1.36-.08.95.81-.57.57-4.19-.15-2.69-1.06m-1.93,1.41c.37.34,3.7-.32,2.71.8-.71.45-2.29.07-2.75,0-.72-.28-.73-1.12,0-.78" transform="translate(-2.8 -3.38)"/>
  </g>
  <path class="cls-7" d="M3.55,42.68l3.57,8.59-3.57,8.6h97a4.69,4.69,0,0,0,4.69-4.69V42.68Z" transform="translate(-2.8 -3.38)"/>
  <g>
    <path class="cls-8" d="M85.56,52.69v2H87v2.84H81.34V54.73h.76V47.8h-.76V45h9.28V48.3H87.77v-.5H85.56v2.06h.52v-.5h2.83v3.83H86.08v-.5Z" transform="translate(-2.8 -3.38)"/>
    <path class="cls-8" d="M97.41,49.81v-1.6L97,47.8H95.17l-.41.41v6.13l.41.39H97l.4-.39V52.83h3.46v2.73l-2,2H93.31l-2-2V47l2-2h5.55l2,2v2.82Z" transform="translate(-2.8 -3.38)"/>
    <g>
      <path class="cls-9" d="M60.72,51H52.5v3.69h-.76v2.84h7.8l2-2V51.87Zm-2.63,3.3-.41.39H56V52.46h1.72l.41.41Z" transform="translate(-2.8 -3.38)"/>
      <polygon class="cls-9" points="43.13 47.66 39.67 47.66 39.67 51.35 38.91 51.35 38.91 54.2 48.25 54.2 48.25 50.6 45.4 50.6 45.4 51.35 43.13 51.35 43.13 47.66"/>
      <polygon class="cls-9" points="36.3 47.66 29.49 47.66 29.49 51.35 28.73 51.35 28.73 54.2 38.01 54.2 38.01 50.85 35.16 50.85 35.16 51.35 32.95 51.35 32.95 49.31 33.47 49.31 33.47 49.81 36.3 49.81 36.3 47.66"/>
      <polygon class="cls-9" points="27.07 47.66 17.68 47.66 17.68 51.35 16.92 51.35 16.92 54.2 21.9 54.2 21.9 51.35 21.14 51.35 21.14 49.25 23.61 49.25 23.61 51.35 22.85 51.35 22.85 54.2 27.83 54.2 27.83 51.35 27.07 51.35 27.07 47.66"/>
      <polygon class="cls-9" points="64.07 47.66 69.23 47.66 68.38 48.51 68.38 51.35 69.14 51.35 69.14 54.2 64.16 54.2 64.16 51.35 64.92 51.35 64.92 48.51 64.07 47.66"/>
      <polygon class="cls-9" points="15.15 47.66 6.77 47.66 8.45 49.34 12.15 49.34 12.55 49.75 12.55 50.96 12.15 51.35 10.31 51.35 9.9 50.96 9.9 49.77 6.44 49.77 6.44 52.19 8.45 54.2 14 54.2 16.01 52.19 16.01 48.53 15.15 47.66"/>
    </g>
    <g>
      <line class="cls-10" x1="15.15" y1="47.66" x2="15.15" y2="47.66"/>
      <polyline class="cls-10" points="6.77 47.66 15.15 47.66 14 46.51 10.31 46.51 9.9 46.11 9.9 44.84 10.31 44.43 12.15 44.43 12.55 44.84 12.55 46.09 16.01 46.09 16.01 43.61 14 41.6 8.45 41.6 6.44 43.61 6.44 47.33"/>
      <polygon class="cls-10" points="22.85 44.43 23.61 44.43 23.61 46.15 21.14 46.15 21.14 44.43 21.9 44.43 21.9 41.6 16.92 41.6 16.92 44.43 17.68 44.43 17.68 47.66 27.07 47.66 27.07 44.43 27.83 44.43 27.83 41.6 22.85 41.6 22.85 44.43"/>
      <polygon class="cls-10" points="28.73 44.43 29.49 44.43 29.49 47.66 36.3 47.66 36.3 45.98 33.47 45.98 33.47 46.48 32.95 46.48 32.95 44.43 35.16 44.43 35.16 44.93 38.01 44.93 38.01 41.6 28.73 41.6 28.73 44.43"/>
      <polygon class="cls-10" points="39.67 47.66 43.13 47.66 43.13 44.43 43.89 44.43 43.89 41.6 38.91 41.6 38.91 44.43 39.67 44.43 39.67 47.66"/>
      <path class="cls-10" d="M52.5,51h8.22l.84-.83V47l-2-2h-7.8V47.8h.76m3.46,0h1.72l.41.41v1l-.41.41H56Z" transform="translate(-2.8 -3.38)"/>
      <polygon class="cls-10" points="67.66 41.6 67.66 44.43 68.17 44.43 66.66 45.94 65.14 44.43 65.64 44.43 65.64 41.6 59.65 41.6 59.65 44.43 60.83 44.43 64.07 47.66 69.23 47.66 72.47 44.43 73.46 44.43 73.46 41.6 67.66 41.6"/>
    </g>
  </g>
</svg>
