<svg xmlns="http://www.w3.org/2000/svg" viewBox="0 0 750 500"><g id="freepik--background-complete--inject-33"><path d="M131.77,250.27a40.3,40.3,0,0,1-24.72-18.6,35.81,35.81,0,0,1-2.59-29.55c2.7-7.51,7.9-14.13,10.13-21.78,2.53-8.68,1-17.89-.54-26.78s-3.15-18.06-.78-26.78,9.85-16.91,19.46-17.53c8.92-.58,17.15,5.59,20.87,13.18s3.74,16.3,2.88,24.6-2.57,16.61-2,24.94c1.07,16.87,11.19,32.75,10,49.61-.62,8.78-4.26,14.4-10.48,21-5.37,5.7-14.3,9.44-22.2,7.69" style="fill:#f5f5f5"></path><path d="M134.92,333.86c-.09,0-.16-37.37-.16-83.46s.07-83.46.16-83.46.17,37.36.17,83.46S135,333.86,134.92,333.86Z" style="fill:#e0e0e0"></path><path d="M134.44,221.11a12.23,12.23,0,0,1-1.54-1.35c-.92-.87-2.16-2.1-3.48-3.5s-2.52-2.65-3.4-3.56a12.38,12.38,0,0,1-1.36-1.51,13,13,0,0,1,1.54,1.36c.92.87,2.16,2.09,3.48,3.5s2.52,2.64,3.39,3.55A12.06,12.06,0,0,1,134.44,221.11Z" style="fill:#e0e0e0"></path><path d="M135.45,186.15a11.76,11.76,0,0,0,3.41-1.42,9.46,9.46,0,0,0,4.22-7.11v-.15l.2.16a7.39,7.39,0,0,0-4.11,2.26,15.17,15.17,0,0,0-2.29,3.08c-.55.94-.94,1.73-1.2,2.28a6.29,6.29,0,0,1-.42.84,4.92,4.92,0,0,1,.3-.89,23,23,0,0,1,1.11-2.34A15,15,0,0,1,139,179.7a7.53,7.53,0,0,1,4.29-2.38l.21,0,0,.19v.16a9.46,9.46,0,0,1-4.43,7.27,8.76,8.76,0,0,1-2.54,1.08,5.62,5.62,0,0,1-.74.14Z" style="fill:#e0e0e0"></path><path d="M135.45,186.15a20.47,20.47,0,0,1,2.34-2.91,21.15,21.15,0,0,1,2.59-2.7,20.85,20.85,0,0,1-2.33,2.9A22.16,22.16,0,0,1,135.45,186.15Z" style="fill:#e0e0e0"></path><path d="M675.21,334c0,.14-139.53.26-311.61.26S52,334.17,52,334s139.5-.26,311.64-.26S675.21,333.89,675.21,334Z" style="fill:#e0e0e0"></path><path d="M638.76,353h-9.24V124.8a6.35,6.35,0,0,0-6.34-6.34h-346a6.34,6.34,0,0,0-6.34,6.34V353h-9.25V124.8a15.61,15.61,0,0,1,15.59-15.59h346a15.6,15.6,0,0,1,15.58,15.59Z" style="fill:#e0e0e0"></path><path d="M577.54,336.59H317.41V176.74a34.33,34.33,0,0,0-15.35-28.65l-33.14-22,2.56-3.85,33.14,22A39,39,0,0,1,322,176.74V332H572.91V176.74a38.93,38.93,0,0,1,17.42-32.5l40.5-27.68,2.6,3.82-40.52,27.69a34.36,34.36,0,0,0-15.37,28.67Z" style="fill:#e0e0e0"></path><rect x="268.1" y="339.22" width="53.88" height="4.62" transform="translate(-91.64 108.79) rotate(-18.13)" style="fill:#e0e0e0"></rect><rect x="602.37" y="311.33" width="4.62" height="60.76" transform="translate(125.53 844.51) rotate(-75.85)" style="fill:#e0e0e0"></rect><path d="M319.54,315.92c0,.1-11.7,3.46-26.2,7.49s-26.28,7.22-26.3,7.12,11.69-3.47,26.19-7.5S319.51,315.81,319.54,315.92Z" style="fill:#e0e0e0"></path><path d="M319.54,298.92c0,.11-11.7,3.47-26.2,7.5s-26.28,7.22-26.3,7.11,11.69-3.46,26.19-7.49S319.51,298.82,319.54,298.92Z" style="fill:#e0e0e0"></path><path d="M319.54,281.93c0,.11-11.7,3.47-26.2,7.5s-26.28,7.22-26.3,7.11,11.69-3.46,26.19-7.5S319.51,281.83,319.54,281.93Z" style="fill:#e0e0e0"></path><path d="M319.54,264.94c0,.11-11.7,3.46-26.2,7.5s-26.28,7.22-26.3,7.11,11.69-3.46,26.19-7.5S319.51,264.83,319.54,264.94Z" style="fill:#e0e0e0"></path><path d="M319.54,248c0,.1-11.7,3.46-26.2,7.49s-26.28,7.22-26.3,7.12,11.69-3.47,26.19-7.5S319.51,247.84,319.54,248Z" style="fill:#e0e0e0"></path><path d="M319.54,231c0,.11-11.7,3.47-26.2,7.5s-26.28,7.22-26.3,7.11,11.69-3.46,26.19-7.49S319.51,230.85,319.54,231Z" style="fill:#e0e0e0"></path><path d="M319.54,214c0,.11-11.7,3.47-26.2,7.5s-26.28,7.22-26.3,7.11,11.69-3.46,26.19-7.5S319.51,213.86,319.54,214Z" style="fill:#e0e0e0"></path><path d="M319.54,197c0,.11-11.7,3.46-26.2,7.5s-26.28,7.22-26.3,7.11,11.69-3.46,26.19-7.5S319.51,196.86,319.54,197Z" style="fill:#e0e0e0"></path><path d="M319.54,180c0,.1-11.7,3.46-26.2,7.49s-26.28,7.22-26.3,7.12,11.69-3.47,26.19-7.5S319.51,179.87,319.54,180Z" style="fill:#e0e0e0"></path><path d="M319.54,163c0,.11-11.7,3.47-26.2,7.5s-26.28,7.22-26.3,7.11,11.69-3.46,26.19-7.49S319.51,162.88,319.54,163Z" style="fill:#e0e0e0"></path><path d="M307.46,149.35c0,.11-9,2.71-20.16,5.82s-20.24,5.54-20.26,5.43,9-2.71,20.15-5.82S307.43,149.25,307.46,149.35Z" style="fill:#e0e0e0"></path><path d="M293.29,138.72a5.26,5.26,0,0,1-1,.29l-2.79.64c-2.36.52-5.63,1.21-9.25,1.93C273,143,267,144,267,143.61a26.67,26.67,0,0,0,3.83-.61l9.28-1.81,9.27-1.82,2.82-.51A4.72,4.72,0,0,1,293.29,138.72Z" style="fill:#e0e0e0"></path><path d="M280.16,346.83c-.11,0-.2-48-.2-107.16s.09-107.17.2-107.17.2,48,.2,107.17S280.27,346.83,280.16,346.83Z" style="fill:#e0e0e0"></path><path d="M293.29,342.25c-.11,0-.2-45.56-.2-101.76s.09-101.77.2-101.77.2,45.56.2,101.77S293.4,342.25,293.29,342.25Z" style="fill:#e0e0e0"></path><path d="M307.15,337.56s0-.16,0-.48,0-.82,0-1.44c0-1.27,0-3.13,0-5.51,0-4.8-.06-11.72-.1-20.26-.1-17.12-.24-40.75-.39-66.85s-.27-49.76-.27-66.87c0-8.55,0-15.46,0-20.26,0-2.38,0-4.24,0-5.51,0-.62,0-1.1,0-1.43s0-.49,0-.49a4.45,4.45,0,0,1,0,.49c0,.33,0,.81,0,1.43,0,1.27,0,3.13,0,5.51,0,4.8.06,11.71.1,20.26.1,17.12.24,40.75.39,66.86s.27,49.75.28,66.86c0,8.54,0,15.46,0,20.26,0,2.38,0,4.24,0,5.51,0,.62,0,1.1,0,1.44A4.34,4.34,0,0,1,307.15,337.56Z" style="fill:#e0e0e0"></path><path d="M578.43,314.51c0-.11,11.81,3.07,26.3,7.11s26.23,7.39,26.2,7.5-11.8-3.08-26.3-7.12S578.4,314.61,578.43,314.51Z" style="fill:#e0e0e0"></path><path d="M578.43,297.51c0-.1,11.81,3.08,26.3,7.11s26.23,7.4,26.2,7.5-11.8-3.07-26.3-7.11S578.4,297.62,578.43,297.51Z" style="fill:#e0e0e0"></path><path d="M578.43,280.52c0-.11,11.81,3.08,26.3,7.11s26.23,7.39,26.2,7.5-11.8-3.08-26.3-7.11S578.4,280.63,578.43,280.52Z" style="fill:#e0e0e0"></path><path d="M578.43,263.53c0-.11,11.81,3.08,26.3,7.11s26.23,7.39,26.2,7.5-11.8-3.08-26.3-7.11S578.4,263.64,578.43,263.53Z" style="fill:#e0e0e0"></path><path d="M578.43,246.54c0-.11,11.81,3.07,26.3,7.11s26.23,7.39,26.2,7.5-11.8-3.08-26.3-7.12S578.4,246.64,578.43,246.54Z" style="fill:#e0e0e0"></path><path d="M578.43,229.54c0-.1,11.81,3.08,26.3,7.12s26.23,7.39,26.2,7.49-11.8-3.07-26.3-7.11S578.4,229.65,578.43,229.54Z" style="fill:#e0e0e0"></path><path d="M578.43,212.55c0-.1,11.81,3.08,26.3,7.11s26.23,7.39,26.2,7.5-11.8-3.08-26.3-7.11S578.4,212.66,578.43,212.55Z" style="fill:#e0e0e0"></path><path d="M578.43,195.56c0-.11,11.81,3.08,26.3,7.11s26.23,7.39,26.2,7.5-11.8-3.08-26.3-7.11S578.4,195.67,578.43,195.56Z" style="fill:#e0e0e0"></path><path d="M578.43,178.57c0-.11,11.81,3.07,26.3,7.11s26.23,7.39,26.2,7.5-11.8-3.08-26.3-7.12S578.4,178.67,578.43,178.57Z" style="fill:#e0e0e0"></path><path d="M578.43,161.57c0-.1,11.81,3.08,26.3,7.12s26.23,7.39,26.2,7.49-11.8-3.07-26.3-7.11S578.4,161.68,578.43,161.57Z" style="fill:#e0e0e0"></path><path d="M590.51,147.94c0-.1,9.1,2.33,20.26,5.43s20.19,5.71,20.16,5.82-9.1-2.32-20.26-5.43S590.48,148.05,590.51,147.94Z" style="fill:#e0e0e0"></path><path d="M604.68,137.31a4.72,4.72,0,0,1,1.05.14l2.82.51,9.27,1.82,9.27,1.81a26.44,26.44,0,0,0,3.84.61c0,.39-6-.6-13.19-2-3.62-.72-6.89-1.41-9.25-1.93l-2.79-.64A5.26,5.26,0,0,1,604.68,137.31Z" style="fill:#e0e0e0"></path><path d="M617.81,345.42c-.11,0-.2-48-.2-107.16s.09-107.17.2-107.17.2,48,.2,107.17S617.92,345.42,617.81,345.42Z" style="fill:#e0e0e0"></path><path d="M604.68,340.84c-.11,0-.2-45.56-.2-101.76s.09-101.77.2-101.77.2,45.56.2,101.77S604.79,340.84,604.68,340.84Z" style="fill:#e0e0e0"></path><path d="M590.82,336.15a4.34,4.34,0,0,1,0-.48c0-.34,0-.82,0-1.44,0-1.27,0-3.13,0-5.51,0-4.8,0-11.72,0-20.26,0-17.11.11-40.75.28-66.86s.29-49.74.39-66.86c0-8.55.07-15.47.09-20.26,0-2.38,0-4.24,0-5.51,0-.62,0-1.1,0-1.43a4.45,4.45,0,0,1,0-.49s0,.16,0,.49,0,.81,0,1.43c0,1.27,0,3.13,0,5.51,0,4.8,0,11.71,0,20.26,0,17.11-.11,40.75-.27,66.87s-.29,49.73-.39,66.85c0,8.54-.08,15.46-.1,20.26,0,2.38,0,4.24,0,5.51,0,.62,0,1.1,0,1.44S590.82,336.15,590.82,336.15Z" style="fill:#e0e0e0"></path><path d="M616.49,130.34c0,.11-75.35.2-168.28.2s-168.29-.09-168.29-.2,75.33-.2,168.29-.2S616.49,130.23,616.49,130.34Z" style="fill:#e0e0e0"></path><path d="M602.77,138.72c0,.11-68.82.2-153.71.2s-153.73-.09-153.73-.2,68.82-.2,153.73-.2S602.77,138.61,602.77,138.72Z" style="fill:#e0e0e0"></path><path d="M586.53,149.35c0,.11-62.64.2-139.88.2s-139.89-.09-139.89-.2,62.62-.2,139.89-.2S586.53,149.24,586.53,149.35Z" style="fill:#e0e0e0"></path><path d="M304.67,117.29s.2.19.57.58l1.63,1.7c1.42,1.52,3.51,3.73,6.17,6.56L335.42,150l.05,0v.07c0,18.88,0,42.87,0,68.89,0,31.42-.05,59.86-.06,80.46,0,10.29-.05,18.62-.07,24.39,0,2.87,0,5.1,0,6.63,0,.75,0,1.32,0,1.72s0,.59,0,.59,0-.2,0-.59,0-1,0-1.72c0-1.53,0-3.76,0-6.63,0-5.77,0-14.1-.07-24.39,0-20.6,0-49-.05-80.46,0-26,0-50,0-68.89l0,.11-22.28-24-6.11-6.61-1.59-1.74Z" style="fill:#e0e0e0"></path><path d="M339.17,117.29s.11.19.29.56l.8,1.64,3.05,6.32,11.11,23.27,0,0v0c0,19.21,0,45.18.05,73.7,0,30.09,0,57.33-.06,77.06,0,9.85-.05,17.83-.06,23.35,0,2.75,0,4.89,0,6.35,0,.72,0,1.27,0,1.65s0,.57,0,.57,0-.19,0-.57,0-.93,0-1.65c0-1.46,0-3.6,0-6.35,0-5.52,0-13.5-.06-23.35,0-19.73,0-47-.06-77.06,0-28.52,0-54.49.05-73.7l0,.06-11-23.33c-1.29-2.75-2.29-4.89-3-6.36l-.77-1.65C339.25,117.49,339.17,117.29,339.17,117.29Z" style="fill:#e0e0e0"></path><path d="M365.67,116.63s.06.18.16.55.23.92.41,1.63c.36,1.44.88,3.55,1.55,6.27,1.33,5.46,3.25,13.34,5.63,23.07v0h0c0,19.33,0,45.86.06,75.11,0,29.71-.05,56.59-.06,76.07,0,9.73-.05,17.6-.06,23.05,0,2.72,0,4.82,0,6.27,0,.71,0,1.25,0,1.63s0,.56,0,.56,0-.19,0-.56,0-.92,0-1.63c0-1.45,0-3.55,0-6.27,0-5.45,0-13.32-.06-23.05,0-19.48,0-46.36-.06-76.07,0-29.25,0-55.78.05-75.11v0l-5.5-23.11-1.48-6.28c-.16-.71-.29-1.26-.37-1.64Z" style="fill:#e0e0e0"></path><path d="M388.34,116.63s0,.2.09.59.13,1,.22,1.73c.19,1.53.47,3.77.82,6.65.7,5.8,1.7,14.16,2.94,24.49h0c0,19.27,0,45.55,0,74.48,0,29.88,0,56.92-.06,76.51,0,9.78,0,17.7-.06,23.19,0,2.73,0,4.85,0,6.3,0,.71,0,1.26,0,1.64s0,.56,0,.56,0-.19,0-.56,0-.93,0-1.64c0-1.45,0-3.57,0-6.3,0-5.49,0-13.41-.06-23.19,0-19.59,0-46.63-.06-76.51,0-28.93,0-55.21.06-74.48h0c-1.18-10.33-2.14-18.7-2.81-24.5l-.74-6.66q-.12-1.14-.18-1.74C388.35,116.83,388.34,116.63,388.34,116.63Z" style="fill:#e0e0e0"></path><path d="M409.69,118.47s0,.19,0,.55.06.92.1,1.63c.08,1.44.2,3.54.35,6.24.28,5.43.69,13.27,1.19,23,0,19.42.05,46.22.08,75.83s-.05,56.43-.06,75.85c0,9.7-.05,17.54-.06,23,0,2.71,0,4.81,0,6.25,0,.71,0,1.25,0,1.63s0,.55,0,.55,0-.19,0-.55,0-.92,0-1.63c0-1.44,0-3.54,0-6.25,0-5.44,0-13.28-.06-23,0-19.42,0-46.23-.06-75.84s0-56.42,0-75.84c-.45-9.68-.82-17.52-1.07-23-.11-2.7-.2-4.8-.27-6.24q0-1.05-.06-1.62C409.68,118.66,409.69,118.47,409.69,118.47Z" style="fill:#e0e0e0"></path><path d="M430.23,118.47c.11,0,.2,48.59.2,108.51s-.09,108.51-.2,108.51S430,286.92,430,227,430.12,118.47,430.23,118.47Z" style="fill:#e0e0e0"></path><path d="M449.22,118.47c.11,0,.2,48.59.2,108.51s-.09,108.51-.2,108.51S449,286.92,449,227,449.11,118.47,449.22,118.47Z" style="fill:#e0e0e0"></path><path d="M469.35,118.47c.11,0-.06,48.59-.37,108.51s-.66,108.52-.78,108.52.06-48.58.37-108.52S469.24,118.47,469.35,118.47Z" style="fill:#e0e0e0"></path><path d="M493.54,118.47l-.06.56c-.05.39-.13.93-.22,1.64-.21,1.46-.51,3.58-.89,6.3-.8,5.48-1.94,13.39-3.35,23.16v0c0,19.52,0,46.43.06,76.13s-.05,56.87-.06,76.45c0,9.77,0,17.68-.06,23.17,0,2.72,0,4.84,0,6.3,0,.71,0,1.25,0,1.63s0,.56,0,.56,0-.19,0-.56,0-.92,0-1.63c0-1.46,0-3.58,0-6.3,0-5.49,0-13.4-.06-23.17,0-19.58,0-46.6-.06-76.45s0-56.61.06-76.13h0c1.46-9.76,2.65-17.67,3.47-23.14.42-2.72.74-4.84,1-6.29.11-.71.2-1.25.26-1.63S493.54,118.47,493.54,118.47Z" style="fill:#e0e0e0"></path><path d="M519.38,118.47s-.07.21-.22.6l-.66,1.72-2.59,6.63c-2.28,5.76-5.55,14.06-9.6,24.3v-.05c0,19.2,0,45.07.06,73.47,0,30.16-.05,57.46-.06,77.23,0,9.87-.05,17.86-.07,23.4,0,2.75,0,4.9,0,6.36,0,.72,0,1.27,0,1.66s0,.56,0,.56,0-.19,0-.56,0-.94,0-1.66c0-1.46,0-3.61,0-6.36,0-5.54,0-13.53-.07-23.4,0-19.77,0-47.07-.06-77.23,0-28.4,0-54.27.06-73.47v-.06l9.71-24.25c1.16-2.86,2-5.08,2.67-6.6l.7-1.71C519.28,118.67,519.38,118.47,519.38,118.47Z" style="fill:#e0e0e0"></path><path d="M539.81,118.47s-.07.19-.24.55l-.74,1.6L536,126.74l-10.66,22.47,0-.06c0,19.26,0,45.48.05,74.34,0,29.91,0,57-.06,76.61,0,9.79,0,17.72-.06,23.21,0,2.74,0,4.86,0,6.32,0,.71,0,1.26,0,1.64s0,.56,0,.56,0-.19,0-.56,0-.93,0-1.64c0-1.46,0-3.58,0-6.32,0-5.49,0-13.42-.06-23.21,0-19.62,0-46.7-.06-76.61,0-28.86,0-55.08.06-74.34v-.07c4.54-9.45,8.22-17.11,10.78-22.41l3-6.09.77-1.58Z" style="fill:#e0e0e0"></path><path d="M563.13,118.47s-.1.2-.32.57l-1,1.66c-.87,1.45-2.13,3.58-3.75,6.32l-13.83,23.16,0-.07c0,19.15,0,44.79.05,72.89,0,30.31-.05,57.76-.06,77.63,0,9.93,0,18-.07,23.53,0,2.77,0,4.92,0,6.4,0,.72,0,1.28,0,1.66s0,.57,0,.57,0-.19,0-.57,0-.94,0-1.66c0-1.48,0-3.63,0-6.4,0-5.57,0-13.6-.07-23.53,0-19.87,0-47.32,0-77.63,0-28.1,0-53.74,0-72.89v0l0,0L558,126.93l3.81-6.28,1-1.63Z" style="fill:#e0e0e0"></path><path d="M592.66,118.47s-.17.2-.51.57l-1.53,1.61-5.88,6.17-21.5,22.43,0-.1c0,18.95,0,43.42,0,70,0,31.11,0,59.26-.06,79.65,0,10.18,0,18.43-.06,24.14,0,2.84,0,5,0,6.56,0,.74,0,1.31,0,1.71s0,.58,0,.58,0-.2,0-.58,0-1,0-1.71c0-1.51,0-3.72,0-6.56,0-5.71,0-14-.06-24.14,0-20.39,0-48.54-.06-79.65,0-26.62,0-51.09,0-70v-.07l0,0,21.59-22.34,5.94-6.11,1.56-1.59Z" style="fill:#e0e0e0"></path><path d="M576.89,164.71c0,.11-58,.2-129.54.2s-129.57-.09-129.57-.2,58-.2,129.57-.2S576.89,164.6,576.89,164.71Z" style="fill:#e0e0e0"></path><path d="M576.89,181.23c0,.11-58,.2-129.54.2s-129.57-.09-129.57-.2,58-.2,129.57-.2S576.89,181.12,576.89,181.23Z" style="fill:#e0e0e0"></path><path d="M576.89,197.75c0,.12-58,.21-129.54.21s-129.57-.09-129.57-.21,58-.2,129.57-.2S576.89,197.64,576.89,197.75Z" style="fill:#e0e0e0"></path><path d="M576.89,214.28c0,.11-58,.2-129.54.2s-129.57-.09-129.57-.2,58-.2,129.57-.2S576.89,214.17,576.89,214.28Z" style="fill:#e0e0e0"></path><path d="M576.89,230.8c0,.11-58,.2-129.54.2s-129.57-.09-129.57-.2,58-.2,129.57-.2S576.89,230.69,576.89,230.8Z" style="fill:#e0e0e0"></path><path d="M576.89,247.32c0,.12-58,.21-129.54.21s-129.57-.09-129.57-.21,58-.2,129.57-.2S576.89,247.21,576.89,247.32Z" style="fill:#e0e0e0"></path><path d="M576.89,263.85c0,.11-58,.2-129.54.2s-129.57-.09-129.57-.2,58-.2,129.57-.2S576.89,263.74,576.89,263.85Z" style="fill:#e0e0e0"></path><path d="M576.89,280.37c0,.11-58,.2-129.54.2s-129.57-.09-129.57-.2,58-.2,129.57-.2S576.89,280.26,576.89,280.37Z" style="fill:#e0e0e0"></path><path d="M576.89,296.89c0,.12-58,.21-129.54.21s-129.57-.09-129.57-.21,58-.2,129.57-.2S576.89,296.78,576.89,296.89Z" style="fill:#e0e0e0"></path><path d="M576.89,313.42c0,.11-58,.2-129.54.2s-129.57-.09-129.57-.2,58-.2,129.57-.2S576.89,313.31,576.89,313.42Z" style="fill:#e0e0e0"></path><path d="M576.89,329.94c0,.11-58,.2-129.54.2s-129.57-.09-129.57-.2,58-.2,129.57-.2S576.89,329.83,576.89,329.94Z" style="fill:#e0e0e0"></path><path d="M85,358.39c.08,0-.06,1.21-.14,3.15a46.29,46.29,0,0,0,1.79,15c.53,1.87.95,3,.87,3a3,3,0,0,1-.39-.76c-.23-.5-.52-1.24-.84-2.17a37.77,37.77,0,0,1-1.8-15.12,22.92,22.92,0,0,1,.3-2.3A2.58,2.58,0,0,1,85,358.39Z" style="fill:#e0e0e0"></path><path d="M96.13,362.35a21.63,21.63,0,0,1-1,2.55,47.35,47.35,0,0,0-2.14,6.25,48.11,48.11,0,0,0-1.24,6.49,22,22,0,0,1-.36,2.73,11.46,11.46,0,0,1,0-2.77,35.5,35.5,0,0,1,1.1-6.59,36,36,0,0,1,2.32-6.26A11.47,11.47,0,0,1,96.13,362.35Z" style="fill:#e0e0e0"></path><path d="M675.57,309.86a31.85,31.85,0,0,1,0,3.26,63.36,63.36,0,0,0,1.66,15.53,29.46,29.46,0,0,1,.71,3.18,3,3,0,0,1-.35-.81c-.2-.53-.44-1.3-.72-2.28a48.71,48.71,0,0,1-1.67-15.63c.06-1,.14-1.82.22-2.38A2.64,2.64,0,0,1,675.57,309.86Z" style="fill:#e0e0e0"></path><path d="M685.06,313a27.53,27.53,0,0,1-1,2.77,38.57,38.57,0,0,0-2.46,13.88c0,1.82.11,2.94,0,2.95a11.34,11.34,0,0,1-.39-2.94,31.36,31.36,0,0,1,.44-7.15,31.78,31.78,0,0,1,2-6.88A11.76,11.76,0,0,1,685.06,313Z" style="fill:#e0e0e0"></path><path d="M699.89,307.51c.06.06-.87,1.19-2.23,3.14a56.34,56.34,0,0,0-4.62,8,55.26,55.26,0,0,0-3.16,8.68c-.62,2.28-.89,3.73-1,3.72a4.46,4.46,0,0,1,.09-1c.09-.66.27-1.61.53-2.77a45.29,45.29,0,0,1,7.84-16.81c.73-.95,1.34-1.7,1.79-2.19A4.12,4.12,0,0,1,699.89,307.51Z" style="fill:#e0e0e0"></path><path d="M89.18,75H197.71s-9.59-17.46-37.53-14.92c-26.68,2.43-28-8.59-41.6-10S93.71,59.18,89.18,75Z" style="fill:#f5f5f5"></path><path d="M605.6,55.82h82.19s-7.27-13.23-28.42-11.31C639.16,46.35,638.14,38,627.86,37S609,43.83,605.6,55.82Z" style="fill:#ebebeb"></path><path d="M31.21,109.21h59S85,99.71,69.82,101.1c-14.51,1.32-15.25-4.68-22.63-5.41S33.67,100.6,31.21,109.21Z" style="fill:#f5f5f5"></path><path d="M123.51,326.82c8.32-6,10-17,9.55-26.8-.08-1.63.07-3.37-.74-4.79s-2.64-2.38-4.09-1.66c-1.21.59-1.72,2-2.38,3.2a9.64,9.64,0,0,1-3.78,3.74,3.65,3.65,0,0,1-3.36.36c-1.43-.76-1.63-2.71-1.65-4.34l-.09-9.11a15.41,15.41,0,0,0-.58-4.84,5,5,0,0,0-3.24-3.36,3.07,3.07,0,0,0-3.76,2.12,17.18,17.18,0,0,0,0,2,1.7,1.7,0,0,1-1,1.63,2,2,0,0,1-1.81-.72,21.52,21.52,0,0,1-4-5.81,29.84,29.84,0,0,0-3.73-6,8.84,8.84,0,0,0-6-3.25,5.29,5.29,0,0,0-5.35,3.7c-.55,2.31.83,4.62,2.32,6.45a36.26,36.26,0,0,0,7.7,7.09,3,3,0,0,1,1.29,1.34c.37,1.09-.64,2.18-1.71,2.56a19.19,19.19,0,0,1-3.8.49,3.67,3.67,0,0,0-3.09,2c-.64,1.67.78,3.4,2.17,4.52a31.09,31.09,0,0,0,9.32,5.16,10.69,10.69,0,0,1,3.45,1.61,3,3,0,0,1,1,3.44,3.07,3.07,0,0,1-3.32,1.34,21.85,21.85,0,0,1-3.6-1.3c-2.25-.81-5.14-.61-6.55,1.35a5.19,5.19,0,0,0-.47,4.58,12.23,12.23,0,0,0,2.54,4,31.39,31.39,0,0,0,13.55,9.18c5.22,1.71,10,2.12,15.18.14" style="fill:#ebebeb"></path><path d="M123.76,334.1a71.45,71.45,0,0,0-2.89-13.39,144.42,144.42,0,0,0-6.07-15.63c-.6-1.35-1.2-2.69-1.8-4s-1.18-2.62-1.83-3.87a72.26,72.26,0,0,0-4.18-6.91c-1.43-2.14-2.87-4.11-4.23-6s-2.66-3.52-3.91-5a57.2,57.2,0,0,0-6.43-6.57c-.82-.71-1.47-1.25-1.91-1.6l-.51-.4-.19-.13.17.15.49.43c.43.37,1.07.91,1.87,1.64a59.76,59.76,0,0,1,6.34,6.61c1.24,1.49,2.53,3.18,3.88,5s2.78,3.82,4.21,5.95a76.76,76.76,0,0,1,4.14,6.9c.65,1.24,1.23,2.53,1.82,3.85l1.8,4a149.09,149.09,0,0,1,6.08,15.58,72.22,72.22,0,0,1,2.94,13.33" style="fill:#e0e0e0"></path><path d="M111.08,297.19a3.24,3.24,0,0,0,.15-.69c.08-.46.17-1.11.27-1.93.2-1.62.4-3.88.62-6.37s.45-4.74.68-6.36c.11-.81.2-1.46.28-1.91a2.37,2.37,0,0,0,.07-.71,3.68,3.68,0,0,0-.19.69c-.11.44-.24,1.09-.37,1.9-.29,1.62-.55,3.87-.77,6.36s-.39,4.68-.53,6.38c-.07.77-.13,1.41-.18,1.93A3.18,3.18,0,0,0,111.08,297.19Z" style="fill:#e0e0e0"></path><path d="M90.05,293.63a3.87,3.87,0,0,0,.84.09c.54,0,1.32.09,2.28.19,1.92.17,4.57.5,7.48,1s5.51,1.07,7.39,1.53c.94.23,1.7.43,2.22.57a3.89,3.89,0,0,0,.82.18,4.7,4.7,0,0,0-.79-.3c-.51-.17-1.26-.4-2.2-.66-1.87-.51-4.48-1.12-7.39-1.62a73.58,73.58,0,0,0-7.51-.92c-1-.07-1.75-.09-2.29-.09A4.79,4.79,0,0,0,90.05,293.63Z" style="fill:#e0e0e0"></path><path d="M120.61,320.33a2.21,2.21,0,0,0,.14-.26c.09-.21.2-.46.34-.76.3-.67.7-1.64,1.19-2.85,1-2.42,2.2-5.8,3.52-9.55.65-4.57,2.4-7.29,3.43-9.58.45-1.18.82-2.16,1.1-2.88.11-.32.21-.57.29-.79a1.07,1.07,0,0,0,.08-.28,2.21,2.21,0,0,0-.14.26c-.09.21-.2.46-.34.76-.3.67-.7,1.64-1.19,2.85-1,2.42-2.2,5.8-3.52,9.55s-2.51,7.14-3.43,9.58c-.45,1.18-.82,2.16-1.1,2.88-.11.32-.21.57-.29.79A1.07,1.07,0,0,0,120.61,320.33Z" style="fill:#e0e0e0"></path><path d="M92.6,311.83l.28.11.81.25,3,.92c2.54.77,6,1.88,9.87,3.11s7.35,2.31,9.9,3c1.27.36,2.31.65,3,.83l.83.2a.15.15,0,1,0,0-.06l-.81-.26-3-.91c-2.54-.78-6-1.89-9.87-3.12s-7.35-2.3-9.9-3c-1.27-.36-2.31-.64-3-.82l-.83-.2A.83.83,0,0,0,92.6,311.83Z" style="fill:#e0e0e0"></path></g><g id="freepik--Floor--inject-33"><path d="M707.39,449.14c0,.14-146.7.26-327.64.26s-327.67-.12-327.67-.26,146.68-.26,327.67-.26S707.39,449,707.39,449.14Z" style="fill:#263238"></path><path d="M597.49,412.26a9.89,9.89,0,0,1-1.25,1.15c-.42.35-.92.78-1.47,1.33s-1.23,1.11-1.88,1.83-1.42,1.46-2.16,2.34-1.5,1.82-2.29,2.83a51.72,51.72,0,0,0-7.77,14.71c-.39,1.23-.78,2.39-1,3.5s-.52,2.14-.72,3.1-.32,1.82-.45,2.58-.21,1.42-.26,2a11.66,11.66,0,0,1-.24,1.68,10,10,0,0,1,0-1.7c0-.55.07-1.22.17-2s.18-1.65.38-2.61.37-2,.67-3.14.62-2.3,1-3.54a55.3,55.3,0,0,1,3.29-7.76,54.51,54.51,0,0,1,4.55-7.09c.82-1,1.57-2,2.36-2.83s1.51-1.63,2.22-2.31,1.36-1.27,1.94-1.79,1.1-.94,1.54-1.27A11.34,11.34,0,0,1,597.49,412.26Z" style="fill:#263238"></path><path d="M572.94,427.35a14.09,14.09,0,0,1,1.1,2.91,42.47,42.47,0,0,1,1.56,7.35,43.28,43.28,0,0,1,.28,7.52,13.85,13.85,0,0,1-.36,3.09,26.31,26.31,0,0,1,0-3.1,56.25,56.25,0,0,0-1.82-14.76A27.06,27.06,0,0,1,572.94,427.35Z" style="fill:#263238"></path><path d="M566.68,435.05a7.8,7.8,0,0,1,1.65,1.65,21.27,21.27,0,0,1,2.95,4.82,20.73,20.73,0,0,1,1.55,5.42,7,7,0,0,1,.1,2.34,37,37,0,0,0-2.13-7.55A38,38,0,0,0,566.68,435.05Z" style="fill:#263238"></path><path d="M90.39,410.32a8.64,8.64,0,0,1,1,1.27c.59.83,1.39,2.07,2.32,3.64a75.2,75.2,0,0,1,6,12.92A74.78,74.78,0,0,1,103.06,442c.25,1.81.41,3.28.47,4.29a8.35,8.35,0,0,1,0,1.59,9.3,9.3,0,0,1-.25-1.56c-.12-1-.33-2.47-.64-4.26a84.08,84.08,0,0,0-3.54-13.71,84.59,84.59,0,0,0-5.81-12.9c-.89-1.59-1.63-2.86-2.17-3.72A9.32,9.32,0,0,1,90.39,410.32Z" style="fill:#263238"></path><path d="M109,426.62a22.71,22.71,0,0,1-.13,3.22c-.11,2-.23,4.73-.22,7.75s.16,5.77.3,7.75a24.42,24.42,0,0,1,.16,3.22,17.11,17.11,0,0,1-.53-3.18,74.11,74.11,0,0,1-.08-15.57A16.34,16.34,0,0,1,109,426.62Z" style="fill:#263238"></path><path d="M119.1,428.09a24.42,24.42,0,0,1-1.12,3c-.73,1.84-1.69,4.4-2.62,7.27s-1.63,5.5-2.12,7.42a22.89,22.89,0,0,1-.84,3.1,17.24,17.24,0,0,1,.48-3.18,72.63,72.63,0,0,1,2-7.5,70.35,70.35,0,0,1,2.77-7.25A16.08,16.08,0,0,1,119.1,428.09Z" style="fill:#263238"></path><path d="M85,434.64a2.77,2.77,0,0,1,.89.18,14.29,14.29,0,0,1,2.33.84,19.59,19.59,0,0,1,3.21,1.8,23.21,23.21,0,0,1,3.42,3,22.92,22.92,0,0,1,2.71,3.6,20,20,0,0,1,1.59,3.32,14.54,14.54,0,0,1,.69,2.38,2.87,2.87,0,0,1,.12.9c-.09,0-.36-1.24-1.15-3.14a22.56,22.56,0,0,0-1.66-3.21,25.25,25.25,0,0,0-2.69-3.5,24.11,24.11,0,0,0-3.31-2.9A21.93,21.93,0,0,0,88,436C86.19,435.08,84.94,434.73,85,434.64Z" style="fill:#263238"></path></g><g id="freepik--Character--inject-33"><path d="M297.63,320.65c3.44,1.88,48.39,47.52,48.39,47.52l35,70.15,15-5L373.89,359.9a34.41,34.41,0,0,0-8.67-14.48l-44-43.87Z" style="fill:#ffbe9d"></path><path d="M350.39,376.93l25.31-11.77,23.26,75-16.45,5S351.65,379.45,350.39,376.93Z" style="fill:#CA2537"></path><path d="M356.57,381.05a9.25,9.25,0,0,1-1.4-2.72,9.06,9.06,0,0,1-.93-2.92,9.58,9.58,0,0,1,1.41,2.72A9.34,9.34,0,0,1,356.57,381.05Z" style="fill:#263238"></path><path d="M363.59,377.79a8.37,8.37,0,0,1-1.67-2.78,8.52,8.52,0,0,1-1-3.09,13,13,0,0,1,1.47,2.87A13.9,13.9,0,0,1,363.59,377.79Z" style="fill:#263238"></path><path d="M371.7,374.58a21.38,21.38,0,0,1-2.47-6.21,10.45,10.45,0,0,1,1.48,3A11.08,11.08,0,0,1,371.7,374.58Z" style="fill:#263238"></path><polygon points="356.08 388.34 379.72 377.79 380.43 380.01 357.33 390.84 356.08 388.34" style="fill:#fafafa"></polygon><path d="M398.52,438.57c-5.71,2.3-11,4.41-16.69,5.08l2.23,5.77,1-.33c4.6-1.51,23.32-8,26-10.1,3-2.33-12.55-.42-12.55-.42" style="fill:#455a64"></path><path d="M383.68,449.14l.29-.08.83-.27,3-1c2.55-.89,6-2.16,9.88-3.65s7.27-2.92,9.75-4l2.92-1.28.79-.37a1.16,1.16,0,0,0,.27-.14l-.29.1-.8.33L407.39,440c-2.49,1-5.94,2.43-9.77,3.92s-7.32,2.78-9.85,3.71l-3,1.09L384,449Z" style="fill:#263238"></path><path d="M387.91,442.4s1.67.59,3.75,1.22,3.78,1.12,3.79,1.07-1.66-.59-3.74-1.23S387.92,442.35,387.91,442.4Z" style="fill:#fafafa"></path><path d="M390.81,441.38s1.55.61,3.5,1.26,3.55,1.14,3.56,1.1-1.55-.61-3.5-1.26S390.82,441.34,390.81,441.38Z" style="fill:#fafafa"></path><path d="M403.36,440.17a4.63,4.63,0,0,1-.08-1.1,5.17,5.17,0,0,1,.31-1.05,1.47,1.47,0,0,0-.48,1A1.43,1.43,0,0,0,403.36,440.17Z" style="fill:#263238"></path><path d="M405.07,439.88a7.13,7.13,0,0,1-.13-1,4.1,4.1,0,0,1,.26-1,1.21,1.21,0,0,0-.43.95A1.35,1.35,0,0,0,405.07,439.88Z" style="fill:#263238"></path><path d="M401.65,440.44a5.07,5.07,0,0,1-.09-1.18,5.58,5.58,0,0,1,.32-1.13,1.69,1.69,0,0,0-.48,1.12A1.62,1.62,0,0,0,401.65,440.44Z" style="fill:#263238"></path><path d="M401.06,438.32a1.46,1.46,0,0,0,.27-.2,7.26,7.26,0,0,0,.67-.61,3.14,3.14,0,0,0,.71-1.15,2,2,0,0,0,.09-.82.93.93,0,0,0-.46-.76.59.59,0,0,0-.73.24,1.93,1.93,0,0,0-.29.64,5.12,5.12,0,0,0-.24,1.19,4.74,4.74,0,0,0,.07,1.47v.06l0-.06c0-.09.05-.13,0-.13a.6.6,0,0,0-.08.12h0a7.05,7.05,0,0,1,0-1.45,5.5,5.5,0,0,1,.26-1.15,1.76,1.76,0,0,1,.27-.59.44.44,0,0,1,.53-.19c.46.27.43.95.29,1.38a3.09,3.09,0,0,1-.65,1.12C401.41,438,401,438.29,401.06,438.32Z" style="fill:#263238"></path><path d="M401.12,438.16a.82.82,0,0,0-.06-.26,3.54,3.54,0,0,0-.28-.69,4.6,4.6,0,0,0-.62-.91,2.9,2.9,0,0,0-.47-.45.53.53,0,0,0-.73,0,.63.63,0,0,0,0,.74,3.59,3.59,0,0,0,.38.53,4.82,4.82,0,0,0,.83.73,3.61,3.61,0,0,0,.65.35.61.61,0,0,0,.26.08,8.88,8.88,0,0,1-.84-.53,4.32,4.32,0,0,1-.78-.73c-.23-.29-.61-.72-.35-1.06.12-.15.35-.1.52,0a3.05,3.05,0,0,1,.45.43,5.16,5.16,0,0,1,.63.86C401,437.8,401.09,438.17,401.12,438.16Z" style="fill:#263238"></path><path d="M385.27,443.09a8.3,8.3,0,0,0,1.06.46l2.56,1c1,.39,1.92.74,2.59,1l.79.27a1,1,0,0,0,.3.07,7.87,7.87,0,0,0-1.05-.45l-2.57-1c-1-.4-1.92-.74-2.58-1l-.8-.27A1.19,1.19,0,0,0,385.27,443.09Z" style="fill:#fafafa"></path><path d="M286.75,315.67s-52.26,52.15-59.15,51.52-70.89-38.74-70.89-38.74l9.17-13.78,56,25.2L262,296.65Z" style="fill:#ffbe9d"></path><path d="M223.79,350.12a15,15,0,0,1-2-10.28c.16,0,0,2.38.6,5.22S223.93,350.06,223.79,350.12Z" style="fill:#eb996e"></path><path d="M226.87,348.77a17.68,17.68,0,0,1-4.58-9.34c.15,0,.79,2.22,2.06,4.79S227,348.68,226.87,348.77Z" style="fill:#eb996e"></path><polygon points="200.36 354.68 211.1 335.04 165.88 314.67 156.1 329.37 200.36 354.68" style="fill:#CA2537"></polygon><polygon points="203.57 331.65 192.9 350.85 191.46 350.03 201.88 330.88 203.57 331.65" style="fill:#fafafa"></polygon><path d="M202.4,350.85a20.74,20.74,0,0,1-5.79-3,10.1,10.1,0,0,1,3,1.26A10.28,10.28,0,0,1,202.4,350.85Z" style="fill:#263238"></path><path d="M205.37,345.57a10.29,10.29,0,0,1-3.06-1,10.56,10.56,0,0,1-2.86-1.48,19.94,19.94,0,0,1,5.92,2.48Z" style="fill:#263238"></path><path d="M208.08,340.18a12.86,12.86,0,0,1-2.7-1.09,11.63,11.63,0,0,1-2.62-1.26,6.54,6.54,0,0,1,2.83.79A6.32,6.32,0,0,1,208.08,340.18Z" style="fill:#263238"></path><path d="M157.05,329.35c2.78-5.49,5.37-10.56,9.22-14.81l-5.48-2.88-.56.93C157.75,316.76,148,334,147.32,337.3c-.69,3.71,9.73-7.95,9.73-7.95" style="fill:#455a64"></path><path d="M161.26,311.63s-.06.08-.17.25l-.44.74-1.6,2.77c-1.33,2.34-3.12,5.6-5,9.25s-3.55,7-4.71,9.42L148,337c-.13.29-.25.55-.35.79a1.27,1.27,0,0,0-.11.28s.06-.09.15-.26.24-.49.39-.78c.38-.78.86-1.73,1.41-2.86,1.2-2.41,2.87-5.74,4.77-9.38s3.68-6.92,5-9.28l1.54-2.8.41-.76A1.39,1.39,0,0,0,161.26,311.63Z" style="fill:#263238"></path><path d="M162.52,319.48s-1.65.65-3.63,1.55-3.58,1.65-3.56,1.69,1.64-.65,3.63-1.54S162.53,319.52,162.52,319.48Z" style="fill:#fafafa"></path><path d="M161,322.15s-1.57.57-3.47,1.37-3.42,1.47-3.4,1.51a36.9,36.9,0,0,0,3.46-1.36C159.5,322.88,161,322.2,161,322.15Z" style="fill:#fafafa"></path><path d="M152.36,331.33a5,5,0,0,1,.78.77,4.65,4.65,0,0,1,.46,1,1.79,1.79,0,0,0-1.24-1.78Z" style="fill:#263238"></path><path d="M151.26,332.67c0,.05.4.24.75.66a4.28,4.28,0,0,1,.43.89,1.23,1.23,0,0,0-.3-1A1.45,1.45,0,0,0,151.26,332.67Z" style="fill:#263238"></path><path d="M153.47,330a6.12,6.12,0,0,1,.83.83,5.36,5.36,0,0,1,.51,1.06,2,2,0,0,0-1.34-1.89Z" style="fill:#263238"></path><path d="M155.31,331.21a1.29,1.29,0,0,0-.08.32c0,.21-.08.52-.1.91a3.06,3.06,0,0,0,.23,1.33,2,2,0,0,0,.46.68,1,1,0,0,0,.86.27.6.6,0,0,0,.38-.66,2.07,2.07,0,0,0-.19-.68,5.7,5.7,0,0,0-.61-1.05,4.65,4.65,0,0,0-1-1.06l-.05,0,0,.06a1.11,1.11,0,0,0,0,.13s0,0,0-.14l0,0a6,6,0,0,1,1.51,2.14,2,2,0,0,1,.18.63.44.44,0,0,1-.27.49c-.52.1-.95-.43-1.13-.85a3.08,3.08,0,0,1-.25-1.27C155.26,331.68,155.34,331.21,155.31,331.21Z" style="fill:#263238"></path><path d="M155.36,331.37a.83.83,0,0,0,.22.16,4,4,0,0,0,.66.33,4.48,4.48,0,0,0,1.07.28,3.48,3.48,0,0,0,.66,0c.21,0,.55-.16.55-.48a.66.66,0,0,0-.47-.58,3.93,3.93,0,0,0-.64-.15,4.48,4.48,0,0,0-1.1,0,4.2,4.2,0,0,0-.72.16.85.85,0,0,0-.25.11s.37-.1,1-.15a4,4,0,0,1,1.07,0c.36.07.93.13,1,.57,0,.19-.2.3-.4.32a4.19,4.19,0,0,1-.62,0,5.27,5.27,0,0,1-1.05-.24C155.7,331.55,155.38,331.34,155.36,331.37Z" style="fill:#263238"></path><path d="M164,317.22a9.49,9.49,0,0,0-1.09.35l-2.6.93c-1,.36-1.93.7-2.59,1l-.77.32-.28.14a8.82,8.82,0,0,0,1.09-.35l2.61-.93c1-.36,1.93-.7,2.58-1l.78-.32C164,317.28,164.05,317.23,164,317.22Z" style="fill:#fafafa"></path><path d="M228.72,329.24l33.12-42.64,58.57,4.07,32.26,37.21s-17,18.35-29.2,21.29l-35.34-27.63s-28.9,32.65-28.28,31.71S238.11,350.54,228.72,329.24Z" style="fill:#263238"></path><path d="M265.9,292a2.68,2.68,0,0,1-.29.46l-.92,1.25c-.8,1.08-2,2.63-3.47,4.52-3,3.79-7.18,8.95-12,14.51s-9.33,10.45-12.66,13.93c-1.66,1.74-3,3.13-4,4.08l-1.11,1.08a2.47,2.47,0,0,1-.41.36s.1-.16.33-.43l1-1.15,3.86-4.19c3.26-3.55,7.73-8.47,12.54-14s9-10.67,12.1-14.4l3.6-4.41,1-1.2A2.21,2.21,0,0,1,265.9,292Z" style="fill:#fafafa"></path><path d="M270.38,293.11a2,2,0,0,1-.31.49l-1,1.33c-.86,1.15-2.15,2.8-3.76,4.81-3.22,4-7.79,9.52-13,15.39s-10.19,11-13.84,14.67c-1.82,1.82-3.31,3.28-4.36,4.27l-1.22,1.14a2.48,2.48,0,0,1-.45.37,2.34,2.34,0,0,1,.38-.45l1.14-1.2,4.25-4.39c3.58-3.72,8.47-8.9,13.72-14.76s9.84-11.3,13.13-15.27l3.9-4.71,1.06-1.27A2.57,2.57,0,0,1,270.38,293.11Z" style="fill:#fafafa"></path><path d="M293,298.2a3.51,3.51,0,0,1,.08,1c0,.63,0,1.54,0,2.67,0,2.25-.21,5.36-.54,8.78-.16,1.72-.33,3.34-.54,4.83a11,11,0,0,1-1.19,3.82,5.83,5.83,0,0,1-1.81,2,2.17,2.17,0,0,1-.9.41,6.76,6.76,0,0,0,2.39-2.6c1.06-2,1.17-5.12,1.54-8.52s.54-6.52.69-8.76A31.46,31.46,0,0,1,293,298.2Z" style="fill:#455a64"></path><path d="M351,328.92c-.11.09-7.67-8.43-16.88-19s-16.59-19.29-16.48-19.38,7.66,8.43,16.88,19S351.06,328.83,351,328.92Z" style="fill:#fafafa"></path><path d="M249.79,221.92l-9.54-22-35.91,22.82a20.69,20.69,0,0,0-8.29,10.2c-3.6,9.55-10.3,27.41-14.23,38.22h0l-2.65,5.53A97.85,97.85,0,0,0,174.94,288c-1.2,4.88-.71,5,0,5.12,1.79.23,2.48-8.47,3.54-6.41s-2.22,10.43-.35,10.61c2.44.23,3-8.91,3.09-9.68s1.35-.53,1.21.15c-.2,1-2,11.36.37,11.61,1.33.13,1.14-2,1.14-2s.91-9.9,2-9.74.84,6,.58,7.95.66,2.91,1.71,2.39c.72-.35,1.67-6.29,1.88-8.23s.67-7.27,2.83-4.26,5,4.71,6.06,4.72,1.3-1.35.29-2a15.14,15.14,0,0,1-2.73-2.67A9.12,9.12,0,0,1,195,283c-.31-.79-.55-1.49-.76-2.12l-.8-3.88L215,240Z" style="fill:#ffbe9d"></path><path d="M415.92,187.23c.72-2.35,9.42-6.31,8.12-7.84-1.69-2-8.86,4.6-9.51,5.1s-1.43-.59-.82-1c.88-.59,9.94-7.16,8.3-9.12-.91-1.09-2.38.71-2.38.71s-8,6.88-8.76,5.92,3.8-5.19,5.44-6.49,1.65-2.71.47-3.09c-.81-.26-5.93,3.56-7.52,4.89s-5.89,5-5.31,1.16-.33-7.29-1.14-8.08-2,.07-1.69,1.3a16.24,16.24,0,0,1,.12,4.06,9.82,9.82,0,0,1-.7,3.07c-.35.83-.68,1.55-1,2.18l-2.16,3.39-46,19s-31.1-1.65-32.12-1.65l9.6,22.82,25.48.6,47.61-27.39h0l6-2.41a102.78,102.78,0,0,0,11.6-5.52c4.52-2.83,4.26-3.31,3.81-3.87C422.17,183.46,415.21,189.59,415.92,187.23Z" style="fill:#ffbe9d"></path><path d="M317.18,223.15l3.23,66.09s-3.13,3.13-22.55,5.63S258.39,289,258.39,289l.67-30.57-7.63-38.24,2.48-31.48,30.58-5.94,30,6.82" style="fill:#CA2537"></path><path d="M208.71,216.11l14.89,23.53,30.06-13.76s8.93-8.14,8.31-17.22-8.06-20-8.06-20Z" style="fill:#CA2537"></path><polygon points="314.45 189.57 339.3 199.51 339.3 225.87 314.96 223.94 314.45 189.57" style="fill:#CA2537"></polygon><path d="M247.2,218.88c.06.2.13.4.19.59a2.5,2.5,0,1,0,4.82-1.33c-.06-.19-.13-.39-.19-.59a2.55,2.55,0,0,0-3.08-1.74,2.53,2.53,0,0,0-1.74,3.07Z" style="fill:#CA2537"></path><path d="M247.1,228.88a2.63,2.63,0,0,1,.46-.31l1.37-.79c1.19-.69,2.94-1.64,5-2.93a22,22,0,0,0,6.38-5.59,22.56,22.56,0,0,0,4-9.55c1.26-7.35-1.15-14.31-4.41-17.85a8.55,8.55,0,0,0-4.91-2.71,10,10,0,0,0-2.11,0,1.9,1.9,0,0,1,.54-.14,6.13,6.13,0,0,1,1.6,0,8.6,8.6,0,0,1,5.15,2.67,18.22,18.22,0,0,1,4.09,7.61,24,24,0,0,1,.57,10.58,22.79,22.79,0,0,1-4.13,9.74,22,22,0,0,1-6.58,5.63c-2.12,1.26-3.89,2.15-5.11,2.78l-1.42.72A2,2,0,0,1,247.1,228.88Z" style="fill:#263238"></path><path d="M318.84,253.14c-.15,0-1.06-13.81-2-30.86s-1.66-30.89-1.52-30.9,1.06,13.81,2,30.87S319,253.14,318.84,253.14Z" style="fill:#263238"></path><path d="M262.34,289.72a3.48,3.48,0,0,1,0-.68q.08-.75.21-2c.11-.85.22-1.88.32-3.09s.26-2.57.34-4.09c.22-3,.35-6.66.34-10.68s-.22-8.44-.66-13.06-1.14-9-1.87-13-1.6-7.47-2.41-10.41c-.37-1.47-.78-2.78-1.12-3.95s-.64-2.15-.91-3-.44-1.4-.58-1.87a4.73,4.73,0,0,1-.18-.67,3.28,3.28,0,0,1,.27.63c.18.47.4,1.08.68,1.84s.64,1.79,1,2.95.8,2.46,1.2,3.94c.85,2.92,1.71,6.46,2.52,10.41s1.45,8.35,1.92,13,.61,9.08.62,13.11-.18,7.67-.45,10.71c-.11,1.52-.29,2.89-.42,4.09s-.27,2.24-.41,3.08-.23,1.45-.31,1.94A2.59,2.59,0,0,1,262.34,289.72Z" style="fill:#263238"></path><path d="M308.94,252.55a6.77,6.77,0,0,1-.29,1.38,13.6,13.6,0,0,1-.47,1.59c-.22.6-.43,1.31-.78,2a23.43,23.43,0,0,1-1.15,2.4,27.8,27.8,0,0,1-1.56,2.63,35.34,35.34,0,0,1-4.48,5.39,35,35,0,0,1-5.53,4.3c-.93.54-1.8,1.07-2.68,1.47a25.68,25.68,0,0,1-2.44,1.07,19.59,19.59,0,0,1-2.08.7,12,12,0,0,1-1.6.42,8.43,8.43,0,0,1-1.39.25c0-.12,2-.49,4.93-1.72a24.8,24.8,0,0,0,2.39-1.11c.85-.4,1.71-.95,2.62-1.49a34.16,34.16,0,0,0,9.87-9.54c.57-.9,1.14-1.73,1.57-2.57a25,25,0,0,0,1.2-2.35C308.39,254.49,308.83,252.52,308.94,252.55Z" style="fill:#263238"></path><path d="M298.55,186.08a1.6,1.6,0,0,1,.11.49,10.16,10.16,0,0,1,.12,1.42,14.52,14.52,0,0,1-5.35,11.5,13.49,13.49,0,0,1-9,2.86,12.93,12.93,0,0,1-8.68-3.7,13.12,13.12,0,0,1-3.51-6.92,12.2,12.2,0,0,1,.22-5.23,8.2,8.2,0,0,1,.48-1.35c.13-.29.21-.45.23-.44s-.25.64-.52,1.84a12.74,12.74,0,0,0-.05,5.12,13,13,0,0,0,3.48,6.64,12.64,12.64,0,0,0,8.37,3.52,13.14,13.14,0,0,0,8.69-2.72,14.38,14.38,0,0,0,4.45-6.08,15.35,15.35,0,0,0,1-5C298.61,186.76,298.5,186.09,298.55,186.08Z" style="fill:#263238"></path><path d="M259.83,191.21a2.09,2.09,0,0,1-.45.37l-1.35,1c-1.17.83-2.88,2-5,3.45-4.25,2.88-10.17,6.8-16.77,11S223.61,215,219.2,217.59c-2.2,1.31-4,2.37-5.24,3.08l-1.44.81a2.42,2.42,0,0,1-.52.26,2,2,0,0,1,.47-.35l1.39-.89,5.15-3.23c4.35-2.72,10.36-6.48,17-10.69s12.54-8.08,16.84-10.89l5.1-3.31,1.4-.89A3.35,3.35,0,0,1,259.83,191.21Z" style="fill:#fafafa"></path><path d="M262.47,194.65a2.72,2.72,0,0,1-.46.36l-1.37,1c-1.19.82-2.94,2-5.11,3.42-4.35,2.86-10.42,6.7-17.23,10.75s-13.1,7.56-17.68,10c-2.29,1.23-4.15,2.21-5.45,2.86l-1.5.75a2.08,2.08,0,0,1-.54.22,3.21,3.21,0,0,1,.49-.32l1.45-.83,5.37-3c4.54-2.54,10.78-6.08,17.59-10.13s12.91-7.84,17.3-10.62l5.2-3.28,1.43-.88A2,2,0,0,1,262.47,194.65Z" style="fill:#fafafa"></path><path d="M338.76,202.38a3.71,3.71,0,0,1-1-.24c-.61-.18-1.48-.47-2.55-.84-2.14-.75-5.06-1.88-8.26-3.16l-8.2-3.31a31.76,31.76,0,0,1-3.38-1.42,3.38,3.38,0,0,1,1,.23c.61.18,1.48.47,2.55.85,2.14.75,5.06,1.87,8.26,3.16l8.2,3.3A30.3,30.3,0,0,1,338.76,202.38Z" style="fill:#fafafa"></path><path d="M339.17,204.59a28.36,28.36,0,0,1-3.46-1.06l-8.27-2.78-8.25-2.83-2.48-.91a3.4,3.4,0,0,1-.89-.39,3.29,3.29,0,0,1,.95.2c.6.16,1.47.42,2.54.75,2.13.65,5.07,1.6,8.3,2.69s6.14,2.13,8.23,2.92c1,.4,1.88.73,2.46,1S339.19,204.55,339.17,204.59Z" style="fill:#fafafa"></path><path d="M286.74,227.06v22.2H281.6V231.18h-4.44v-4.12Z" style="fill:#fafafa"></path><path d="M308.94,242.25c0,4.54-3.71,7.39-8.4,7.39-6.13,0-9.93-3.84-9.93-11,0-7.68,4.63-12,11.32-12a12,12,0,0,1,6.19,1.52L306.21,232a7.32,7.32,0,0,0-4.15-1.11c-3.71,0-6.09,2.19-6.25,6.44a7.49,7.49,0,0,1,5.49-2C305.58,235.34,308.94,238.06,308.94,242.25Zm-5,.26c0-2-1.49-3.34-3.77-3.34s-3.84,1.4-3.84,3.34,1.43,3.29,3.9,3.29C302.44,245.8,304,244.54,304,242.51Z" style="fill:#fafafa"></path><g style="opacity:0.2"><path d="M294.74,272.82a27.86,27.86,0,0,1-9.56,2.47,11.36,11.36,0,0,1-8.95-3.49c-2.16-2.5-2.59-6.58-.46-9.11,1.82-2.15,4.93-2.73,7.74-2.6s5.62.83,8.44.66a18.26,18.26,0,0,0,10.73-5,54.29,54.29,0,0,0,7.69-9.26,36.29,36.29,0,0,1-17.46,27.13"></path></g><g style="opacity:0.2"><path d="M257.11,247.06a28.29,28.29,0,0,0,3.63-26.6c-.1-.25-.23-.52-.48-.6a.9.9,0,0,0-.73.26l-7.37,5.48q2.31,10.8,4.64,21.59"></path></g><path d="M285.55,200.7h0a11.74,11.74,0,0,0,11.5-11.24c.19-4.54.35-8.7.35-8.7s9.49-1,10.06-10.42,0-31.12,0-31.12h0a32.74,32.74,0,0,0-33.09,2.54l-1.45,1,.69,46.38A11.73,11.73,0,0,0,285.55,200.7Z" style="fill:#ffbe9d"></path><path d="M297.42,180.62a21.89,21.89,0,0,1-12.11-4.08s2.57,6.92,12,6.52Z" style="fill:#eb996e"></path><path d="M273.6,152.58c-.16-.08-6.38-2.23-6.49,4.22s6.39,5.22,6.41,5S273.6,152.58,273.6,152.58Z" style="fill:#ffbe9d"></path><path d="M271.59,159.36s-.12.08-.31.16a1.13,1.13,0,0,1-.84,0A2.79,2.79,0,0,1,269.2,157a3.58,3.58,0,0,1,.34-1.6,1.27,1.27,0,0,1,.86-.85.56.56,0,0,1,.65.32c.09.18.05.31.08.32s.14-.11.09-.37a.68.68,0,0,0-.25-.41.83.83,0,0,0-.61-.18,1.58,1.58,0,0,0-1.19,1,3.75,3.75,0,0,0-.42,1.79,2.92,2.92,0,0,0,1.59,2.82,1.22,1.22,0,0,0,1-.16C271.57,159.52,271.61,159.37,271.59,159.36Z" style="fill:#eb996e"></path><path d="M303,154.49a1.35,1.35,0,0,1-1.3,1.35,1.29,1.29,0,0,1-1.39-1.21,1.36,1.36,0,0,1,1.3-1.36A1.29,1.29,0,0,1,303,154.49Z" style="fill:#263238"></path><path d="M304.58,152.11c-.16.18-1.18-.58-2.63-.58s-2.51.73-2.67.56.09-.4.56-.74a3.74,3.74,0,0,1,2.13-.66,3.61,3.61,0,0,1,2.1.68C304.52,151.71,304.67,152,304.58,152.11Z" style="fill:#263238"></path><path d="M289,154.75a1.34,1.34,0,0,1-1.3,1.36,1.28,1.28,0,0,1-1.38-1.22,1.34,1.34,0,0,1,1.29-1.36A1.29,1.29,0,0,1,289,154.75Z" style="fill:#263238"></path><path d="M290.34,152.38c-.17.18-1.19-.58-2.64-.57s-2.51.72-2.66.55.09-.4.55-.74a3.7,3.7,0,0,1,2.14-.65,3.54,3.54,0,0,1,2.1.67C290.27,152,290.42,152.3,290.34,152.38Z" style="fill:#263238"></path><path d="M295.6,163.13a9.63,9.63,0,0,1,2.35-.43c.37,0,.72-.11.79-.36a2,2,0,0,0-.25-1.1l-1.1-2.82c-1.52-4-2.62-7.31-2.45-7.37s1.52,3.15,3,7.16c.37,1,.72,1.93,1,2.83a2.15,2.15,0,0,1,.19,1.46,1,1,0,0,1-.61.54,2.45,2.45,0,0,1-.62.08A9.82,9.82,0,0,1,295.6,163.13Z" style="fill:#263238"></path><path d="M290.71,146.7c-.14.4-1.59.21-3.29.41s-3.07.67-3.3.32c-.1-.17.14-.54.7-.92a5.75,5.75,0,0,1,5-.56C290.46,146.21,290.78,146.51,290.71,146.7Z" style="fill:#263238"></path><path d="M304.05,147.92c-.25.33-1.25,0-2.45,0s-2.22.22-2.45-.13c-.11-.16.05-.49.5-.8a3.55,3.55,0,0,1,4,.12C304,147.42,304.16,147.76,304.05,147.92Z" style="fill:#263238"></path><path d="M312.26,133a3.49,3.49,0,0,0-1.28-3.11,2.48,2.48,0,0,0-3.2.24,2.88,2.88,0,0,0-2.48-3.49c-1.54-.1-2.85,1.06-4.34,1.47a6.93,6.93,0,0,1-4.4-.51c-1.39-.56-2.7-1.33-4.11-1.85A12.06,12.06,0,0,0,277,132.82a5.35,5.35,0,0,0-5.68,2.15,8.81,8.81,0,0,0-1.35,6.19,19.47,19.47,0,0,0,1.08,4.23c0,.12,0,.24,0,.36.1,5.18.69,11.27,2.9,11.31,3.85.06,2.93-7.21,2.93-7.21,4.74-1.83,3-8.92,4.16-10s3.66-3.58,13.56,1.49a19.28,19.28,0,0,0,11.76,1.27l.24-.05h.06l.08,0a8.86,8.86,0,0,0,2.54-1.07,5,5,0,0,0,2.1-2.33,2.76,2.76,0,0,0-.54-3A6.07,6.07,0,0,0,312.26,133Z" style="fill:#263238"></path><path d="M297.11,167.79a9,9,0,0,1-4.29,0,9,9,0,0,1,4.29,0Z" style="fill:#263238"></path></g><g id="freepik--Ball--inject-33"><circle cx="309.76" cy="424.19" r="24.32" style="fill:#e0e0e0"></circle><polygon points="321.58 420.69 323.06 411.4 314.67 407.13 308.02 413.79 312.29 422.17 321.58 420.69" style="fill:#263238"></polygon><polygon points="300.36 430.7 299.1 438.64 306.32 444.38 312.03 439.99 308.35 431.53 300.36 430.7" style="fill:#263238"></polygon><polygon points="292.61 409.97 286.71 415.94 289.71 424.66 297.46 424.08 298.9 414.98 292.61 409.97" style="fill:#263238"></polygon><path d="M308.74,413.79a30.31,30.31,0,0,1-4.89.82,23.32,23.32,0,0,1-5,.36,23.93,23.93,0,0,1,4.89-.88C306.5,413.75,308.73,413.62,308.74,413.79Z" style="fill:#263238"></path><path d="M292.8,410.35a42.21,42.21,0,0,1,4.95-4.27,41.37,41.37,0,0,1,5.27-3.87,41.7,41.7,0,0,1-4.95,4.28A40.65,40.65,0,0,1,292.8,410.35Z" style="fill:#263238"></path><path d="M315.46,409c-.14.07-1.19-1.65-2.76-3.57s-3-3.3-2.94-3.42a12,12,0,0,1,3.34,3.09A11.68,11.68,0,0,1,315.46,409Z" style="fill:#263238"></path><path d="M329.27,409.67A12.08,12.08,0,0,1,326,411a12.65,12.65,0,0,1-3.46.82,11.91,11.91,0,0,1,3.3-1.31A12.65,12.65,0,0,1,329.27,409.67Z" style="fill:#263238"></path><path d="M330,429.05a40.3,40.3,0,0,1-4.36-4.69,39.71,39.71,0,0,1-3.95-5,39.15,39.15,0,0,1,4.35,4.68A41.22,41.22,0,0,1,330,429.05Z" style="fill:#263238"></path><path d="M306.48,433.62a7.28,7.28,0,0,1,.62-2c.46-1.19,1.17-2.81,2-4.55s1.76-3.27,2.44-4.35a7.42,7.42,0,0,1,1.22-1.67c.13.08-1.46,2.79-3.2,6.25S306.62,433.68,306.48,433.62Z" style="fill:#263238"></path><path d="M324.72,437.05a40.07,40.07,0,0,1-6.28,1.76c-3.5.82-6.38,1.37-6.41,1.18a10.33,10.33,0,0,1,1.83-.57c1.13-.31,2.71-.71,4.47-1.12A42.52,42.52,0,0,1,324.72,437.05Z" style="fill:#263238"></path><path d="M299.1,438.64a16.65,16.65,0,0,1-4.19.32,17.47,17.47,0,0,1-4.18-.21,16.28,16.28,0,0,1,4.17-.32A17.83,17.83,0,0,1,299.1,438.64Z" style="fill:#263238"></path><path d="M301.75,433.53a29.88,29.88,0,0,1-2.56-5,30.83,30.83,0,0,1-2.08-5.25,30.72,30.72,0,0,1,2.55,5A31.43,31.43,0,0,1,301.75,433.53Z" style="fill:#263238"></path><path d="M310,448.72a8.81,8.81,0,0,1-2-2.13,8.46,8.46,0,0,1-1.64-2.45,8.45,8.45,0,0,1,2,2.12A8.58,8.58,0,0,1,310,448.72Z" style="fill:#263238"></path><path d="M323.76,437.05l5.37-8.67,4.6-1v.09a18.87,18.87,0,0,1-7,14.11h0l-3-4.5" style="fill:#263238"></path><path d="M310.17,402.36,303,402.2s-.11-1.7,3.93-2.15,5.73,0,5.73,0Z" style="fill:#263238"></path><path d="M286.74,432.9a24.86,24.86,0,0,1,1.44-4.33,26.89,26.89,0,0,1,1.7-4.24,16.39,16.39,0,0,1-1.21,4.42A16.67,16.67,0,0,1,286.74,432.9Z" style="fill:#263238"></path><path d="M284.19,423c0,.15-6.67.35-14.89.47s-14.91.09-14.91-.06,6.67-.35,14.9-.46S284.19,422.89,284.19,423Z" style="fill:#263238"></path><path d="M278.2,427.32c0,.14-10,.27-22.25.29s-22.24-.09-22.24-.23,10-.28,22.24-.29S278.2,427.18,278.2,427.32Z" style="fill:#263238"></path></g><g id="freepik--Plants--inject-33"><path d="M619.61,436.16c-14.71-9.11-18.93-27.3-19.28-43.84-.05-2.76-.52-5.65.66-8.14s4.15-4.31,6.68-3.29c2.1.85,3.12,3.19,4.37,5.09a16.15,16.15,0,0,0,6.81,5.82c1.8.81,4,1.25,5.68.2,2.31-1.44,2.41-4.74,2.24-7.48q-.46-7.66-.94-15.32a25.53,25.53,0,0,1,.38-8.19c.71-2.64,2.46-5.16,5-6s5.87.45,6.57,3.11a25.57,25.57,0,0,1,.27,3.41,2.87,2.87,0,0,0,1.83,2.62c1.11.26,2.17-.58,2.94-1.43,2.68-2.92,4.4-6.59,6-10.23s3.14-7.37,5.54-10.53,5.82-5.75,9.74-6.19,8.23,1.76,9.43,5.56-.83,7.85-3.11,11.11a61.58,61.58,0,0,1-12.07,12.84,5.15,5.15,0,0,0-2,2.41c-.49,1.86,1.34,3.58,3.17,4.08,2.08.57,4.29.24,6.44.37s4.52.95,5.44,2.93c1.27,2.74-.91,5.8-3.11,7.85a52.37,52.37,0,0,1-15,9.81c-2,.85-4.06,1.61-5.6,3.12s-2.4,4-1.31,5.9,3.64,2.35,5.73,1.85,3.92-1.76,5.89-2.63c3.69-1.63,8.57-1.64,11.16,1.48A8.68,8.68,0,0,1,670.5,410a19.87,19.87,0,0,1-3.78,7,52.77,52.77,0,0,1-21.63,17.06c-8.57,3.51-16.62,4.77-25.48,2.07" style="fill:#CA2537"></path><path d="M620.07,448.41a119.62,119.62,0,0,1,3.23-22.83,245.64,245.64,0,0,1,8.3-27q1.27-3.53,2.54-7c.83-2.28,1.66-4.54,2.61-6.71a125.78,125.78,0,0,1,6.17-12.12c2.15-3.76,4.33-7.25,6.39-10.49s4.05-6.24,6-8.88a97.54,97.54,0,0,1,10-11.81c1.28-1.29,2.31-2.26,3-2.91l.81-.74.28-.24a1.7,1.7,0,0,1-.25.28l-.77.77c-.69.67-1.69,1.67-3,3a103.29,103.29,0,0,0-9.85,11.88c-1.9,2.65-3.86,5.64-5.91,8.89s-4.2,6.75-6.33,10.51a121.6,121.6,0,0,0-6.12,12.08c-.94,2.16-1.77,4.4-2.6,6.69s-1.68,4.61-2.54,7a253.09,253.09,0,0,0-8.32,26.91,122.86,122.86,0,0,0-3.33,22.74" style="fill:#263238"></path><path d="M636.9,384.91a5.36,5.36,0,0,1-.33-1.16c-.19-.75-.42-1.84-.69-3.2-.54-2.7-1.15-6.47-1.81-10.62s-1.33-7.9-1.91-10.59c-.28-1.35-.53-2.44-.7-3.19a5.25,5.25,0,0,1-.22-1.18,5.47,5.47,0,0,1,.41,1.13c.23.74.53,1.82.86,3.16.67,2.68,1.39,6.43,2,10.59s1.23,7.81,1.67,10.64l.53,3.22A6.1,6.1,0,0,1,636.9,384.91Z" style="fill:#263238"></path><path d="M671.77,376.38a7,7,0,0,1-1.39.25c-.9.13-2.21.31-3.81.59-3.21.52-7.61,1.4-12.43,2.59s-9.13,2.46-12.23,3.46c-1.55.5-2.79.93-3.66,1.22a8.18,8.18,0,0,1-1.35.42,6,6,0,0,1,1.29-.6c.84-.36,2.07-.84,3.61-1.38,3.07-1.09,7.39-2.42,12.22-3.62a122.28,122.28,0,0,1,12.5-2.45c1.61-.23,2.93-.36,3.84-.43A8.81,8.81,0,0,1,671.77,376.38Z" style="fill:#263238"></path><path d="M623.7,424.91a1.94,1.94,0,0,1-.27-.42l-.67-1.24c-.58-1.08-1.37-2.67-2.33-4.64-1.93-3.94-4.41-9.47-7.07-15.61s-5.09-11.69-6.92-15.67l-2.19-4.71c-.24-.51-.43-.93-.59-1.28a1.63,1.63,0,0,1-.17-.46,2.06,2.06,0,0,1,.26.41l.67,1.24c.58,1.08,1.38,2.67,2.34,4.64,1.92,3.95,4.4,9.48,7.06,15.62s5.09,11.69,6.93,15.66l2.19,4.71c.23.51.43.94.59,1.28A2,2,0,0,1,623.7,424.91Z" style="fill:#263238"></path><path d="M669.7,407.24a2.25,2.25,0,0,1-.46.22l-1.33.53-4.93,1.9c-4.16,1.61-9.87,3.89-16.19,6.42s-12.06,4.77-16.25,6.29c-2.1.76-3.8,1.36-5,1.75l-1.36.44a2.79,2.79,0,0,1-.49.12,1.72,1.72,0,0,1,.45-.22l1.34-.53,4.92-1.9c4.16-1.61,9.88-3.89,16.2-6.42s12-4.77,16.25-6.29c2.09-.76,3.8-1.36,5-1.75l1.37-.44A1.87,1.87,0,0,1,669.7,407.24Z" style="fill:#263238"></path><path d="M161.36,424.38c-1.19,1.71-3.5,1.14-4.58.1a8.65,8.65,0,0,1-1.94-4c-.94-3.28-1.9-6.72-1.19-10.06a5.61,5.61,0,0,1,1.28-2.74,2.92,2.92,0,0,1,2.77-.92,4.28,4.28,0,0,1,2.42,2.54,24,24,0,0,1,2.37,10.3,8.31,8.31,0,0,1-1.13,4.76" style="fill:#CA2537"></path><g style="opacity:0.2"><path d="M161.36,424.38c-1.19,1.71-3.5,1.14-4.58.1a8.65,8.65,0,0,1-1.94-4c-.94-3.28-1.9-6.72-1.19-10.06a5.61,5.61,0,0,1,1.28-2.74,2.92,2.92,0,0,1,2.77-.92,4.28,4.28,0,0,1,2.42,2.54,24,24,0,0,1,2.37,10.3,8.31,8.31,0,0,1-1.13,4.76"></path></g><path d="M156.9,433a10.43,10.43,0,0,0-6.41-.78,5.33,5.33,0,0,0-3.16,1.42,2.29,2.29,0,0,0,0,3.16,3.07,3.07,0,0,0,2,.5c1.69,0,3.57-.32,4.93.7.77.59,1.28,1.55,2.2,1.84a2.18,2.18,0,0,0,2.4-1.07,3.74,3.74,0,0,0,.28-2.75A4.23,4.23,0,0,0,156.9,433Z" style="fill:#CA2537"></path><path d="M164.64,426.83a6.2,6.2,0,0,1-1-5.7,11,11,0,0,1,3.38-4.9,18,18,0,0,1,6-3.57,6.56,6.56,0,0,1,2.72-.46,2.86,2.86,0,0,1,2.28,1.38c.64,1.22,0,2.69-.63,3.89a45.57,45.57,0,0,1-4,6,10.71,10.71,0,0,1-4.37,3.74c-1.81.7-3.7.61-4.66-.64" style="fill:#CA2537"></path><path d="M161.44,450.06a4.72,4.72,0,0,1-.1-.78c-.06-.56-.13-1.27-.21-2.11s-.23-1.94-.47-3.09a24,24,0,0,0-1.13-3.66,13.41,13.41,0,0,0-1.87-3.3,6.84,6.84,0,0,0-2.35-2,6.61,6.61,0,0,0-2-.62,4,4,0,0,1-.77-.11,3,3,0,0,1,.78,0,6.08,6.08,0,0,1,2.07.54,7,7,0,0,1,2.49,2,13.11,13.11,0,0,1,1.94,3.37,22.12,22.12,0,0,1,1.11,3.72,25.22,25.22,0,0,1,.42,3.13c.06.9.09,1.62.1,2.13A3,3,0,0,1,161.44,450.06Z" style="fill:#263238"></path><path d="M161.3,448.43a1.41,1.41,0,0,1,0-.36v-1c0-.89,0-2.18-.05-3.77-.07-3.19-.35-7.58-.88-12.41s-1.24-9.17-1.88-12.29c-.15-.78-.31-1.49-.45-2.1s-.26-1.15-.37-1.58-.18-.74-.24-1a1.56,1.56,0,0,1-.06-.35,1.38,1.38,0,0,1,.12.33l.3,1c.13.42.27.95.42,1.57s.33,1.31.5,2.09a116,116,0,0,1,2,12.31c.53,4.84.77,9.24.79,12.43,0,1.6,0,2.89-.06,3.78,0,.42,0,.76-.06,1A2,2,0,0,1,161.3,448.43Z" style="fill:#263238"></path><path d="M161.28,439.93a7.32,7.32,0,0,1,0-1.07c0-.69.14-1.68.33-2.9a39.63,39.63,0,0,1,.95-4.23,37.38,37.38,0,0,1,1.77-5,26.59,26.59,0,0,1,5.19-8.09,12.39,12.39,0,0,1,1.23-1.14c.18-.16.35-.31.52-.44l.47-.33a6.18,6.18,0,0,1,.9-.57,32.48,32.48,0,0,0-2.95,2.63,28.08,28.08,0,0,0-5.07,8.07,40,40,0,0,0-1.78,5,42.56,42.56,0,0,0-1,4.19c-.23,1.2-.35,2.19-.43,2.87A8.11,8.11,0,0,1,161.28,439.93Z" style="fill:#263238"></path></g></svg>
