<?xml version="1.0" standalone="no"?>
<!DOCTYPE svg PUBLIC "-//W3C//DTD SVG 20010904//EN"
 "http://www.w3.org/TR/2001/REC-SVG-20010904/DTD/svg10.dtd">
<svg version="1.0" xmlns="http://www.w3.org/2000/svg"
 width="1200.000000pt" height="1200.000000pt" viewBox="0 0 1200.000000 1200.000000"
 preserveAspectRatio="xMidYMid meet">

<g transform="translate(0.000000,1200.000000) scale(0.100000,-0.100000)"
fill="#000000" stroke="none">
<path d="M4780 11749 c-1301 -13 -1742 -52 -2245 -199 -503 -147 -904 -377
-1264 -725 -500 -482 -785 -1058 -911 -1840 -62 -385 -81 -835 -87 -2105 l-5
-1035 338 -1 c297 0 473 -9 647 -31 l47 -6 0 819 c0 1017 18 1679 55 2014 78
705 319 1198 759 1554 319 258 720 408 1256 470 356 41 686 49 2405 53 2447 7
2892 -11 3379 -137 217 -56 479 -168 633 -271 556 -370 851 -932 922 -1754 35
-399 50 -1167 50 -2495 0 -1375 -16 -2243 -49 -2625 -41 -458 -161 -868 -340
-1160 -142 -231 -383 -475 -605 -613 -211 -130 -456 -225 -740 -287 -369 -80
-826 -103 -2212 -112 l-971 -6 -7 -86 c-22 -323 -71 -618 -143 -874 l-20 -68
992 6 c1519 9 1975 29 2421 105 544 93 1034 291 1401 566 383 287 687 649 884
1049 229 466 338 917 379 1560 32 507 36 752 36 2475 0 1723 -3 1943 -36 2480
-65 1081 -390 1840 -1039 2428 -211 192 -409 324 -675 453 -396 191 -799 298
-1325 349 -497 48 -2080 68 -3930 49z"/>
<path d="M8965 9744 c-106 -23 -238 -91 -317 -163 -139 -128 -216 -291 -225
-476 -6 -131 13 -222 73 -345 39 -77 62 -109 128 -175 90 -89 172 -138 296
-176 96 -30 262 -32 359 -6 519 141 692 783 311 1157 -126 124 -276 188 -455
196 -68 2 -123 -1 -170 -12z"/>
<path d="M5760 8939 c-565 -56 -1096 -265 -1542 -606 -120 -91 -340 -302 -443
-423 -436 -514 -670 -1124 -701 -1827 l-7 -163 149 0 c260 0 518 -31 760 -90
67 -17 124 -30 128 -30 3 0 3 51 0 113 -12 210 24 461 97 682 215 651 761
1138 1435 1281 632 134 1293 -64 1754 -526 580 -580 726 -1468 363 -2207 -252
-513 -729 -893 -1283 -1024 -136 -32 -284 -49 -444 -49 l-148 0 5 -22 c40
-160 57 -444 38 -629 -10 -98 -45 -281 -67 -358 l-7 -24 239 6 c238 6 351 17
554 58 422 85 884 303 1239 585 128 103 358 334 461 464 423 534 642 1160 642
1840 0 483 -96 895 -308 1320 -439 881 -1275 1480 -2254 1615 -139 19 -528 27
-660 14z"/>
</g>
</svg>
